<svg width="32" height="32" viewBox="0 0 32 32" fill="none" xmlns="http://www.w3.org/2000/svg">
<rect x="1" y="1" width="30" height="30" rx="15" stroke="#E66A9D" stroke-width="2"/>
<path d="M24.1 15.2791H23.218C22.7203 15.2791 22.318 15.6022 22.318 16C22.318 16.3969 22.7203 16.7191 23.218 16.7191H24.1C24.5968 16.7191 25 16.3978 25 16C25 15.6031 24.5959 15.2791 24.1 15.2791ZM16 11.05C15.3494 11.048 14.7048 11.1746 14.1033 11.4227C13.5019 11.6707 12.9554 12.0353 12.4953 12.4953C12.0353 12.9554 11.6707 13.5019 11.4227 14.1033C11.1746 14.7048 11.048 15.3494 11.05 16C11.05 18.7459 13.2541 20.95 16 20.95C18.745 20.95 20.95 18.7459 20.95 16C20.95 13.2541 18.7441 11.05 16 11.05ZM16 19.6C14.0101 19.6 12.4 17.9881 12.4 16C12.4 14.0101 14.0101 12.4 16 12.4C16.9548 12.4 17.8705 12.7793 18.5456 13.4544C19.2207 14.1295 19.6 15.0452 19.6 16C19.6 16.9548 19.2207 17.8705 18.5456 18.5456C17.8705 19.2207 16.9548 19.6 16 19.6ZM9.7 16C9.7 15.6031 9.2959 15.2791 8.8 15.2791H7.9C7.4023 15.2791 7 15.6022 7 16C7 16.3969 7.4023 16.7191 7.9 16.7191H8.8C9.2959 16.7191 9.7 16.3969 9.7 16ZM16 9.7C16.3969 9.7 16.7191 9.2977 16.7191 8.8V7.9C16.7191 7.4023 16.3969 7 16 7C15.6031 7 15.2791 7.4023 15.2791 7.9V8.8C15.2791 9.2977 15.6022 9.7 16 9.7ZM16 22.3C15.6022 22.3 15.2791 22.7023 15.2791 23.2V24.1C15.2791 24.5977 15.6022 25 16 25C16.3969 25 16.7191 24.5977 16.7191 24.1V23.2C16.7191 22.7023 16.3969 22.3 16 22.3ZM22.6285 10.3894C22.9804 10.0375 23.0371 9.5245 22.7563 9.2437C22.4755 8.9629 21.9616 9.0205 21.6115 9.3724L20.9815 10.0015C20.6296 10.3534 20.5729 10.8664 20.8537 11.1472C21.1345 11.428 21.6484 11.3704 21.9994 11.0185L22.6285 10.3894ZM10.0006 20.9797L9.3706 21.6106C9.0187 21.9625 8.962 22.4737 9.2428 22.7545C9.5236 23.0353 10.0375 22.9795 10.3876 22.6276L11.0176 21.9985C11.3695 21.6466 11.4262 21.1336 11.1454 20.8519C10.8646 20.5702 10.3507 20.6296 10.0006 20.9797ZM10.3885 9.3715C10.0375 9.0196 9.5236 8.962 9.2428 9.2428C8.962 9.5236 9.0196 10.0375 9.3697 10.3894L9.9997 11.0185C10.3516 11.3704 10.8637 11.428 11.1445 11.1472C11.4253 10.8664 11.3686 10.3525 11.0176 10.0015L10.3885 9.3715ZM20.9806 21.9994L21.6106 22.6285C21.9625 22.9804 22.4746 23.0362 22.7554 22.7572C23.0362 22.4764 22.9795 21.9625 22.6276 21.6115L21.9985 20.9824C21.6466 20.6305 21.1336 20.5729 20.8519 20.8537C20.5702 21.1345 20.6287 21.6475 20.9806 21.9994Z" fill="#E66A9D"/>
</svg>
