<svg width="16" height="16" viewBox="0 0 16 16" fill="none" xmlns="http://www.w3.org/2000/svg">
<path d="M14.1667 7.99997H5.93004M3.02271 7.99997H1.83337M3.02271 7.99997C3.02271 7.61452 3.17583 7.24486 3.44838 6.97231C3.72093 6.69975 4.09059 6.54663 4.47604 6.54663C4.86149 6.54663 5.23115 6.69975 5.5037 6.97231C5.77626 7.24486 5.92937 7.61452 5.92937 7.99997C5.92937 8.38542 5.77626 8.75508 5.5037 9.02763C5.23115 9.30018 4.86149 9.4533 4.47604 9.4533C4.09059 9.4533 3.72093 9.30018 3.44838 9.02763C3.17583 8.75508 3.02271 8.38542 3.02271 7.99997ZM14.1667 12.4046H10.3347M10.3347 12.4046C10.3347 12.7902 10.1812 13.1603 9.90861 13.4329C9.63599 13.7055 9.26624 13.8586 8.88071 13.8586C8.49526 13.8586 8.1256 13.7048 7.85305 13.4323C7.58049 13.1597 7.42737 12.7901 7.42737 12.4046M10.3347 12.4046C10.3347 12.0191 10.1812 11.6497 9.90861 11.3771C9.63599 11.1045 9.26624 10.9513 8.88071 10.9513C8.49526 10.9513 8.1256 11.1044 7.85305 11.377C7.58049 11.6495 7.42737 12.0192 7.42737 12.4046M7.42737 12.4046H1.83337M14.1667 3.5953H12.0967M9.18937 3.5953H1.83337M9.18937 3.5953C9.18937 3.20985 9.34249 2.84019 9.61505 2.56764C9.8876 2.29509 10.2573 2.14197 10.6427 2.14197C10.8336 2.14197 11.0225 2.17956 11.1989 2.2526C11.3752 2.32563 11.5354 2.43268 11.6704 2.56764C11.8053 2.70259 11.9124 2.86281 11.9854 3.03913C12.0584 3.21546 12.096 3.40445 12.096 3.5953C12.096 3.78616 12.0584 3.97514 11.9854 4.15147C11.9124 4.32779 11.8053 4.48801 11.6704 4.62296C11.5354 4.75792 11.3752 4.86497 11.1989 4.93801C11.0225 5.01104 10.8336 5.04863 10.6427 5.04863C10.2573 5.04863 9.8876 4.89552 9.61505 4.62296C9.34249 4.35041 9.18937 3.98075 9.18937 3.5953Z" stroke="#E4E4E4" stroke-miterlimit="10" stroke-linecap="round"/>
</svg>
