<svg width="37" height="38" viewBox="0 0 37 38" fill="none" xmlns="http://www.w3.org/2000/svg">
<mask id="path-1-inside-1_400_1945" fill="white">
<path fill-rule="evenodd" clip-rule="evenodd" d="M5.57122 4.88852C7.47554 2.46786 10.8578 1.95191 13.1259 3.73618C13.4617 4.00036 13.7533 4.30085 14.0019 4.62778C14.0815 4.70648 14.169 4.83453 14.2675 5.01352C14.5197 5.42015 14.7107 5.85945 14.8398 6.31821C15.6285 8.3881 16.8283 12.3427 18.6757 18.6268C11.9442 18.4302 7.85524 18.2499 5.71868 17.9422C4.67373 17.9087 3.64685 17.5639 2.78216 16.8836C0.514275 15.0993 0.219737 11.691 2.12396 9.27036C2.752 8.47202 3.5408 7.88136 4.39739 7.51157C4.55521 6.59225 4.94336 5.68666 5.57122 4.88852Z"/>
</mask>
<path fill-rule="evenodd" clip-rule="evenodd" d="M5.57122 4.88852C7.47554 2.46786 10.8578 1.95191 13.1259 3.73618C13.4617 4.00036 13.7533 4.30085 14.0019 4.62778C14.0815 4.70648 14.169 4.83453 14.2675 5.01352C14.5197 5.42015 14.7107 5.85945 14.8398 6.31821C15.6285 8.3881 16.8283 12.3427 18.6757 18.6268C11.9442 18.4302 7.85524 18.2499 5.71868 17.9422C4.67373 17.9087 3.64685 17.5639 2.78216 16.8836C0.514275 15.0993 0.219737 11.691 2.12396 9.27036C2.752 8.47202 3.5408 7.88136 4.39739 7.51157C4.55521 6.59225 4.94336 5.68666 5.57122 4.88852Z" fill="#B14B6F"/>
<path d="M5.57122 4.88852L4.78528 4.27022L4.78527 4.27024L5.57122 4.88852ZM13.1259 3.73618L13.7442 2.95024L13.7442 2.95022L13.1259 3.73618ZM14.0019 4.62778L13.2058 5.23302L13.2487 5.28933L13.299 5.33906L14.0019 4.62778ZM14.2675 5.01352L13.3914 5.49564L13.404 5.51847L13.4177 5.54061L14.2675 5.01352ZM14.8398 6.31821L13.8771 6.58896L13.8893 6.63225L13.9053 6.67426L14.8398 6.31821ZM18.6757 18.6268L18.6465 19.6264L20.0237 19.6666L19.6351 18.3448L18.6757 18.6268ZM5.71868 17.9422L5.8612 16.9524L5.80624 16.9445L5.75074 16.9427L5.71868 17.9422ZM2.78216 16.8836L2.16381 17.6695L2.16388 17.6696L2.78216 16.8836ZM2.12396 9.27036L1.33801 8.65206L1.338 8.65207L2.12396 9.27036ZM4.39739 7.51157L4.79374 8.42967L5.29129 8.21488L5.38298 7.68076L4.39739 7.51157ZM5.57122 4.88852L6.35717 5.50682C7.95856 3.47122 10.721 3.11664 12.5076 4.52213L13.1259 3.73618L13.7442 2.95022C10.9946 0.787181 6.99252 1.46449 4.78528 4.27022L5.57122 4.88852ZM13.1259 3.73618L12.5076 4.52211C12.7745 4.7321 13.0069 4.97133 13.2058 5.23302L14.0019 4.62778L14.7979 4.02254C14.4998 3.63038 14.1489 3.26863 13.7442 2.95024L13.1259 3.73618ZM14.0019 4.62778L13.299 5.33906C13.2798 5.32007 13.2817 5.31778 13.3035 5.34944C13.3238 5.37899 13.353 5.42589 13.3914 5.49564L14.2675 5.01352L15.1436 4.5314C15.0325 4.32952 14.8894 4.09889 14.7048 3.9165L14.0019 4.62778ZM14.2675 5.01352L13.4177 5.54061C13.619 5.8651 13.7727 6.21776 13.8771 6.58896L14.8398 6.31821L15.8024 6.04746C15.6488 5.50115 15.4205 4.9752 15.1173 4.48643L14.2675 5.01352ZM14.8398 6.31821L13.9053 6.67426C14.6767 8.69876 15.8641 12.6081 17.7163 18.9088L18.6757 18.6268L19.6351 18.3448C17.7926 12.0772 16.5802 8.07745 15.7742 5.96216L14.8398 6.31821ZM18.6757 18.6268L18.7049 17.6272C11.9494 17.4299 7.92795 17.25 5.8612 16.9524L5.71868 17.9422L5.57617 18.932C7.78253 19.2497 11.939 19.4305 18.6465 19.6264L18.6757 18.6268ZM5.71868 17.9422L5.75074 16.9427C4.90619 16.9157 4.08772 16.6383 3.40044 16.0977L2.78216 16.8836L2.16388 17.6696C3.20598 18.4894 4.44127 18.9018 5.68662 18.9417L5.71868 17.9422ZM2.78216 16.8836L3.4005 16.0977C1.61412 14.6922 1.30856 11.9243 2.90991 9.88864L2.12396 9.27036L1.338 8.65207C-0.869081 11.4577 -0.585565 15.5064 2.16381 17.6695L2.78216 16.8836ZM2.12396 9.27036L2.9099 9.88866C3.43383 9.22267 4.08811 8.73429 4.79374 8.42967L4.39739 7.51157L4.00105 6.59347C2.99348 7.02844 2.07018 7.72138 1.33801 8.65206L2.12396 9.27036ZM4.39739 7.51157L5.38298 7.68076C5.513 6.9233 5.83349 6.17251 6.35718 5.5068L5.57122 4.88852L4.78527 4.27024C4.05322 5.2008 3.59741 6.26119 3.41181 7.34238L4.39739 7.51157Z" fill="#B14B6F" mask="url(#path-1-inside-1_400_1945)"/>
<mask id="path-3-inside-2_400_1945" fill="white">
<path d="M18.584 18.5376C22.5892 23.9468 24.9756 27.2711 26.0557 29.1411C26.6774 29.984 27.043 31.0058 27.043 32.1079C27.0428 34.9936 24.5457 37.3325 21.4658 37.3325C20.4499 37.3325 19.4981 37.0771 18.6777 36.6323C17.8574 37.0771 16.9056 37.3325 15.8896 37.3325C12.8098 37.3325 10.3127 34.9936 10.3125 32.1079C10.3125 31.6824 10.3673 31.2686 10.4697 30.8726C10.4818 30.7556 10.5328 30.5972 10.6211 30.3931C10.783 29.9562 11.0034 29.5449 11.2764 29.1694C12.4139 27.2712 14.7822 23.8818 18.584 18.5376Z"/>
</mask>
<path d="M18.584 18.5376C22.5892 23.9468 24.9756 27.2711 26.0557 29.1411C26.6774 29.984 27.043 31.0058 27.043 32.1079C27.0428 34.9936 24.5457 37.3325 21.4658 37.3325C20.4499 37.3325 19.4981 37.0771 18.6777 36.6323C17.8574 37.0771 16.9056 37.3325 15.8896 37.3325C12.8098 37.3325 10.3127 34.9936 10.3125 32.1079C10.3125 31.6824 10.3673 31.2686 10.4697 30.8726C10.4818 30.7556 10.5328 30.5972 10.6211 30.3931C10.783 29.9562 11.0034 29.5449 11.2764 29.1694C12.4139 27.2712 14.7822 23.8818 18.584 18.5376Z" fill="#B14B6F"/>
<path d="M18.584 18.5376L19.3877 17.9425L18.5678 16.8353L17.7691 17.9579L18.584 18.5376ZM26.0557 29.1411L25.1897 29.6413L25.2177 29.6897L25.2509 29.7347L26.0557 29.1411ZM27.043 32.1079L28.043 32.108V32.1079H27.043ZM21.4658 37.3325L21.4658 38.3325H21.4658V37.3325ZM18.6777 36.6323L19.1543 35.7532L18.6777 35.4948L18.2011 35.7532L18.6777 36.6323ZM15.8896 37.3325V38.3325H15.8897L15.8896 37.3325ZM10.3125 32.1079H9.3125V32.108L10.3125 32.1079ZM10.4697 30.8726L11.4379 31.123L11.4567 31.0501L11.4644 30.9753L10.4697 30.8726ZM10.6211 30.3931L11.539 30.7899L11.5495 30.7655L11.5588 30.7406L10.6211 30.3931ZM11.2764 29.1694L12.0852 29.7574L12.1113 29.7215L12.1341 29.6834L11.2764 29.1694ZM18.584 18.5376L17.7803 19.1327C21.7999 24.5613 24.1449 27.8322 25.1897 29.6413L26.0557 29.1411L26.9216 28.641C25.8064 26.71 23.3786 23.3324 19.3877 17.9425L18.584 18.5376ZM26.0557 29.1411L25.2509 29.7347C25.7536 30.4162 26.043 31.2323 26.043 32.1079H27.043H28.043C28.043 30.7794 27.6011 29.5517 26.8604 28.5475L26.0557 29.1411ZM27.043 32.1079L26.043 32.1078C26.0428 34.3808 24.0559 36.3325 21.4658 36.3325V37.3325V38.3325C25.0355 38.3325 28.0428 35.6065 28.043 32.108L27.043 32.1079ZM21.4658 37.3325L21.4658 36.3325C20.6188 36.3325 19.8305 36.1198 19.1543 35.7532L18.6777 36.6323L18.2011 37.5114C19.1657 38.0343 20.281 38.3325 21.4658 38.3325L21.4658 37.3325ZM18.6777 36.6323L18.2011 35.7532C17.525 36.1198 16.7367 36.3325 15.8896 36.3325L15.8896 37.3325L15.8897 38.3325C17.0744 38.3325 18.1898 38.0344 19.1544 37.5114L18.6777 36.6323ZM15.8896 37.3325V36.3325C13.2995 36.3325 11.3126 34.3808 11.3125 32.1078L10.3125 32.1079L9.3125 32.108C9.31271 35.6065 12.32 38.3325 15.8896 38.3325V37.3325ZM10.3125 32.1079H11.3125C11.3125 31.7686 11.3561 31.4389 11.4379 31.123L10.4697 30.8726L9.50159 30.6221C9.37844 31.0982 9.3125 31.5962 9.3125 32.1079H10.3125ZM10.4697 30.8726L11.4644 30.9753C11.4611 31.0077 11.4569 31.0093 11.47 30.9679C11.4821 30.9297 11.5035 30.8719 11.539 30.7899L10.6211 30.3931L9.70322 29.9962C9.60686 30.2191 9.50352 30.4938 9.47502 30.7698L10.4697 30.8726ZM10.6211 30.3931L11.5588 30.7406C11.689 30.3894 11.866 30.059 12.0852 29.7574L11.2764 29.1694L10.4675 28.5815C10.1408 29.0308 9.8771 29.523 9.68344 30.0455L10.6211 30.3931ZM11.2764 29.1694L12.1341 29.6834C13.2465 27.8271 15.5868 24.4759 19.3988 19.1173L18.584 18.5376L17.7691 17.9579C13.9776 23.2877 11.5812 26.7153 10.4186 28.6554L11.2764 29.1694Z" fill="#B14B6F" mask="url(#path-3-inside-2_400_1945)"/>
<mask id="path-5-inside-3_400_1945" fill="white">
<path fill-rule="evenodd" clip-rule="evenodd" d="M4.55727 16.5638C5.01592 16.5211 5.47665 16.5414 5.92837 16.6224C8.13037 16.822 12.2141 17.4837 18.6872 18.5892C15.563 24.5281 13.6066 28.1173 12.3903 29.9076C11.9013 30.8408 11.1369 31.6196 10.1383 32.1009C7.53889 33.3539 4.34793 32.1211 3.0104 29.347C2.56938 28.4321 2.38606 27.4635 2.43032 26.5316C1.67297 25.9857 1.02896 25.2392 0.587546 24.3236C-0.749842 21.5491 0.273086 18.2837 2.8727 17.0306C3.2547 16.8465 3.64966 16.7168 4.04946 16.6371C4.16127 16.5961 4.32939 16.5728 4.55727 16.5638Z"/>
</mask>
<path fill-rule="evenodd" clip-rule="evenodd" d="M4.55727 16.5638C5.01592 16.5211 5.47665 16.5414 5.92837 16.6224C8.13037 16.822 12.2141 17.4837 18.6872 18.5892C15.563 24.5281 13.6066 28.1173 12.3903 29.9076C11.9013 30.8408 11.1369 31.6196 10.1383 32.1009C7.53889 33.3539 4.34793 32.1211 3.0104 29.347C2.56938 28.4321 2.38606 27.4635 2.43032 26.5316C1.67297 25.9857 1.02896 25.2392 0.587546 24.3236C-0.749842 21.5491 0.273086 18.2837 2.8727 17.0306C3.2547 16.8465 3.64966 16.7168 4.04946 16.6371C4.16127 16.5961 4.32939 16.5728 4.55727 16.5638Z" fill="#B14B6F"/>
<path d="M4.55727 16.5638L4.59655 17.5631L4.62336 17.562L4.65008 17.5595L4.55727 16.5638ZM5.92837 16.6224L5.75171 17.6067L5.79466 17.6144L5.83812 17.6183L5.92837 16.6224ZM18.6872 18.5892L19.5722 19.0548L20.2136 17.8354L18.8555 17.6035L18.6872 18.5892ZM12.3903 29.9076L11.5631 29.3456L11.531 29.3929L11.5045 29.4435L12.3903 29.9076ZM10.1383 32.1009L10.5725 33.0018L10.5725 33.0017L10.1383 32.1009ZM3.0104 29.347L2.10959 29.7812L2.10963 29.7813L3.0104 29.347ZM2.43032 26.5316L3.42919 26.579L3.45492 26.0374L3.01505 25.7204L2.43032 26.5316ZM0.587546 24.3236L-0.313262 24.7578L-0.313236 24.7579L0.587546 24.3236ZM2.8727 17.0306L2.43853 16.1298L2.43848 16.1298L2.8727 17.0306ZM4.04946 16.6371L4.24506 17.6178L4.32082 17.6026L4.39337 17.5761L4.04946 16.6371ZM4.55727 16.5638L4.65008 17.5595C5.01787 17.5252 5.38796 17.5414 5.75171 17.6067L5.92837 16.6224L6.10502 15.6381C5.56535 15.5413 5.01398 15.5169 4.46447 15.5681L4.55727 16.5638ZM5.92837 16.6224L5.83812 17.6183C7.99125 17.8135 12.0282 18.4665 18.5188 19.5749L18.6872 18.5892L18.8555 17.6035C12.4 16.501 8.26948 15.8305 6.01861 15.6265L5.92837 16.6224ZM18.6872 18.5892L17.8021 18.1237C14.6671 24.0834 12.7403 27.6129 11.5631 29.3456L12.3903 29.9076L13.2174 30.4695C14.4729 28.6216 16.459 24.9729 19.5722 19.0548L18.6872 18.5892ZM12.3903 29.9076L11.5045 29.4435C11.1091 30.1982 10.4975 30.8177 9.70411 31.2001L10.1383 32.1009L10.5725 33.0017C11.7763 32.4215 12.6936 31.4834 13.2761 30.3717L12.3903 29.9076ZM10.1383 32.1009L9.70412 31.2001C7.65645 32.1871 5.0359 31.2454 3.91116 28.9127L3.0104 29.347L2.10963 29.7813C3.65997 32.9968 7.42134 34.5207 10.5725 33.0018L10.1383 32.1009ZM3.0104 29.347L3.9112 28.9128C3.54351 28.15 3.39271 27.3472 3.42919 26.579L2.43032 26.5316L1.43145 26.4842C1.37941 27.5798 1.59525 28.7142 2.10959 29.7812L3.0104 29.347ZM2.43032 26.5316L3.01505 25.7204C2.39066 25.2703 1.85628 24.6525 1.48833 23.8893L0.587546 24.3236L-0.313236 24.7579C0.20163 25.8258 0.955281 26.7011 1.84558 27.3428L2.43032 26.5316ZM0.587546 24.3236L1.48835 23.8894C0.363655 21.5561 1.25927 18.9185 3.30692 17.9314L2.8727 17.0306L2.43848 16.1298C-0.713098 17.649 -1.86334 21.5421 -0.313262 24.7578L0.587546 24.3236ZM2.8727 17.0306L3.30688 17.9315C3.61109 17.7848 3.92568 17.6815 4.24506 17.6178L4.04946 16.6371L3.85386 15.6564C3.37364 15.7522 2.89832 15.9082 2.43853 16.1298L2.8727 17.0306ZM4.04946 16.6371L4.39337 17.5761C4.36125 17.5878 4.35723 17.5847 4.40128 17.5784C4.4418 17.5726 4.50481 17.5667 4.59655 17.5631L4.55727 16.5638L4.518 15.5646C4.27002 15.5743 3.97119 15.6008 3.70555 15.6981L4.04946 16.6371Z" fill="#B14B6F" mask="url(#path-5-inside-3_400_1945)"/>
<mask id="path-7-inside-4_400_1945" fill="white">
<path fill-rule="evenodd" clip-rule="evenodd" d="M31.4307 32.4447C29.5264 34.8654 26.1442 35.3813 23.876 33.5971C23.5402 33.3329 23.2486 33.0324 23.0001 32.7055C22.9204 32.6268 22.8329 32.4987 22.7344 32.3197C22.4817 31.9122 22.2902 31.472 22.1612 31.0121C21.3725 28.9415 20.1728 24.9877 18.3262 18.7065C25.0372 18.9025 29.1218 19.0812 31.2637 19.3871C32.3154 19.4169 33.3497 19.7622 34.2198 20.4467C36.4877 22.2311 36.7822 25.6394 34.878 28.06C34.25 28.8583 33.4612 29.449 32.6046 29.8188C32.4471 30.739 32.0592 31.6458 31.4307 32.4447Z"/>
</mask>
<path fill-rule="evenodd" clip-rule="evenodd" d="M31.4307 32.4447C29.5264 34.8654 26.1442 35.3813 23.876 33.5971C23.5402 33.3329 23.2486 33.0324 23.0001 32.7055C22.9204 32.6268 22.8329 32.4987 22.7344 32.3197C22.4817 31.9122 22.2902 31.472 22.1612 31.0121C21.3725 28.9415 20.1728 24.9877 18.3262 18.7065C25.0372 18.9025 29.1218 19.0812 31.2637 19.3871C32.3154 19.4169 33.3497 19.7622 34.2198 20.4467C36.4877 22.2311 36.7822 25.6394 34.878 28.06C34.25 28.8583 33.4612 29.449 32.6046 29.8188C32.4471 30.739 32.0592 31.6458 31.4307 32.4447Z" fill="#B14B6F"/>
<path d="M31.4307 32.4447L32.2167 33.063L32.2167 33.063L31.4307 32.4447ZM23.876 33.5971L23.2578 34.383L23.2578 34.383L23.876 33.5971ZM23.0001 32.7055L23.7961 32.1002L23.7533 32.0439L23.7029 31.9941L23.0001 32.7055ZM22.7344 32.3197L23.6105 31.8376L23.598 31.8148L23.5842 31.7926L22.7344 32.3197ZM22.1612 31.0121L23.124 30.7419L23.1118 30.6984L23.0957 30.6562L22.1612 31.0121ZM18.3262 18.7065L18.3554 17.7069L16.9783 17.6667L17.3668 18.9885L18.3262 18.7065ZM31.2637 19.3871L31.1224 20.3771L31.1786 20.3851L31.2354 20.3867L31.2637 19.3871ZM34.2198 20.4467L34.8381 19.6608L34.8381 19.6607L34.2198 20.4467ZM34.878 28.06L35.6639 28.6783L35.664 28.6783L34.878 28.06ZM32.6046 29.8188L32.2082 28.9007L31.7104 29.1156L31.6189 29.6501L32.6046 29.8188ZM31.4307 32.4447L30.6448 31.8264C29.0434 33.862 26.281 34.2166 24.4943 32.8111L23.876 33.5971L23.2578 34.383C26.0074 36.5461 30.0094 35.8687 32.2167 33.063L31.4307 32.4447ZM23.876 33.5971L24.4943 32.8111C24.2275 32.6012 23.9951 32.3619 23.7961 32.1002L23.0001 32.7055L22.204 33.3107C22.5022 33.7029 22.853 34.0646 23.2578 34.383L23.876 33.5971ZM23.0001 32.7055L23.7029 31.9941C23.7222 32.0132 23.7202 32.0155 23.6985 31.9839C23.6782 31.9543 23.6489 31.9074 23.6105 31.8376L22.7344 32.3197L21.8584 32.8019C21.9694 33.0037 22.1126 33.2344 22.2972 33.4168L23.0001 32.7055ZM22.7344 32.3197L23.5842 31.7926C23.3825 31.4673 23.2284 31.1138 23.124 30.7419L22.1612 31.0121L21.1984 31.2823C21.3521 31.8301 21.5809 32.3572 21.8846 32.8468L22.7344 32.3197ZM22.1612 31.0121L23.0957 30.6562C22.3243 28.6309 21.137 24.7222 19.2856 18.4244L18.3262 18.7065L17.3668 18.9885C19.2085 25.2532 20.4207 29.2521 21.2267 31.3681L22.1612 31.0121ZM18.3262 18.7065L18.2971 19.706C25.0318 19.9027 29.0496 20.081 31.1224 20.3771L31.2637 19.3871L31.4051 18.3972C29.1941 18.0814 25.0425 17.9022 18.3554 17.7069L18.3262 18.7065ZM31.2637 19.3871L31.2354 20.3867C32.0853 20.4108 32.9098 20.6885 33.6015 21.2327L34.2198 20.4467L34.8381 19.6607C33.7896 18.836 32.5455 18.4231 31.2921 18.3875L31.2637 19.3871ZM34.2198 20.4467L33.6015 21.2326C35.3878 22.6381 35.6934 25.4061 34.092 27.4417L34.878 28.06L35.664 28.6783C37.871 25.8726 37.5875 21.824 34.8381 19.6608L34.2198 20.4467ZM34.878 28.06L34.0921 27.4417C33.5681 28.1077 32.9138 28.596 32.2082 28.9007L32.6046 29.8188L33.0009 30.7369C34.0085 30.3019 34.9318 29.609 35.6639 28.6783L34.878 28.06ZM32.6046 29.8188L31.6189 29.6501C31.4891 30.4087 31.1688 31.1604 30.6448 31.8265L31.4307 32.4447L32.2167 33.063C32.9497 32.1313 33.405 31.0694 33.5902 29.9875L32.6046 29.8188Z" fill="#B14B6F" mask="url(#path-7-inside-4_400_1945)"/>
<mask id="path-9-inside-5_400_1945" fill="white">
<path d="M18.417 18.793C14.4193 13.3939 12.0341 10.0722 10.9512 8.2002C10.3259 7.35582 9.95801 6.33116 9.95801 5.22559C9.95809 2.33978 12.4552 0 15.5352 0C16.5511 9.53674e-06 17.5029 0.256409 18.3232 0.701172C19.1436 0.256378 20.0954 5.34058e-05 21.1113 0C24.1913 0 26.6884 2.33978 26.6885 5.22559C26.6885 5.65125 26.6328 6.06481 26.5303 6.46094C26.518 6.57471 26.4702 6.72761 26.3867 6.92285C26.223 7.36983 25.9974 7.7899 25.7178 8.17285C24.5776 10.0733 22.211 13.4597 18.417 18.793Z"/>
</mask>
<path d="M18.417 18.793C14.4193 13.3939 12.0341 10.0722 10.9512 8.2002C10.3259 7.35582 9.95801 6.33116 9.95801 5.22559C9.95809 2.33978 12.4552 0 15.5352 0C16.5511 9.53674e-06 17.5029 0.256409 18.3232 0.701172C19.1436 0.256378 20.0954 5.34058e-05 21.1113 0C24.1913 0 26.6884 2.33978 26.6885 5.22559C26.6885 5.65125 26.6328 6.06481 26.5303 6.46094C26.518 6.57471 26.4702 6.72761 26.3867 6.92285C26.223 7.36983 25.9974 7.7899 25.7178 8.17285C24.5776 10.0733 22.211 13.4597 18.417 18.793Z" fill="#B14B6F"/>
<path d="M18.417 18.793L17.6133 19.388L18.4332 20.4953L19.2318 19.3726L18.417 18.793ZM10.9512 8.2002L11.8168 7.69945L11.7885 7.65051L11.7548 7.60507L10.9512 8.2002ZM9.95801 5.22559L8.95801 5.22556V5.22559H9.95801ZM15.5352 0L15.5352 -1H15.5352V0ZM18.3232 0.701172L17.8466 1.58029L18.3233 1.83869L18.7999 1.58027L18.3232 0.701172ZM21.1113 0V-1H21.1113L21.1113 0ZM26.6885 5.22559H27.6885V5.22556L26.6885 5.22559ZM26.5303 6.46094L25.5622 6.21044L25.5439 6.28096L25.5361 6.35338L26.5303 6.46094ZM26.3867 6.92285L25.4673 6.52957L25.4569 6.55394L25.4478 6.57883L26.3867 6.92285ZM25.7178 8.17285L24.9102 7.58314L24.8835 7.61963L24.8603 7.65838L25.7178 8.17285ZM18.417 18.793L19.2207 18.1979C15.2088 12.7797 12.8647 9.51084 11.8168 7.69945L10.9512 8.2002L10.0856 8.70094C11.2036 10.6335 13.6298 14.0082 17.6133 19.388L18.417 18.793ZM10.9512 8.2002L11.7548 7.60507C11.2491 6.92225 10.958 6.10397 10.958 5.22559H9.95801H8.95801C8.95801 6.55834 9.40261 7.7894 10.1475 8.79532L10.9512 8.2002ZM9.95801 5.22559L10.958 5.22561C10.9581 2.95238 12.9452 1 15.5352 1V0V-1C11.9652 -1 8.9581 1.72717 8.95801 5.22556L9.95801 5.22559ZM15.5352 0L15.5351 1C16.3816 1.00001 17.1698 1.21337 17.8466 1.58029L18.3232 0.701172L18.7998 -0.177944C17.8359 -0.70055 16.7207 -0.99999 15.5352 -1L15.5352 0ZM18.3232 0.701172L18.7999 1.58027C19.4766 1.21337 20.2649 1.00004 21.1114 1L21.1113 0L21.1113 -1C19.9259 -0.999937 18.8106 -0.700607 17.8466 -0.177925L18.3232 0.701172ZM21.1113 0V1C23.7013 1 25.6884 2.95238 25.6885 5.22561L26.6885 5.22559L27.6885 5.22556C27.6884 1.72717 24.6812 -1 21.1113 -1V0ZM26.6885 5.22559H25.6885C25.6885 5.56353 25.6443 5.89296 25.5622 6.21044L26.5303 6.46094L27.4984 6.71144C27.6212 6.23665 27.6885 5.73896 27.6885 5.22559H26.6885ZM26.5303 6.46094L25.5361 6.35338C25.5391 6.32576 25.5422 6.32613 25.5303 6.36426C25.5193 6.39978 25.4997 6.45375 25.4673 6.52957L26.3867 6.92285L27.3061 7.31613C27.4007 7.09509 27.4959 6.8325 27.5245 6.5685L26.5303 6.46094ZM26.3867 6.92285L25.4478 6.57883C25.3164 6.93721 25.1354 7.27472 24.9102 7.58314L25.7178 8.17285L26.5254 8.76257C26.8594 8.30509 27.1295 7.80245 27.3257 7.26688L26.3867 6.92285ZM25.7178 8.17285L24.8603 7.65838C23.745 9.51721 21.4063 12.8657 17.6021 18.2133L18.417 18.793L19.2318 19.3726C23.0157 14.0536 25.4101 10.6294 26.5753 8.68732L25.7178 8.17285Z" fill="#B14B6F" mask="url(#path-9-inside-5_400_1945)"/>
<mask id="path-11-inside-6_400_1945" fill="white">
<path fill-rule="evenodd" clip-rule="evenodd" d="M32.4515 20.764C31.9903 20.8077 31.5269 20.7869 31.0726 20.7054C28.8706 20.5059 24.7869 19.8441 18.3138 18.7386C21.4394 12.797 23.3955 9.20678 24.6117 7.41733C25.1007 6.48518 25.8659 5.70782 26.8636 5.2269C29.4632 3.97402 32.6542 5.2074 33.9916 7.98178C34.4326 8.8969 34.6161 9.86517 34.5716 10.7972C35.3285 11.343 35.9722 12.0891 36.4134 13.0042C37.7508 15.7787 36.7279 19.0441 34.1283 20.2972C33.7463 20.4813 33.3513 20.611 32.9515 20.6908C32.841 20.7312 32.6754 20.7548 32.4515 20.764Z"/>
</mask>
<path fill-rule="evenodd" clip-rule="evenodd" d="M32.4515 20.764C31.9903 20.8077 31.5269 20.7869 31.0726 20.7054C28.8706 20.5059 24.7869 19.8441 18.3138 18.7386C21.4394 12.797 23.3955 9.20678 24.6117 7.41733C25.1007 6.48518 25.8659 5.70782 26.8636 5.2269C29.4632 3.97402 32.6542 5.2074 33.9916 7.98178C34.4326 8.8969 34.6161 9.86517 34.5716 10.7972C35.3285 11.343 35.9722 12.0891 36.4134 13.0042C37.7508 15.7787 36.7279 19.0441 34.1283 20.2972C33.7463 20.4813 33.3513 20.611 32.9515 20.6908C32.841 20.7312 32.6754 20.7548 32.4515 20.764Z" fill="#B14B6F"/>
<path d="M32.4515 20.764L32.4104 19.7649L32.3837 19.7659L32.3572 19.7685L32.4515 20.764ZM31.0726 20.7054L31.2493 19.7211L31.2063 19.7134L31.1629 19.7095L31.0726 20.7054ZM18.3138 18.7386L17.4288 18.2731L16.7874 19.4924L18.1455 19.7243L18.3138 18.7386ZM24.6117 7.41733L25.4387 7.97943L25.4708 7.93232L25.4972 7.88187L24.6117 7.41733ZM26.8636 5.2269L26.4295 4.32606L26.4294 4.32609L26.8636 5.2269ZM33.9916 7.98178L34.8924 7.54762L34.8924 7.54756L33.9916 7.98178ZM34.5716 10.7972L33.5728 10.7496L33.547 11.2912L33.9867 11.6083L34.5716 10.7972ZM36.4134 13.0042L37.3142 12.57L37.3142 12.57L36.4134 13.0042ZM34.1283 20.2972L34.5625 21.198L34.5625 21.198L34.1283 20.2972ZM32.9515 20.6908L32.7559 19.7101L32.6802 19.7252L32.6076 19.7518L32.9515 20.6908ZM32.4515 20.764L32.3572 19.7685C31.9884 19.8034 31.6161 19.787 31.2493 19.7211L31.0726 20.7054L30.896 21.6897C31.4376 21.7869 31.9922 21.812 32.5459 21.7595L32.4515 20.764ZM31.0726 20.7054L31.1629 19.7095C29.0097 19.5144 24.9728 18.8614 18.4822 17.7529L18.3138 18.7386L18.1455 19.7243C24.601 20.8268 28.7315 21.4974 30.9824 21.7013L31.0726 20.7054ZM18.3138 18.7386L19.1988 19.2042C22.3355 13.2415 24.2618 9.71115 25.4387 7.97943L24.6117 7.41733L23.7846 6.85522C22.5292 8.70242 20.5433 12.3524 17.4288 18.2731L18.3138 18.7386ZM24.6117 7.41733L25.4972 7.88187C25.8923 7.12883 26.5044 6.51018 27.2978 6.1277L26.8636 5.2269L26.4294 4.32609C25.2275 4.90547 24.3091 5.84152 23.7261 6.95278L24.6117 7.41733ZM26.8636 5.2269L27.2978 6.12773C29.3455 5.14083 31.9661 6.08291 33.0907 8.416L33.9916 7.98178L34.8924 7.54756C33.3423 4.33189 29.5809 2.8072 26.4295 4.32606L26.8636 5.2269ZM33.9916 7.98178L33.0907 8.41594C33.4585 9.17913 33.6094 9.98157 33.5728 10.7496L34.5716 10.7972L35.5705 10.8448C35.6227 9.74877 35.4067 8.61467 34.8924 7.54762L33.9916 7.98178ZM34.5716 10.7972L33.9867 11.6083C34.6108 12.0584 35.1449 12.6758 35.5127 13.4385L36.4134 13.0042L37.3142 12.57C36.7995 11.5024 36.0462 10.6277 35.1566 9.98612L34.5716 10.7972ZM36.4134 13.0042L35.5126 13.4385C36.6373 15.7717 35.7417 18.4094 33.6941 19.3964L34.1283 20.2972L34.5625 21.198C37.7141 19.6789 38.8643 15.7857 37.3142 12.57L36.4134 13.0042ZM34.1283 20.2972L33.6941 19.3964C33.3899 19.543 33.0753 19.6464 32.7559 19.7101L32.9515 20.6908L33.1471 21.6714C33.6273 21.5757 34.1027 21.4196 34.5625 21.198L34.1283 20.2972ZM32.9515 20.6908L32.6076 19.7518C32.6389 19.7403 32.6427 19.7433 32.6001 19.7495C32.5609 19.7552 32.4996 19.7612 32.4104 19.7649L32.4515 20.764L32.4926 21.7632C32.7388 21.753 33.033 21.7259 33.2954 21.6298L32.9515 20.6908Z" fill="#B14B6F" mask="url(#path-11-inside-6_400_1945)"/>
<mask id="path-13-inside-7_400_1945" fill="white">
<path fill-rule="evenodd" clip-rule="evenodd" d="M6.30166 5.66723C8.09828 3.38339 11.2896 2.89619 13.4296 4.57934C13.7428 4.8257 14.0152 5.10611 14.2479 5.41039C14.3293 5.4877 14.4188 5.62065 14.5214 5.81079C14.7503 6.18506 14.9258 6.58749 15.0448 7.00805C15.7889 8.95955 16.9214 12.692 18.6659 18.6262C12.314 18.4407 8.45588 18.271 6.44033 17.9807C5.4547 17.949 4.48644 17.6242 3.6708 16.9827C1.53082 15.2992 1.25212 12.083 3.04873 9.79907C3.64149 9.04556 4.38669 8.48878 5.19521 8.13989C5.34432 7.27331 5.70986 6.41962 6.30166 5.66723Z"/>
</mask>
<path fill-rule="evenodd" clip-rule="evenodd" d="M6.30166 5.66723C8.09828 3.38339 11.2896 2.89619 13.4296 4.57934C13.7428 4.8257 14.0152 5.10611 14.2479 5.41039C14.3293 5.4877 14.4188 5.62065 14.5214 5.81079C14.7503 6.18506 14.9258 6.58749 15.0448 7.00805C15.7889 8.95955 16.9214 12.692 18.6659 18.6262C12.314 18.4407 8.45588 18.271 6.44033 17.9807C5.4547 17.949 4.48644 17.6242 3.6708 16.9827C1.53082 15.2992 1.25212 12.083 3.04873 9.79907C3.64149 9.04556 4.38669 8.48878 5.19521 8.13989C5.34432 7.27331 5.70986 6.41962 6.30166 5.66723Z" fill="#E66A9D"/>
<path d="M6.30166 5.66723L5.90868 5.35809L5.90866 5.35811L6.30166 5.66723ZM13.4296 4.57934L13.7387 4.18636L13.7387 4.18633L13.4296 4.57934ZM14.2479 5.41039L13.8508 5.71418L13.8749 5.7456L13.9035 5.77285L14.2479 5.41039ZM14.5214 5.81079L14.0814 6.04821L14.0878 6.06011L14.0948 6.07165L14.5214 5.81079ZM15.0448 7.00805L14.5637 7.14423L14.5697 7.16551L14.5776 7.18619L15.0448 7.00805ZM18.6659 18.6262L18.6513 19.126L19.3399 19.1461L19.1456 18.4852L18.6659 18.6262ZM6.44033 17.9807L6.51162 17.4858L6.48415 17.4819L6.45642 17.481L6.44033 17.9807ZM3.6708 16.9827L3.36166 17.3756L3.36168 17.3757L3.6708 16.9827ZM3.04873 9.79907L2.65575 9.48992L2.65574 9.48994L3.04873 9.79907ZM5.19521 8.13989L5.39332 8.59897L5.64204 8.49164L5.68797 8.22467L5.19521 8.13989ZM6.30166 5.66723L6.69464 5.97637C8.33983 3.88502 11.2212 3.47857 13.1205 4.97235L13.4296 4.57934L13.7387 4.18633C11.3579 2.3138 7.85673 2.88175 5.90868 5.35809L6.30166 5.66723ZM13.4296 4.57934L13.1204 4.97232C13.3993 5.19168 13.6424 5.44179 13.8508 5.71418L14.2479 5.41039L14.6451 5.10661C14.3879 4.77043 14.0862 4.45972 13.7387 4.18636L13.4296 4.57934ZM14.2479 5.41039L13.9035 5.77285C13.9242 5.79253 13.983 5.86597 14.0814 6.04821L14.5214 5.81079L14.9614 5.57336C14.8546 5.37533 14.7344 5.18287 14.5924 5.04794L14.2479 5.41039ZM14.5214 5.81079L14.0948 6.07165C14.2998 6.4068 14.457 6.76724 14.5637 7.14423L15.0448 7.00805L15.5259 6.87188C15.3945 6.40773 15.2008 5.96333 14.9479 5.54992L14.5214 5.81079ZM15.0448 7.00805L14.5776 7.18619C15.313 9.11491 16.4392 12.8246 18.1862 18.7672L18.6659 18.6262L19.1456 18.4852C17.4036 12.5593 16.2648 8.80419 15.512 6.82992L15.0448 7.00805ZM18.6659 18.6262L18.6805 18.1264C12.3165 17.9406 8.49223 17.7711 6.51162 17.4858L6.44033 17.9807L6.36904 18.4756C8.41953 18.771 12.3114 18.9408 18.6513 19.126L18.6659 18.6262ZM6.44033 17.9807L6.45642 17.481C5.57081 17.4525 4.70676 17.1614 3.97992 16.5897L3.6708 16.9827L3.36168 17.3757C4.26612 18.0871 5.33859 18.4455 6.42424 18.4804L6.44033 17.9807ZM3.6708 16.9827L3.97994 16.5897C2.08064 15.0956 1.79661 12.1996 3.44171 10.1082L3.04873 9.79907L2.65574 9.48994C0.707629 11.9665 0.980987 15.5028 3.36166 17.3756L3.6708 16.9827ZM3.04873 9.79907L3.44171 10.1082C3.98218 9.42117 4.65999 8.91542 5.39332 8.59897L5.19521 8.13989L4.99711 7.68081C4.1134 8.06215 3.3008 8.66994 2.65575 9.48992L3.04873 9.79907ZM5.19521 8.13989L5.68797 8.22467C5.8232 7.43876 6.15501 6.66243 6.69465 5.97635L6.30166 5.66723L5.90866 5.35811C5.26471 6.17681 4.86544 7.10786 4.70245 8.0551L5.19521 8.13989Z" fill="#B14B6F" mask="url(#path-13-inside-7_400_1945)"/>
<mask id="path-15-inside-8_400_1945" fill="white">
<path d="M18.5771 18.5432C22.3398 23.6247 24.5881 26.7561 25.6133 28.5247C26.2091 29.3238 26.5596 30.2952 26.5596 31.344C26.5596 34.0668 24.2038 36.2737 21.2979 36.2737C20.3388 36.2737 19.4403 36.0326 18.666 35.6125C17.8919 36.0323 16.9939 36.2737 16.0352 36.2737C13.1292 36.2737 10.7734 34.0668 10.7734 31.344C10.7734 30.9418 10.8259 30.5512 10.9229 30.177C10.9347 30.0696 10.9798 29.9255 11.0586 29.7415C11.2132 29.32 11.4257 28.9238 11.6895 28.5627C12.7653 26.7696 14.9979 23.5747 18.5771 18.5432Z"/>
</mask>
<path d="M18.5771 18.5432C22.3398 23.6247 24.5881 26.7561 25.6133 28.5247C26.2091 29.3238 26.5596 30.2952 26.5596 31.344C26.5596 34.0668 24.2038 36.2737 21.2979 36.2737C20.3388 36.2737 19.4403 36.0326 18.666 35.6125C17.8919 36.0323 16.9939 36.2737 16.0352 36.2737C13.1292 36.2737 10.7734 34.0668 10.7734 31.344C10.7734 30.9418 10.8259 30.5512 10.9229 30.177C10.9347 30.0696 10.9798 29.9255 11.0586 29.7415C11.2132 29.32 11.4257 28.9238 11.6895 28.5627C12.7653 26.7696 14.9979 23.5747 18.5771 18.5432Z" fill="#E66A9D"/>
<path d="M18.5771 18.5432L18.979 18.2457L18.569 17.692L18.1697 18.2534L18.5771 18.5432ZM25.6133 28.5247L25.1807 28.7754L25.1952 28.8004L25.2124 28.8235L25.6133 28.5247ZM26.5596 31.344H27.0596V31.344L26.5596 31.344ZM21.2979 36.2737L21.2978 36.7737H21.2979V36.2737ZM18.666 35.6125L18.9044 35.1731L18.6661 35.0437L18.4277 35.173L18.666 35.6125ZM16.0352 36.2737V36.7737H16.0352L16.0352 36.2737ZM10.7734 31.344L10.2734 31.344V31.344H10.7734ZM10.9229 30.177L11.4069 30.3024L11.4159 30.2676L11.4198 30.2318L10.9229 30.177ZM11.0586 29.7415L11.5182 29.9382L11.5235 29.9261L11.528 29.9136L11.0586 29.7415ZM11.6895 28.5627L12.0932 28.8577L12.1066 28.8394L12.1182 28.82L11.6895 28.5627ZM18.5771 18.5432L18.1753 18.8408C21.9449 23.9317 24.1729 27.0369 25.1807 28.7754L25.6133 28.5247L26.0459 28.2739C25.0032 26.4754 22.7346 23.3178 18.979 18.2457L18.5771 18.5432ZM25.6133 28.5247L25.2124 28.8235C25.7478 29.5416 26.0596 30.4093 26.0596 31.344L26.5596 31.344L27.0596 31.344C27.0596 30.1811 26.6704 29.106 26.0141 28.2258L25.6133 28.5247ZM26.5596 31.344H26.0596C26.0596 33.7605 23.9589 35.7737 21.2979 35.7737V36.2737V36.7737C24.4488 36.7737 27.0596 34.3732 27.0596 31.344H26.5596ZM21.2979 36.2737L21.2979 35.7737C20.4232 35.7737 19.6065 35.5539 18.9044 35.1731L18.666 35.6125L18.4276 36.052C19.2741 36.5112 20.2544 36.7737 21.2978 36.7737L21.2979 36.2737ZM18.666 35.6125L18.4277 35.173C17.7256 35.5537 16.9093 35.7737 16.0351 35.7737L16.0352 36.2737L16.0352 36.7737C17.0785 36.7737 18.0582 36.5109 18.9044 36.0521L18.666 35.6125ZM16.0352 36.2737V35.7737C13.3741 35.7737 11.2734 33.7605 11.2734 31.344H10.7734H10.2734C10.2734 34.3732 12.8843 36.7737 16.0352 36.7737V36.2737ZM10.7734 31.344L11.2734 31.344C11.2734 30.9855 11.3202 30.6371 11.4069 30.3024L10.9229 30.177L10.4388 30.0516C10.3316 30.4654 10.2734 30.8981 10.2734 31.344L10.7734 31.344ZM10.9229 30.177L11.4198 30.2318C11.4235 30.199 11.445 30.1093 11.5182 29.9382L11.0586 29.7415L10.5989 29.5447C10.5146 29.7416 10.4459 29.9402 10.4259 30.1222L10.9229 30.177ZM11.0586 29.7415L11.528 29.9136C11.6664 29.5363 11.8568 29.1813 12.0932 28.8577L11.6895 28.5627L11.2857 28.2678C10.9946 28.6663 10.7599 29.1038 10.5892 29.5693L11.0586 29.7415ZM11.6895 28.5627L12.1182 28.82C13.1816 27.0477 15.4003 23.8716 18.9846 18.833L18.5771 18.5432L18.1697 18.2534C14.5955 23.2777 12.349 26.4916 11.2607 28.3055L11.6895 28.5627Z" fill="#B14B6F" mask="url(#path-15-inside-8_400_1945)"/>
<mask id="path-17-inside-9_400_1945" fill="white">
<path fill-rule="evenodd" clip-rule="evenodd" d="M5.33047 16.6846C5.77175 16.6421 6.21531 16.6623 6.64981 16.7413C8.73021 16.9308 12.5805 17.5547 18.6762 18.5958C15.7248 24.2062 13.8782 27.5943 12.7309 29.2813C12.2694 30.1586 11.5493 30.8909 10.6098 31.3438C8.15702 32.5261 5.14601 31.3619 3.88418 28.7442C3.46787 27.8805 3.29426 26.9667 3.33633 26.087C2.6226 25.572 2.01509 24.8681 1.59902 24.0049C0.337518 21.3874 1.30287 18.3074 3.75527 17.1251C4.11592 16.9512 4.48915 16.8292 4.8666 16.754C4.96983 16.7164 5.12331 16.6935 5.33047 16.6846Z"/>
</mask>
<path fill-rule="evenodd" clip-rule="evenodd" d="M5.33047 16.6846C5.77175 16.6421 6.21531 16.6623 6.64981 16.7413C8.73021 16.9308 12.5805 17.5547 18.6762 18.5958C15.7248 24.2062 13.8782 27.5943 12.7309 29.2813C12.2694 30.1586 11.5493 30.8909 10.6098 31.3438C8.15702 32.5261 5.14601 31.3619 3.88418 28.7442C3.46787 27.8805 3.29426 26.9667 3.33633 26.087C2.6226 25.572 2.01509 24.8681 1.59902 24.0049C0.337518 21.3874 1.30287 18.3074 3.75527 17.1251C4.11592 16.9512 4.48915 16.8292 4.8666 16.754C4.96983 16.7164 5.12331 16.6935 5.33047 16.6846Z" fill="#E66A9D"/>
<path d="M5.33047 16.6846L5.35184 17.1842L5.36516 17.1836L5.37842 17.1823L5.33047 16.6846ZM6.64981 16.7413L6.56036 17.2332L6.58226 17.2372L6.60443 17.2392L6.64981 16.7413ZM18.6762 18.5958L19.1187 18.8285L19.4394 18.2189L18.7603 18.1029L18.6762 18.5958ZM12.7309 29.2813L12.3174 29.0001L12.3015 29.0235L12.2883 29.0486L12.7309 29.2813ZM10.6098 31.3438L10.8269 31.7942L10.8269 31.7942L10.6098 31.3438ZM3.88418 28.7442L3.43377 28.9613L3.43378 28.9613L3.88418 28.7442ZM3.33633 26.087L3.83576 26.1109L3.84871 25.8401L3.6289 25.6815L3.33633 26.087ZM1.59902 24.0049L1.14861 24.222L1.14862 24.222L1.59902 24.0049ZM3.75527 17.1251L3.53817 16.6747L3.53813 16.6747L3.75527 17.1251ZM4.8666 16.754L4.96435 17.2443L5.00166 17.2369L5.03743 17.2239L4.8666 16.754ZM5.33047 16.6846L5.37842 17.1823C5.77277 17.1443 6.17009 17.1622 6.56036 17.2332L6.64981 16.7413L6.73926 16.2493C6.26052 16.1623 5.77073 16.1399 5.28252 16.1869L5.33047 16.6846ZM6.64981 16.7413L6.60443 17.2392C8.66057 17.4266 12.4877 18.0461 18.592 19.0886L18.6762 18.5958L18.7603 18.1029C12.6733 17.0633 8.79984 16.4351 6.69518 16.2433L6.64981 16.7413ZM18.6762 18.5958L18.2337 18.363C15.2768 23.984 13.445 27.342 12.3174 29.0001L12.7309 29.2813L13.1443 29.5625C14.3113 27.8465 16.1728 24.4285 19.1187 18.8285L18.6762 18.5958ZM12.7309 29.2813L12.2883 29.0486C11.8737 29.8369 11.2299 30.4898 10.3926 30.8934L10.6098 31.3438L10.8269 31.7942C11.8687 31.2919 12.6651 30.4804 13.1734 29.5141L12.7309 29.2813ZM10.6098 31.3438L10.3927 30.8934C8.21593 31.9427 5.49009 30.9242 4.33458 28.5271L3.88418 28.7442L3.43378 28.9613C4.80193 31.7996 8.09812 33.1096 10.8269 31.7942L10.6098 31.3438ZM3.88418 28.7442L4.33459 28.5271C3.95482 27.7392 3.79762 26.9083 3.83576 26.1109L3.33633 26.087L2.8369 26.0631C2.7909 27.025 2.98092 28.0217 3.43377 28.9613L3.88418 28.7442ZM3.33633 26.087L3.6289 25.6815C2.98141 25.2143 2.42872 24.5747 2.04943 23.7878L1.59902 24.0049L1.14862 24.222C1.60145 25.1615 2.26379 25.9296 3.04376 26.4924L3.33633 26.087ZM1.59902 24.0049L2.04944 23.7879C0.894295 21.391 1.79588 18.6248 3.97242 17.5754L3.75527 17.1251L3.53813 16.6747C0.809861 17.99 -0.219259 21.3838 1.14861 24.222L1.59902 24.0049ZM3.75527 17.1251L3.97238 17.5755C4.29372 17.4206 4.62669 17.3116 4.96435 17.2443L4.8666 16.754L4.76886 16.2636C4.3516 16.3468 3.93812 16.4819 3.53817 16.6747L3.75527 17.1251ZM4.8666 16.754L5.03743 17.2239C5.06726 17.213 5.15895 17.1924 5.35184 17.1842L5.33047 16.6846L5.3091 16.1851C5.08768 16.1946 4.87241 16.2198 4.69578 16.284L4.8666 16.754Z" fill="#B14B6F" mask="url(#path-17-inside-9_400_1945)"/>
<mask id="path-19-inside-10_400_1945" fill="white">
<path fill-rule="evenodd" clip-rule="evenodd" d="M30.7003 31.666C28.9036 33.9499 25.7124 34.4371 23.5724 32.7539C23.2601 32.5083 22.9883 32.229 22.7559 31.9258C22.6727 31.8479 22.5813 31.7113 22.4757 31.5146C22.2506 31.1449 22.0772 30.7478 21.9591 30.333C21.215 28.3837 20.081 24.6494 18.3341 18.707C24.665 18.8919 28.519 19.0601 30.5401 19.3486C31.5332 19.3762 32.5096 19.7014 33.3311 20.3476C35.4711 22.0311 35.7498 25.2473 33.9532 27.5312C33.3606 28.2845 32.6159 28.8415 31.8077 29.1904C31.6589 30.058 31.2928 30.9127 30.7003 31.666Z"/>
</mask>
<path fill-rule="evenodd" clip-rule="evenodd" d="M30.7003 31.666C28.9036 33.9499 25.7124 34.4371 23.5724 32.7539C23.2601 32.5083 22.9883 32.229 22.7559 31.9258C22.6727 31.8479 22.5813 31.7113 22.4757 31.5146C22.2506 31.1449 22.0772 30.7478 21.9591 30.333C21.215 28.3837 20.081 24.6494 18.3341 18.707C24.665 18.8919 28.519 19.0601 30.5401 19.3486C31.5332 19.3762 32.5096 19.7014 33.3311 20.3476C35.4711 22.0311 35.7498 25.2473 33.9532 27.5312C33.3606 28.2845 32.6159 28.8415 31.8077 29.1904C31.6589 30.058 31.2928 30.9127 30.7003 31.666Z" fill="#E66A9D"/>
<path d="M30.7003 31.666L31.0933 31.9751L31.0933 31.9751L30.7003 31.666ZM23.5724 32.7539L23.2632 33.1469L23.2632 33.1469L23.5724 32.7539ZM22.7559 31.9258L23.1529 31.6217L23.1277 31.5889L23.0975 31.5606L22.7559 31.9258ZM22.4757 31.5146L22.9162 31.2781L22.9098 31.2662L22.9027 31.2546L22.4757 31.5146ZM21.9591 30.333L22.4399 30.196L22.434 30.1751L22.4262 30.1547L21.9591 30.333ZM18.3341 18.707L18.3487 18.2072L17.6601 18.1871L17.8544 18.848L18.3341 18.707ZM30.5401 19.3486L30.4695 19.8436L30.4977 19.8476L30.5262 19.8484L30.5401 19.3486ZM33.3311 20.3476L33.6403 19.9547L33.6402 19.9546L33.3311 20.3476ZM33.9532 27.5312L34.3462 27.8404L34.3462 27.8404L33.9532 27.5312ZM31.8077 29.1904L31.6095 28.7314L31.3607 28.8388L31.3149 29.1059L31.8077 29.1904ZM30.7003 31.666L30.3073 31.3568C28.6621 33.4482 25.7807 33.8547 23.8815 32.3609L23.5724 32.7539L23.2632 33.1469C25.6441 35.0195 29.1452 34.4515 31.0933 31.9751L30.7003 31.666ZM23.5724 32.7539L23.8815 32.3609C23.6033 32.1421 23.3607 31.8929 23.1529 31.6217L22.7559 31.9258L22.359 32.2298C22.6158 32.565 22.9169 32.8744 23.2632 33.1469L23.5724 32.7539ZM22.7559 31.9258L23.0975 31.5606C23.0781 31.5424 23.0185 31.4686 22.9162 31.2781L22.4757 31.5146L22.0351 31.7511C22.1441 31.9541 22.2674 32.1534 22.4144 32.2909L22.7559 31.9258ZM22.4757 31.5146L22.9027 31.2546C22.7011 30.9234 22.5458 30.5677 22.4399 30.196L21.9591 30.333L21.4782 30.4699C21.6086 30.9279 21.8 31.3664 22.0486 31.7746L22.4757 31.5146ZM21.9591 30.333L22.4262 30.1547C21.6909 28.2282 20.5631 24.5167 18.8138 18.566L18.3341 18.707L17.8544 18.848C19.5988 24.7821 20.7392 28.5391 21.4919 30.5113L21.9591 30.333ZM18.3341 18.707L18.3195 19.2068C24.6623 19.392 28.4829 19.56 30.4695 19.8436L30.5401 19.3486L30.6108 18.8536C28.5551 18.5601 24.6676 18.3918 18.3487 18.2072L18.3341 18.707ZM30.5401 19.3486L30.5262 19.8484C31.4184 19.8732 32.2898 20.1647 33.022 20.7406L33.3311 20.3476L33.6402 19.9546C32.7293 19.2382 31.6479 18.8792 30.554 18.8488L30.5401 19.3486ZM33.3311 20.3476L33.022 20.7406C34.9213 22.2347 35.2054 25.1307 33.5602 27.2221L33.9532 27.5312L34.3462 27.8404C36.2943 25.3638 36.021 21.8274 33.6403 19.9547L33.3311 20.3476ZM33.9532 27.5312L33.5602 27.2221C33.0198 27.909 32.3425 28.4149 31.6095 28.7314L31.8077 29.1904L32.0059 29.6495C32.8894 29.268 33.7014 28.66 34.3462 27.8404L33.9532 27.5312ZM31.8077 29.1904L31.3149 29.1059C31.18 29.8926 30.8477 30.6699 30.3073 31.3569L30.7003 31.666L31.0933 31.9751C31.7379 31.1556 32.1379 30.2235 32.3005 29.2749L31.8077 29.1904Z" fill="#B14B6F" mask="url(#path-19-inside-10_400_1945)"/>
<mask id="path-21-inside-11_400_1945" fill="white">
<path d="M18.4238 18.79C14.6445 13.6859 12.3929 10.5494 11.374 8.78516C10.7875 7.98998 10.4434 7.02605 10.4434 5.98633C10.4434 3.2635 12.7991 1.05566 15.7051 1.05566C16.6638 1.0557 17.5618 1.29798 18.3359 1.71777C19.11 1.2981 20.0082 1.05566 20.9668 1.05566C23.8726 1.05586 26.2285 3.26362 26.2285 5.98633C26.2285 6.38779 26.1757 6.77774 26.0791 7.15137C26.0678 7.26188 26.0211 7.41222 25.9375 7.60547C25.7848 8.01713 25.5755 8.40396 25.3184 8.75781C24.2452 10.5487 22.0112 13.7471 18.4238 18.79Z"/>
</mask>
<path d="M18.4238 18.79C14.6445 13.6859 12.3929 10.5494 11.374 8.78516C10.7875 7.98998 10.4434 7.02605 10.4434 5.98633C10.4434 3.2635 12.7991 1.05566 15.7051 1.05566C16.6638 1.0557 17.5618 1.29798 18.3359 1.71777C19.11 1.2981 20.0082 1.05566 20.9668 1.05566C23.8726 1.05586 26.2285 3.26362 26.2285 5.98633C26.2285 6.38779 26.1757 6.77774 26.0791 7.15137C26.0678 7.26188 26.0211 7.41222 25.9375 7.60547C25.7848 8.01713 25.5755 8.40396 25.3184 8.75781C24.2452 10.5487 22.0112 13.7471 18.4238 18.79Z" fill="#E66A9D"/>
<path d="M18.4238 18.79L18.022 19.0876L18.4319 19.6412L18.8313 19.0799L18.4238 18.79ZM11.374 8.78516L11.807 8.53511L11.793 8.51088L11.7764 8.48837L11.374 8.78516ZM10.4434 5.98633H9.94336V5.98634L10.4434 5.98633ZM15.7051 1.05566L15.7051 0.555664H15.7051V1.05566ZM18.3359 1.71777L18.0976 2.1573L18.3359 2.28655L18.5742 2.15733L18.3359 1.71777ZM20.9668 1.05566L20.9668 0.555664H20.9668V1.05566ZM26.2285 5.98633L26.7285 5.98634V5.98633H26.2285ZM26.0791 7.15137L25.595 7.02615L25.5856 7.0628L25.5817 7.10046L26.0791 7.15137ZM25.9375 7.60547L25.4786 7.40694L25.4733 7.41912L25.4687 7.43156L25.9375 7.60547ZM25.3184 8.75781L24.9139 8.46384L24.9009 8.48179L24.8895 8.50082L25.3184 8.75781ZM18.4238 18.79L18.8257 18.4925C15.0392 13.3787 12.8082 10.2688 11.807 8.53511L11.374 8.78516L10.941 9.03521C11.9775 10.8299 14.2498 13.9931 18.022 19.0876L18.4238 18.79ZM11.374 8.78516L11.7764 8.48837C11.2496 7.77406 10.9434 6.91307 10.9434 5.98632L10.4434 5.98633L9.94336 5.98634C9.94339 7.13904 10.3255 8.2059 10.9716 9.08194L11.374 8.78516ZM10.4434 5.98633H10.9434C10.9434 3.56973 13.0442 1.55566 15.7051 1.55566V1.05566V0.555664C12.554 0.555664 9.94336 2.95727 9.94336 5.98633H10.4434ZM15.7051 1.05566L15.7051 1.55566C16.5789 1.55569 17.3952 1.77639 18.0976 2.1573L18.3359 1.71777L18.5743 1.27824C17.7285 0.819559 16.7487 0.5557 15.7051 0.555664L15.7051 1.05566ZM18.3359 1.71777L18.5742 2.15733C19.2767 1.7765 20.0931 1.55566 20.9668 1.55566V1.05566V0.555664C19.9232 0.555664 18.9433 0.819704 18.0976 1.27822L18.3359 1.71777ZM20.9668 1.05566L20.9668 1.55566C23.6276 1.55585 25.7285 3.56989 25.7285 5.98633H26.2285H26.7285C26.7285 2.95736 24.1176 0.555878 20.9668 0.555664L20.9668 1.05566ZM26.2285 5.98633L25.7285 5.98632C25.7285 6.34373 25.6816 6.69164 25.595 7.02615L26.0791 7.15137L26.5632 7.27658C26.6699 6.86385 26.7285 6.43185 26.7285 5.98634L26.2285 5.98633ZM26.0791 7.15137L25.5817 7.10046C25.5783 7.13344 25.5563 7.22726 25.4786 7.40694L25.9375 7.60547L26.3964 7.804C26.4859 7.59718 26.5573 7.39032 26.5765 7.20227L26.0791 7.15137ZM25.9375 7.60547L25.4687 7.43156C25.3323 7.79929 25.145 8.14587 24.9139 8.46384L25.3184 8.75781L25.7228 9.05178C26.0061 8.66205 26.2373 8.23497 26.4063 7.77938L25.9375 7.60547ZM25.3184 8.75781L24.8895 8.50082C23.8289 10.2708 21.6089 13.4502 18.0164 18.5002L18.4238 18.79L18.8313 19.0799C22.4136 14.0441 24.6616 10.8267 25.7473 9.01481L25.3184 8.75781Z" fill="#B14B6F" mask="url(#path-21-inside-11_400_1945)"/>
<mask id="path-23-inside-12_400_1945" fill="white">
<path fill-rule="evenodd" clip-rule="evenodd" d="M31.6715 20.6457C31.2302 20.6882 30.7867 20.6681 30.3522 20.5891C28.2718 20.3995 24.4215 19.7756 18.3258 18.7346C21.2771 13.1241 23.1238 9.73606 24.2711 8.04902C24.7325 7.17169 25.4526 6.43946 26.3922 5.98652C28.8448 4.8043 31.8558 5.96783 33.1178 8.58515C33.5342 9.44895 33.7077 10.3636 33.6656 11.2434C34.3794 11.7583 34.9869 12.4622 35.4029 13.3254C36.6644 15.9429 35.6991 19.0229 33.2467 20.2053C32.886 20.3791 32.5128 20.5011 32.1354 20.5764C32.0321 20.6139 31.8786 20.6368 31.6715 20.6457Z"/>
</mask>
<path fill-rule="evenodd" clip-rule="evenodd" d="M31.6715 20.6457C31.2302 20.6882 30.7867 20.6681 30.3522 20.5891C28.2718 20.3995 24.4215 19.7756 18.3258 18.7346C21.2771 13.1241 23.1238 9.73606 24.2711 8.04902C24.7325 7.17169 25.4526 6.43946 26.3922 5.98652C28.8448 4.8043 31.8558 5.96783 33.1178 8.58515C33.5342 9.44895 33.7077 10.3636 33.6656 11.2434C34.3794 11.7583 34.9869 12.4622 35.4029 13.3254C36.6644 15.9429 35.6991 19.0229 33.2467 20.2053C32.886 20.3791 32.5128 20.5011 32.1354 20.5764C32.0321 20.6139 31.8786 20.6368 31.6715 20.6457Z" fill="#E66A9D"/>
<path d="M31.6715 20.6457L31.6501 20.1462L31.6368 20.1467L31.6235 20.148L31.6715 20.6457ZM30.3522 20.5891L30.4416 20.0971L30.4197 20.0931L30.3975 20.0911L30.3522 20.5891ZM18.3258 18.7346L17.8833 18.5018L17.5626 19.1115L18.2416 19.2274L18.3258 18.7346ZM24.2711 8.04902L24.6845 8.33019L24.7005 8.3068L24.7136 8.28177L24.2711 8.04902ZM26.3922 5.98652L26.1751 5.53611L26.1751 5.53612L26.3922 5.98652ZM33.1178 8.58515L33.5682 8.36804L33.5682 8.36799L33.1178 8.58515ZM33.6656 11.2434L33.1662 11.2195L33.1533 11.4902L33.3731 11.6488L33.6656 11.2434ZM35.4029 13.3254L35.8534 13.1083L35.8533 13.1083L35.4029 13.3254ZM33.2467 20.2053L33.4638 20.6557L33.4638 20.6557L33.2467 20.2053ZM32.1354 20.5764L32.0376 20.086L32.0003 20.0934L31.9645 20.1064L32.1354 20.5764ZM31.6715 20.6457L31.6235 20.148C31.2292 20.186 30.8319 20.1681 30.4416 20.0971L30.3522 20.5891L30.2627 21.081C30.7414 21.168 31.2312 21.1904 31.7194 21.1434L31.6715 20.6457ZM30.3522 20.5891L30.3975 20.0911C28.3414 19.9038 24.5143 19.2842 18.41 18.2417L18.3258 18.7346L18.2416 19.2274C24.3286 20.267 28.2021 20.8952 30.3068 21.087L30.3522 20.5891ZM18.3258 18.7346L18.7683 18.9673C21.7252 13.3464 23.5569 9.9883 24.6845 8.33019L24.2711 8.04902L23.8576 7.76784C22.6907 9.48382 20.8291 12.9018 17.8833 18.5018L18.3258 18.7346ZM24.2711 8.04902L24.7136 8.28177C25.1283 7.49344 25.772 6.84055 26.6093 6.43691L26.3922 5.98652L26.1751 5.53612C25.1332 6.03837 24.3368 6.84995 23.8286 7.81626L24.2711 8.04902ZM26.3922 5.98652L26.6093 6.43692C28.7859 5.38771 31.5118 6.40562 32.6674 8.80231L33.1178 8.58515L33.5682 8.36799C32.1998 5.53004 28.9036 4.2209 26.1751 5.53611L26.3922 5.98652ZM33.1178 8.58515L32.6674 8.80226C33.0472 9.59016 33.2043 10.4219 33.1662 11.2195L33.6656 11.2434L34.1651 11.2672C34.2111 10.3053 34.0211 9.30774 33.5682 8.36804L33.1178 8.58515ZM33.6656 11.2434L33.3731 11.6488C34.0205 12.116 34.5732 12.7556 34.9525 13.5425L35.4029 13.3254L35.8533 13.1083C35.4005 12.1689 34.7382 11.4007 33.9582 10.8379L33.6656 11.2434ZM35.4029 13.3254L34.9525 13.5425C36.1077 15.9393 35.2061 18.7055 33.0295 19.7549L33.2467 20.2053L33.4638 20.6557C36.1921 19.3403 37.2212 15.9465 35.8534 13.1083L35.4029 13.3254ZM33.2467 20.2053L33.0296 19.7549C32.7082 19.9098 32.3753 20.0187 32.0376 20.086L32.1354 20.5764L32.2331 21.0667C32.6504 20.9835 33.0638 20.8485 33.4638 20.6557L33.2467 20.2053ZM32.1354 20.5764L31.9645 20.1064C31.9347 20.1173 31.843 20.1379 31.6501 20.1462L31.6715 20.6457L31.6929 21.1452C31.9143 21.1358 32.1296 21.1105 32.3062 21.0463L32.1354 20.5764Z" fill="#B14B6F" mask="url(#path-23-inside-12_400_1945)"/>
<path d="M20.2633 13.2048C21.3486 13.6399 21.9083 14.6669 22.0578 15.9665C22.2073 17.2669 21.9364 18.7935 21.4051 20.1186C20.8738 21.4437 20.204 22.2633 19.415 22.6495C18.632 23.0327 17.678 23.0147 16.5166 22.549C14.2652 21.646 13.2223 18.8314 14.2674 16.2245C15.3127 13.6175 18.0116 12.3022 20.2633 13.2048Z" fill="#38A495" stroke="#24584E" stroke-width="0.5"/>
</svg>
