<svg width="437" height="409" viewBox="0 0 437 409" fill="none" xmlns="http://www.w3.org/2000/svg">
<path d="M153.299 251.174C157.525 250.969 159.947 252.457 160.565 255.637C160.565 268.87 160.771 280.577 161.184 347.256V387.696L160.72 398.991L161.648 402.069V402.376C161.648 404.633 160.205 406.275 157.319 407.3C154.639 407.3 152.681 404.223 151.444 398.068L152.062 386.773C151.031 361.435 150.928 333.959 151.753 314.263H150.825C146.909 318.469 142.477 320.572 137.53 320.572H136.602C127.841 320.572 121.657 315.596 118.05 305.646C117.122 301.645 116.658 298.106 116.658 295.029V294.413C116.658 274.717 122.533 261.638 134.283 255.175L141.085 254.252L148.352 256.714C148.352 253.021 150.001 251.174 153.299 251.174ZM125.934 295.029C125.934 306.005 129.181 311.493 135.674 311.493H139.076C144.332 311.493 147.424 304.517 148.352 290.566V287.643C148.352 275.948 145.93 267.895 141.085 263.484H140.622C133.098 266.152 129.336 269.998 129.336 275.025C127.068 278.718 125.934 285.386 125.934 295.029Z" fill="#EB79A1"/>
<path d="M44.9758 198.32C49.1715 198.32 51.2693 193.4 51.2693 215.993C51.8833 220.512 52.1903 216.105 52.1903 235.207L51.7298 263.244C54.0835 289.329 57.1535 304.734 60.9399 309.458C63.9076 311.512 65.3914 313.104 65.3914 314.234C64.7774 316.698 63.6006 318.342 61.8609 319.163H60.0189C54.9022 319.163 50.7065 312.385 47.4318 298.829C46.8178 299.034 45.0781 303.245 42.2128 311.461C38.5288 316.596 34.7936 319.163 31.0072 319.163C18.0108 319.163 10.2846 301.859 7.82855 267.249L0 208.487C1.02334 206.228 2.45602 205.098 4.29803 205.098C7.87972 205.098 9.67056 209.925 9.67056 219.578L18.8806 287.121C22.1553 302.321 26.1975 309.92 31.0072 309.92C36.6356 308.38 40.3708 292.359 42.2128 261.857C40.4731 234.848 39.6033 226.674 39.6033 204.902V203.095C39.6033 200.425 41.3941 198.833 44.9758 198.32Z" fill="#EB79A1"/>
<path d="M88.3117 263.211C98.7482 264.024 102.985 276.373 101.021 300.258L99.7815 313.827C99.1615 317.486 97.3532 319.213 94.3566 319.01C91.5667 318.807 90.3267 316.977 90.6367 313.522L91.7217 298.733C93.1683 281.353 91.6183 272.511 87.0718 272.206C82.2152 271.799 78.7019 280.845 76.532 299.343L77.152 315.809C76.9453 317.943 75.1887 319.061 71.8821 319.163C68.0588 318.858 66.6122 313.471 67.5422 303.002L63.8223 268.089C64.0289 265.752 65.9406 264.481 69.5571 264.278C71.7271 264.38 73.0187 266.666 73.4321 271.139L74.052 271.291C78.7019 265.599 83.4552 262.906 88.3117 263.211Z" fill="#EB79A1"/>
<path d="M109.712 238.371C110.133 238.371 110.998 237.019 111.89 236.614C112.923 236.146 114.245 236.652 114.702 237.247C115.064 237.719 115.339 238.606 115.264 239.426C115.202 240.098 114.913 240.761 114.842 241.042C114.772 241.956 113.647 243.362 112.312 244.205L109.489 246.809C108.156 246.809 107.625 245.591 106.971 244.627C106.213 243.512 104.756 242.039 104.511 241.042C104.407 240.621 104.108 240.031 104.089 239.426C104.064 238.654 104.45 237.688 104.792 237.247C105.163 236.769 106.566 236.086 107.533 236.474C108.546 236.881 109.29 238.371 109.712 238.371Z" fill="#EB79A1"/>
<path d="M110.566 257.588C114.056 258.102 115.031 263.286 113.491 273.141C112.26 281.25 112.054 294.852 112.875 313.946C111.336 316.923 109.334 318.206 106.87 317.795C103.996 317.385 102.815 312.303 103.329 302.551C103.123 285.511 103.996 271.242 105.946 259.744C106.152 258.204 107.691 257.486 110.566 257.588Z" fill="#EB79A1"/>
<path d="M196.21 263.343C199.474 263.343 201.105 266.966 201.105 274.212C201.105 282.494 201.666 292.536 202.788 304.337C206.052 305.786 207.683 307.546 207.683 309.617V310.238C207.683 312.826 205.95 314.43 202.482 315.051C200.239 315.051 198.301 312.877 196.669 308.53C192.386 314.223 188.205 317.07 184.125 317.07C175.049 316.759 169.236 312.153 166.686 303.25C165.768 293.312 165.31 282.753 165.31 271.573V268.622C165.31 264.999 166.941 263.188 170.205 263.188C172.55 263.188 173.978 265.154 174.488 269.088V271.573C172.448 296.211 175.661 307.96 184.125 306.821C189.734 302.991 192.641 297.97 192.845 291.759V287.411L191.009 273.281V271.728C191.009 266.138 192.743 263.343 196.21 263.343Z" fill="#EB79A1"/>
<path d="M222.595 260.051C228.343 260.052 232.244 265.235 234.297 275.603C231.628 287.203 226.136 293.003 217.821 293.003H217.205V293.465C218.848 302.807 223.21 307.478 230.293 307.478C235.734 307.478 240.149 302.807 243.536 293.465L246.924 292.08C249.182 292.08 250.618 293.825 251.234 297.315C251.234 303.679 246.256 309.685 236.299 315.331L228.907 316.716C220.079 316.716 213.458 310.403 209.044 297.777C207.812 292.747 207.196 288.589 207.196 285.304V283.302C207.196 272.832 211.559 265.235 220.284 260.513L222.595 260.051ZM221.671 269.752C220.131 269.752 218.54 272.986 216.897 279.454V279.761L220.284 283.302C221.824 283.302 223.261 281.198 224.596 276.99V274.526C224.083 271.344 223.416 269.753 222.595 269.752H221.671Z" fill="#EB79A1"/>
<path d="M248.036 246.606C249.538 246.666 250.94 247.415 252.242 248.853C251.541 249.512 251.09 248.883 250.89 250.621L250.74 251.789L251.641 277.762C251.14 293.821 251.44 305.595 252.542 313.086L252.842 313.805C251.941 314.943 250.489 315.483 248.486 315.423C243.98 315.243 242.178 311.528 243.079 304.277C242.478 300.322 242.178 291.577 242.178 259.16C241.577 257.182 241.427 254.576 241.727 251.34V250.98C242.228 246.726 244.331 246.486 248.036 246.606Z" fill="#EB79A1"/>
<path d="M260.415 261.095C263.593 261.095 265.182 265.906 265.182 275.527V284.892C265.182 297.072 267.796 303.162 273.024 303.162H273.485C277.073 299.579 278.867 294.769 278.867 288.73V270.767C278.867 267.083 281.122 264.524 285.633 263.091H287.478C289.733 264.831 290.861 266.264 290.861 267.39L288.093 289.651L288.555 299.937V307.307C288.555 345.382 281.942 401.401 268.718 407.133L264.874 408.208C257.288 408.208 250.83 402.732 245.499 391.78L240.117 375.353C241.04 372.692 242.475 371.361 244.423 371.361H245.807C247.754 371.361 250.522 377.502 254.11 389.784C257.698 395.823 261.081 398.842 264.259 398.842C272.972 398.842 277.534 348.503 279.175 310.838L272.409 312.373C262.875 312.373 257.391 303.008 255.956 284.278L255.494 264.473C256.417 262.221 258.057 261.095 260.415 261.095Z" fill="#EB79A1"/>
<path d="M384.176 262.364C389.924 262.364 393.825 267.548 395.878 277.916C393.209 289.516 387.717 295.316 379.402 295.316H378.786V295.778C380.429 305.12 384.792 309.791 391.875 309.791C397.316 309.791 401.73 305.12 405.117 295.778L408.505 294.393C410.763 294.393 412.2 296.138 412.816 299.628C412.816 305.992 407.837 311.998 397.88 317.644L390.489 319.029C381.661 319.029 375.039 312.716 370.625 300.09C369.393 295.06 368.777 290.902 368.777 287.617V285.615C368.777 275.145 373.141 267.548 381.866 262.826L384.176 262.364ZM383.252 272.064C381.712 272.065 380.121 275.299 378.479 281.766V282.073L381.866 285.615C383.406 285.615 384.843 283.511 386.178 279.302V276.838C385.664 273.656 384.997 272.064 384.176 272.064H383.252Z" fill="#EB79A1"/>
<path d="M350.066 197.796C353.043 197.796 354.532 199.747 354.532 203.647V204.978C354.532 218.426 358.689 242.603 367.004 309.945V312.408C367.004 317.233 365.413 319.646 362.231 319.646C359.356 319.235 357.919 317.798 357.919 315.334V311.946C357.919 305.89 355.301 300.601 350.066 263.645C335.9 264.466 328.817 265.596 328.817 267.033L329.279 267.649V267.957C330.613 289.206 331.28 284.021 331.28 301.575V313.893C331.28 318.615 329.484 320.976 325.891 320.976C323.53 320.976 322.247 319.18 322.041 315.587V304.038C322.041 283.507 321.374 288.231 320.04 269.035H319.116C316.549 269.035 314.599 267.905 313.264 265.647V263.183C315.01 260.72 316.96 259.436 319.116 259.334C319.116 251.532 316.498 239.063 311.263 205.187C311.263 202.621 313.213 201.132 317.114 200.722C319.68 200.722 321.631 199.794 322.965 214.679C324.3 221.249 326.045 235.159 328.201 256.408H328.817L349.604 254.406C346.319 228.024 344.677 217.454 344.677 205.957C344.677 200.516 346.473 197.796 350.066 197.796Z" fill="#EB79A1"/>
<path d="M405.662 255.435C408.433 255.435 410.538 258.772 411.975 265.444H412.437C416.338 260.825 420.547 258.515 425.063 258.515C432.455 259.849 436.15 262.159 436.15 265.444C435.226 268.318 433.635 269.756 431.377 269.756L425.525 267.908H423.986C417.929 269.037 414.901 281.51 414.901 305.325V312.563C414.285 315.745 412.848 317.336 410.589 317.336C407.304 317.336 405.662 315.386 405.662 311.485V293.623C405.662 280.483 404.019 268.986 400.734 259.131C401.556 256.667 403.198 255.435 405.662 255.435Z" fill="#EB79A1"/>
<rect x="61.333" y="322.937" width="336.706" height="35.0474" rx="10.0135" fill="#5D2F54"/>
<path d="M86.5272 329.852L77.2146 340.997L76.8841 340.216L72.1677 345.953L71.1764 341.778L80.7894 329.852H86.5272ZM73.6998 329.852V349.678H68.5328V329.852H73.6998ZM78.8968 336.4L86.8876 349.678H81.0297L75.0216 339.284L78.8968 336.4ZM101.211 334.658H106.498L101.091 349.678H94.9928L89.5854 334.658H94.9627L98.0569 346.104L101.211 334.658ZM113.845 332.916C112.803 332.916 112.042 332.726 111.562 332.345C111.101 331.944 110.871 331.324 110.871 330.482C110.871 329.621 111.101 329 111.562 328.62C112.042 328.219 112.803 328.019 113.845 328.019C114.866 328.019 115.617 328.219 116.098 328.62C116.578 329 116.819 329.621 116.819 330.482C116.819 331.324 116.578 331.944 116.098 332.345C115.617 332.726 114.866 332.916 113.845 332.916ZM116.398 334.658V349.678H111.291V334.658H116.398ZM123.038 349.678V334.658H127.604L127.874 339.825L127.303 339.254C127.504 338.173 127.854 337.272 128.355 336.551C128.875 335.83 129.516 335.289 130.277 334.929C131.058 334.548 131.93 334.358 132.891 334.358C133.932 334.358 134.834 334.558 135.595 334.959C136.376 335.359 136.986 335.95 137.427 336.731C137.868 337.512 138.088 338.493 138.088 339.675V349.678H132.981V341.027C132.981 339.985 132.781 339.264 132.38 338.864C131.98 338.463 131.469 338.263 130.848 338.263C130.367 338.263 129.917 338.383 129.496 338.624C129.076 338.844 128.745 339.204 128.505 339.705C128.265 340.206 128.144 340.877 128.144 341.718V349.678H123.038ZM150.198 349.979C148.956 349.979 147.865 349.678 146.923 349.078C146.002 348.457 145.281 347.566 144.76 346.404C144.26 345.242 144.009 343.851 144.009 342.228C144.009 340.546 144.27 339.124 144.791 337.963C145.331 336.801 146.072 335.91 147.014 335.289C147.975 334.668 149.076 334.358 150.318 334.358C151.68 334.358 152.771 334.778 153.592 335.619C154.434 336.441 154.974 337.492 155.215 338.774L154.734 339.405V328.29H159.841V349.678H155.275L154.944 344.572L155.545 345.022C155.425 346.024 155.115 346.895 154.614 347.636C154.133 348.377 153.512 348.957 152.751 349.378C152.01 349.779 151.159 349.979 150.198 349.979ZM151.97 346.224C152.551 346.224 153.042 346.074 153.442 345.773C153.863 345.453 154.183 344.982 154.404 344.361C154.624 343.74 154.734 342.979 154.734 342.078C154.734 341.237 154.624 340.526 154.404 339.945C154.203 339.344 153.893 338.894 153.472 338.593C153.072 338.273 152.581 338.113 152 338.113C151.119 338.113 150.418 338.443 149.897 339.104C149.397 339.745 149.146 340.766 149.146 342.168C149.146 343.57 149.397 344.602 149.897 345.262C150.398 345.903 151.089 346.224 151.97 346.224ZM173.838 349.979C172.176 349.979 170.734 349.668 169.513 349.048C168.311 348.427 167.38 347.536 166.719 346.374C166.058 345.212 165.727 343.811 165.727 342.168C165.727 340.526 166.058 339.124 166.719 337.963C167.38 336.801 168.301 335.91 169.483 335.289C170.684 334.668 172.056 334.358 173.598 334.358C175.18 334.358 176.522 334.668 177.624 335.289C178.745 335.89 179.596 336.731 180.177 337.812C180.758 338.874 181.048 340.095 181.048 341.477C181.048 341.838 181.038 342.198 181.018 342.559C180.998 342.919 180.968 343.22 180.928 343.46H169.032V340.726H178.675L176.242 341.658C176.242 340.456 176.021 339.535 175.581 338.894C175.16 338.253 174.499 337.933 173.598 337.933C172.957 337.933 172.406 338.083 171.946 338.383C171.505 338.684 171.165 339.154 170.924 339.795C170.704 340.436 170.594 341.257 170.594 342.258C170.594 343.24 170.724 344.041 170.985 344.662C171.245 345.262 171.615 345.703 172.096 345.983C172.577 346.244 173.158 346.374 173.838 346.374C174.599 346.374 175.2 346.224 175.641 345.923C176.101 345.623 176.442 345.202 176.662 344.662L180.748 346.014C180.467 346.875 179.977 347.606 179.276 348.206C178.595 348.787 177.774 349.228 176.812 349.528C175.871 349.829 174.88 349.979 173.838 349.979ZM186.909 349.678V334.658H191.415L191.626 337.903C192.006 336.781 192.567 335.91 193.308 335.289C194.069 334.668 195.03 334.358 196.192 334.358C196.572 334.358 196.893 334.388 197.153 334.448C197.433 334.508 197.654 334.588 197.814 334.688L197.303 338.894C197.103 338.814 196.843 338.754 196.522 338.714C196.222 338.654 195.851 338.624 195.411 338.624C194.81 338.624 194.249 338.754 193.728 339.014C193.208 339.274 192.787 339.665 192.467 340.186C192.166 340.686 192.016 341.327 192.016 342.108V349.678H186.909ZM203.025 344.511C203.766 344.511 204.377 344.682 204.858 345.022C205.338 345.363 205.689 345.813 205.909 346.374C206.149 346.915 206.269 347.526 206.269 348.206C206.269 349.108 206.069 349.969 205.669 350.79C205.288 351.631 204.777 352.362 204.137 352.983C203.516 353.624 202.835 354.104 202.094 354.425L200.021 352.893C200.582 352.673 201.092 352.392 201.553 352.052C202.034 351.711 202.444 351.341 202.785 350.94C203.145 350.54 203.416 350.129 203.596 349.709L203.446 349.618C203.345 349.698 203.215 349.759 203.055 349.799C202.895 349.839 202.685 349.859 202.424 349.859C202.064 349.859 201.693 349.769 201.313 349.588C200.952 349.408 200.642 349.138 200.381 348.777C200.141 348.417 200.021 347.956 200.021 347.395C200.021 346.755 200.161 346.224 200.442 345.803C200.722 345.383 201.092 345.062 201.553 344.842C202.014 344.622 202.504 344.511 203.025 344.511ZM230.217 349.979C228.715 349.979 227.313 349.739 226.011 349.258C224.73 348.757 223.668 348.046 222.827 347.125L225.23 344.301C225.731 344.942 226.392 345.483 227.213 345.923C228.054 346.344 228.985 346.554 230.007 346.554C230.628 346.554 231.138 346.464 231.539 346.284C231.939 346.104 232.14 345.823 232.14 345.443C232.14 345.162 232.039 344.942 231.839 344.782C231.639 344.602 231.238 344.451 230.638 344.331L228.535 343.911C226.652 343.53 225.31 342.969 224.509 342.228C223.728 341.467 223.338 340.476 223.338 339.254C223.338 338.433 223.588 337.652 224.089 336.911C224.589 336.15 225.36 335.539 226.402 335.079C227.443 334.598 228.775 334.358 230.397 334.358C231.919 334.358 233.261 334.578 234.423 335.019C235.584 335.459 236.505 336.1 237.186 336.941L234.753 339.705C234.272 339.104 233.652 338.634 232.891 338.293C232.13 337.953 231.369 337.782 230.608 337.782C230.127 337.782 229.716 337.832 229.376 337.933C229.055 338.013 228.815 338.133 228.655 338.293C228.495 338.453 228.415 338.654 228.415 338.894C228.415 339.154 228.535 339.385 228.775 339.585C229.035 339.765 229.506 339.925 230.187 340.065L232.921 340.606C234.463 340.887 235.574 341.397 236.255 342.138C236.936 342.879 237.277 343.77 237.277 344.812C237.277 345.793 237.016 346.674 236.495 347.455C235.975 348.237 235.194 348.857 234.152 349.318C233.111 349.759 231.799 349.979 230.217 349.979ZM249.992 334.358C251.574 334.358 252.956 334.668 254.138 335.289C255.339 335.89 256.27 336.781 256.931 337.963C257.612 339.124 257.953 340.526 257.953 342.168C257.953 343.811 257.612 345.222 256.931 346.404C256.27 347.566 255.339 348.457 254.138 349.078C252.956 349.678 251.574 349.979 249.992 349.979C248.45 349.979 247.078 349.678 245.876 349.078C244.675 348.457 243.733 347.566 243.053 346.404C242.392 345.222 242.061 343.811 242.061 342.168C242.061 340.526 242.392 339.124 243.053 337.963C243.733 336.781 244.675 335.89 245.876 335.289C247.078 334.668 248.45 334.358 249.992 334.358ZM249.992 337.993C249.411 337.993 248.91 338.133 248.49 338.413C248.069 338.694 247.749 339.144 247.529 339.765C247.308 340.386 247.198 341.187 247.198 342.168C247.198 343.15 247.308 343.951 247.529 344.572C247.749 345.172 248.069 345.623 248.49 345.923C248.91 346.204 249.411 346.344 249.992 346.344C250.593 346.344 251.103 346.204 251.524 345.923C251.945 345.623 252.265 345.172 252.485 344.572C252.706 343.951 252.816 343.15 252.816 342.168C252.816 341.187 252.706 340.386 252.485 339.765C252.265 339.144 251.945 338.694 251.524 338.413C251.103 338.133 250.593 337.993 249.992 337.993ZM263.83 349.678V334.658H268.396L268.546 337.572C269.027 336.511 269.698 335.71 270.559 335.169C271.44 334.628 272.451 334.358 273.593 334.358C274.714 334.358 275.686 334.608 276.507 335.109C277.328 335.609 277.939 336.35 278.339 337.332C278.66 336.671 279.07 336.12 279.571 335.68C280.092 335.239 280.682 334.908 281.343 334.688C282.004 334.468 282.685 334.358 283.386 334.358C284.387 334.358 285.269 334.558 286.03 334.959C286.791 335.339 287.392 335.93 287.832 336.731C288.293 337.512 288.523 338.493 288.523 339.675V349.678H283.416V340.847C283.416 339.885 283.226 339.214 282.845 338.834C282.485 338.453 281.994 338.263 281.373 338.263C280.873 338.263 280.412 338.393 279.992 338.654C279.591 338.894 279.281 339.264 279.06 339.765C278.84 340.266 278.73 340.897 278.73 341.658V349.678H273.623V340.847C273.623 339.885 273.433 339.214 273.052 338.834C272.672 338.453 272.181 338.263 271.58 338.263C271.12 338.263 270.679 338.383 270.258 338.624C269.858 338.864 269.537 339.244 269.297 339.765C269.057 340.266 268.937 340.927 268.937 341.748V349.678H263.83ZM312.241 349.979C311 349.979 309.908 349.678 308.967 349.078C308.046 348.457 307.325 347.566 306.804 346.404C306.303 345.242 306.053 343.851 306.053 342.228C306.053 340.546 306.313 339.124 306.834 337.963C307.375 336.801 308.116 335.91 309.057 335.289C310.018 334.668 311.12 334.358 312.362 334.358C313.723 334.358 314.815 334.778 315.636 335.619C316.477 336.441 317.018 337.492 317.258 338.774L316.777 339.405V328.29H321.884V349.678H317.318L316.988 344.572L317.589 345.022C317.468 346.024 317.158 346.895 316.657 347.636C316.177 348.377 315.556 348.957 314.795 349.378C314.054 349.779 313.203 349.979 312.241 349.979ZM314.014 346.224C314.595 346.224 315.085 346.074 315.486 345.773C315.906 345.453 316.227 344.982 316.447 344.361C316.667 343.74 316.777 342.979 316.777 342.078C316.777 341.237 316.667 340.526 316.447 339.945C316.247 339.344 315.936 338.894 315.516 338.593C315.115 338.273 314.625 338.113 314.044 338.113C313.163 338.113 312.462 338.443 311.941 339.104C311.44 339.745 311.19 340.766 311.19 342.168C311.19 343.57 311.44 344.602 311.941 345.262C312.442 345.903 313.133 346.224 314.014 346.224ZM335.882 349.979C334.22 349.979 332.778 349.668 331.556 349.048C330.354 348.427 329.423 347.536 328.762 346.374C328.101 345.212 327.771 343.811 327.771 342.168C327.771 340.526 328.101 339.124 328.762 337.963C329.423 336.801 330.344 335.91 331.526 335.289C332.728 334.668 334.099 334.358 335.642 334.358C337.224 334.358 338.566 334.668 339.667 335.289C340.789 335.89 341.64 336.731 342.22 337.812C342.801 338.874 343.092 340.095 343.092 341.477C343.092 341.838 343.082 342.198 343.062 342.559C343.042 342.919 343.012 343.22 342.972 343.46H331.075V340.726H340.718L338.285 341.658C338.285 340.456 338.065 339.535 337.624 338.894C337.204 338.253 336.543 337.933 335.642 337.933C335.001 337.933 334.45 338.083 333.989 338.383C333.549 338.684 333.208 339.154 332.968 339.795C332.748 340.436 332.638 341.257 332.638 342.258C332.638 343.24 332.768 344.041 333.028 344.662C333.288 345.262 333.659 345.703 334.14 345.983C334.62 346.244 335.201 346.374 335.882 346.374C336.643 346.374 337.244 346.224 337.684 345.923C338.145 345.623 338.485 345.202 338.706 344.662L342.791 346.014C342.511 346.875 342.02 347.606 341.319 348.206C340.638 348.787 339.817 349.228 338.856 349.528C337.915 349.829 336.923 349.979 335.882 349.979ZM367.882 349.979C366.22 349.979 364.778 349.668 363.556 349.048C362.355 348.427 361.424 347.536 360.763 346.374C360.102 345.212 359.771 343.811 359.771 342.168C359.771 340.526 360.102 339.124 360.763 337.963C361.424 336.801 362.345 335.91 363.526 335.289C364.728 334.668 366.1 334.358 367.642 334.358C369.224 334.358 370.566 334.668 371.667 335.289C372.789 335.89 373.64 336.731 374.221 337.812C374.802 338.874 375.092 340.095 375.092 341.477C375.092 341.838 375.082 342.198 375.062 342.559C375.042 342.919 375.012 343.22 374.972 343.46H363.076V340.726H372.719L370.285 341.658C370.285 340.456 370.065 339.535 369.625 338.894C369.204 338.253 368.543 337.933 367.642 337.933C367.001 337.933 366.45 338.083 365.99 338.383C365.549 338.684 365.209 339.154 364.968 339.795C364.748 340.436 364.638 341.257 364.638 342.258C364.638 343.24 364.768 344.041 365.028 344.662C365.289 345.262 365.659 345.703 366.14 345.983C366.621 346.244 367.201 346.374 367.882 346.374C368.643 346.374 369.244 346.224 369.685 345.923C370.145 345.623 370.486 345.202 370.706 344.662L374.792 346.014C374.511 346.875 374.021 347.606 373.32 348.206C372.639 348.787 371.818 349.228 370.856 349.528C369.915 349.829 368.924 349.979 367.882 349.979ZM380.953 349.678V334.658H385.459L385.669 337.903C386.05 336.781 386.611 335.91 387.352 335.289C388.113 334.668 389.074 334.358 390.236 334.358C390.616 334.358 390.937 334.388 391.197 334.448C391.477 334.508 391.698 334.588 391.858 334.688L391.347 338.894C391.147 338.814 390.886 338.754 390.566 338.714C390.266 338.654 389.895 338.624 389.454 338.624C388.854 338.624 388.293 338.754 387.772 339.014C387.252 339.274 386.831 339.665 386.511 340.186C386.21 340.686 386.06 341.327 386.06 342.108V349.678H380.953Z" fill="#E4E4E4"/>
<g clip-path="url(#clip0_558_5260)">
<path d="M210.724 25.9618C162.067 39.4147 170.357 23.209 167.866 5.09424C204.364 -5.41945 234.827 2.69665 250.819 8.42417C244.585 14.2848 219.649 28.0929 203.339 31.2009C222.096 31.2009 244.93 20.0123 244.93 20.0123C244.93 20.0123 244.711 28.1518 246.334 36.7064C247.978 45.3719 251.469 54.46 252.541 55.3984C254.244 56.8902 266.631 52.1424 272.611 49.5821C257.479 63.7454 250.593 66.8977 239.448 68.3185C232.998 69.1407 225.69 77.9087 222.096 82.393C224.985 80.3981 227.396 76.9453 235.098 73.8684C240.413 71.7454 250.469 70.4063 255.893 67.3861C262.624 63.6381 271.75 54.5282 272.611 53.5336C281.926 42.7713 291.095 43.233 296.17 45.1866C296.17 45.1866 299.93 46.6961 303.917 52.2016C308.088 58.6438 313.681 66.8781 317.192 75.9107C321.955 88.1683 323.689 98.6185 323.251 100.541C323.565 103.294 320.654 106.508 320.654 106.508C320.654 106.508 314.991 112.991 311.79 113.791C312.913 110.097 313.977 92.6541 310.715 89.7479C309.22 88.416 302.689 86.64 303.731 89.7479C304.533 92.1404 303.293 101.656 302.478 100.102C301.825 98.8589 295.445 95.0931 293.542 94.4863C296.396 95.685 300.237 105.11 300.418 107.345C299.739 111.963 298.208 113.472 293.542 116.092C284.015 121.44 280.833 128.804 281.347 131.779C280.513 133.342 235.651 146.239 230.758 144.996L215.436 137.537C204.234 131.97 206.665 113.212 207.482 108.451C203.639 128.424 198.19 126.895 196.589 125.682C182.816 115.248 147.041 98.3792 143.084 97.533C138.1 96.4674 132.301 90.074 130.851 82.9257C130.851 77.5313 136.212 71.3968 138.689 70.0945C129.175 73.2467 127.725 81.505 127.725 81.505C127.725 81.505 116.943 71.6928 113.001 66.4537C110.89 63.6478 104.474 66.2253 104.212 71.3376C104.212 75.3779 110.555 81.505 110.555 81.505C110.555 81.505 104.467 79.0433 101.403 78.2194C97.8933 77.2756 94.562 77.5091 94.562 77.5091C95.3323 56.6859 123.059 36.1292 131.259 35.2412C133.373 34.6394 141.536 35.3593 151.058 38.9707C157.187 41.2956 164.172 46.6427 169.497 47.5397C182.142 49.6697 187.211 45.1866 187.211 45.1866C189.34 55.6203 194.505 66.1281 199.443 73.8684C199.443 73.8684 196.136 72.5808 190.382 71.3376C185.796 70.0971 179.742 69.8506 175.93 68.3185C167.838 65.0661 165.271 61.611 165.555 62.147C168.833 68.3237 178.12 72.2108 183.768 72.936C184.493 72.936 193.428 74.2752 198.039 75.7331C202.79 77.2354 209.803 81.7561 209.003 81.1942C198.764 74.0016 190.911 44.5058 188.706 32.9768C192.965 31.6449 208.776 28.4037 210.724 25.9618Z" fill="#EB79A1"/>
<path d="M322.718 127.724C319.275 127.724 318.958 125.149 321.133 122.352C322.595 120.014 325.903 114.895 327.43 113.117C329.968 118.134 329.05 129.989 328.88 129.412C328.381 127.724 325.029 127.724 322.718 127.724Z" fill="#EB79A1"/>
<path d="M83.8249 96.7338C84.0884 92.989 88.2695 93.0416 88.5245 93.0483C88.3121 93.0399 85.4015 92.8481 86.362 88.6976C87.0459 85.742 89.5745 85.6458 90.7244 85.7636C89.8608 85.5145 88.5207 84.5941 90.3941 81.1942C94.0639 74.5344 118.891 87.3656 118.891 87.3656C115.569 83.9173 107.293 75.6727 106.613 72.4032C105.533 67.2085 111.531 67.0753 111.778 68.3185C112.333 71.1156 123.512 81.4162 126.819 84.5685C130.127 87.7208 133.253 98.643 141.77 100.375C141.77 100.375 160.527 107.345 179.736 119.377C195.29 128.347 211.922 139.724 223.727 146.727C222.676 148.148 195.909 155.696 183.813 155.696C183.813 146.727 139.097 121.109 126.819 119.377C126.819 119.377 113.181 122.34 106.024 121.198C95.7994 119.566 88.5367 114.049 88.5367 114.049C88.5367 114.049 82.6469 109.032 82.9188 105.436C83.2746 100.73 86.9963 101.085 86.9963 101.085C86.9963 101.085 83.5428 100.742 83.8249 96.7338Z" fill="#EB79A1"/>
<path d="M252.541 167.053C251.907 166.52 244.34 169.548 216.433 184.289C233.799 200.805 277.515 223.259 289.781 212.482C296.351 206.71 302.63 199.679 307.496 192.059C315.878 179.804 321.81 163.01 324.44 155.163C312.978 161.068 301.025 158.392 295.136 156.172C286.742 153.009 265.996 159.516 257.388 163.719C256.487 164.863 257.761 166.524 261.511 168.261C266.052 170.363 272.883 171.768 272.883 171.768C272.883 171.768 265.947 172.059 260.877 170.481C256.811 169.215 254.08 168.015 252.541 167.053Z" fill="#EB79A1"/>
<path d="M141.77 213.059C135.155 214.88 158.714 221.229 158.714 221.229C158.714 221.229 151.717 221.866 143.084 220.119C138.372 219.165 135.337 217.1 135.337 217.1C132.755 215.368 131.033 215.856 131.033 215.856C122.652 217.055 152.87 241.652 195.638 245.737C233.876 247.424 255.181 235.987 261.511 232.772C264.682 231.396 264.23 229.221 264.23 229.221C263.414 226.024 247.15 227.311 247.15 227.311C256.618 224.647 274.223 218.778 268.896 216.611C264.366 215.524 260.198 213.993 257.388 213.059C256.054 213.671 247.149 216.922 238.36 216.922C228.313 216.988 217.656 215.19 217.656 215.19C217.656 215.19 239.085 217.233 251.317 211.417C251.317 211.417 235.053 205.068 226.354 199.873C216.473 193.972 208.414 187.041 208.414 187.041C208.414 187.041 194.233 194.551 179.736 200.45C165.453 206.262 150.921 210.445 141.77 213.059Z" fill="#EB79A1"/>
<path d="M123.85 213.059C81.8177 172.527 80.3335 129.512 83.8249 114.049C105.047 130.55 125.82 122.039 125.82 122.039C125.82 122.039 134.826 124.18 150.264 132.744C167.851 142.501 174.835 149.345 178.059 154.259C152.63 155.839 141.557 160.706 141.399 164.684C142.776 163.528 145.825 160.035 167.186 158.278C175.014 157.418 180.6 158.561 190.466 157.138C201.263 155.579 212.889 152.482 221.357 150.644C245.85 145.329 262.992 140.202 282.511 134.323C281.347 124.583 294.061 118.002 299.792 113.791C302.242 111.989 306.417 95.7147 305.433 89.7479C310.089 89.268 310.715 93.3456 310.715 93.3456C310.715 93.3456 311.348 96.328 311.432 102.296C311.5 107.225 310.35 112.753 309.999 116.511C313.702 114.989 318.676 112.412 321.37 108.965C322.716 107.243 322.718 105.016 325.668 103.436C329.787 102.647 327.369 107.592 326.474 111.509C326.121 112.387 315.371 124.057 318.236 128.269C320.652 129.519 324.385 129.139 325.668 129.412C327.746 129.852 328.265 131.261 328.265 132.217C327.907 135.991 324.695 135.614 323.788 136.342C325.492 137.799 326.898 138.864 326.479 140.817C325.668 144.59 322.718 144.853 322.718 144.853C322.718 144.853 325.131 145.73 325.847 148.187C326.205 150.381 325.611 153.263 323.877 153.803C305.265 159.606 293.284 153.774 289.781 152.048C275.437 152.048 243.293 164.772 207.689 182.76C167.429 200.743 128.66 217.697 123.85 213.059Z" fill="#EB79A1"/>
</g>
<defs>
<clipPath id="clip0_558_5260">
<rect x="82.6113" width="246.57" height="245.906" rx="122.953" fill="white"/>
</clipPath>
</defs>
</svg>
