<svg width="255" height="251" viewBox="0 0 255 251" fill="none" xmlns="http://www.w3.org/2000/svg">
<path d="M112.041 147.652C124.153 146.29 131.73 154.352 135.461 162.872L135.619 163.231L135.676 164.193C137.072 159.57 142.859 152.242 147.565 148.598C149.938 146.76 152.722 145.373 155.734 145.142C158.822 144.906 161.911 145.905 164.737 148.412C167.27 150.66 169.25 153.048 170.011 155.972C170.786 158.955 170.19 162.074 168.492 165.555C166.808 169.007 163.939 173.024 159.841 177.94C156.885 181.486 152.945 185.597 148.394 190.344L148.392 190.347C146.61 192.206 144.734 194.163 142.787 196.222L137.803 199.75L133.957 196.75C119.821 185.716 108.9 174.751 104.005 166.087C101.602 161.833 100.322 157.556 101.628 153.978C103.017 150.175 106.864 148.235 112.041 147.652Z" fill="#E66A9D"/>
<path d="M199.42 121.947C197.689 117.698 195.169 112.925 192.027 108.706C188.873 104.472 185.174 100.906 181.116 98.9102C177.125 96.9469 172.758 96.4803 168.02 98.4537C163.201 100.461 157.809 105.072 152.061 113.678L148.939 111.593C149.19 111.217 149.443 110.85 149.693 110.487L138.536 101.773L140.846 98.8144L151.903 107.45C153.4 105.5 154.893 103.775 156.38 102.26L149.787 86.9764L153.233 85.4891L159.298 99.5481C161.746 97.4913 164.173 95.9897 166.576 94.9886C166.826 94.8846 167.076 94.7886 167.325 94.6956L167.289 78.7286L171.042 78.7204L171.077 93.6826C174.97 93.0373 178.66 93.68 182.051 95.2032L187.693 81.4534L191.165 82.8784L185.364 97.0176C188.369 98.9679 191.073 101.567 193.446 104.439L203.515 91.6801L206.461 94.0059L195.801 107.517C197.65 110.126 199.271 112.884 200.638 115.586L214.83 106.11L216.914 109.231L202.255 119.018C202.479 119.529 202.693 120.033 202.896 120.531L199.42 121.947Z" fill="#151515"/>
<path d="M62.592 120.943C64.5208 116.8 67.2726 112.162 70.6385 108.088C74.0152 104.001 77.9272 100.581 82.1511 98.7246C86.3146 96.895 90.8052 96.5668 95.5682 98.6655C100.402 100.796 105.708 105.512 111.216 114.177L114.384 112.162C114.154 111.8 113.922 111.446 113.692 111.095L125.374 102.835L123.207 99.769L111.552 108.01C110.105 106.039 108.655 104.289 107.202 102.748L114.497 87.8855L111.127 86.2315L104.368 100.003C101.937 97.8716 99.5065 96.2984 97.0821 95.23C96.8367 95.1219 96.5906 95.0219 96.3461 94.9243L97.0096 79.193L93.2587 79.0349L92.6354 93.8224C88.6685 93.0478 84.863 93.579 81.3314 95.0001L76.1263 81.2424L72.6147 82.5707L77.9479 96.6682C74.7988 98.5133 71.93 101.017 69.3889 103.804L59.6078 90.8554L56.6123 93.1183L66.9046 106.743C64.9152 109.274 63.1526 111.958 61.6533 114.594L47.5177 104.766L45.3749 107.848L59.8779 117.931C59.6389 118.412 59.4081 118.888 59.189 119.359L62.592 120.943Z" fill="#151515"/>
<path fill-rule="evenodd" clip-rule="evenodd" d="M112.041 147.652C124.153 146.29 131.73 154.352 135.461 162.872L135.619 163.231L135.676 164.193C137.072 159.57 142.859 152.242 147.565 148.598C149.938 146.76 152.722 145.373 155.734 145.142C158.822 144.906 161.911 145.905 164.737 148.412C167.27 150.66 169.25 153.048 170.011 155.972C170.786 158.955 170.19 162.074 168.492 165.555C166.808 169.007 163.939 173.024 159.841 177.94C156.885 181.486 152.945 185.597 148.394 190.344L148.392 190.347C146.61 192.206 144.734 194.163 142.787 196.222L137.803 199.75L133.957 196.75C119.821 185.716 108.9 174.751 104.005 166.087C101.602 161.833 100.322 157.556 101.628 153.978C103.017 150.175 106.864 148.235 112.041 147.652Z" fill="#940200"/>
<path fill-rule="evenodd" clip-rule="evenodd" d="M190.319 0.195832C152.032 3.10371 122.67 37.352 112.775 54.1127C97.7514 38.604 81.4754 31.092 75.2153 29.2746C36.81 21.0356 14.3834 44.8236 7.97078 57.7475C-8.50717 87.3109 4.33594 124.588 12.8172 139.531C65.159 211.259 119.035 243.73 139.431 251C196.134 215.136 228.081 161.744 236.966 139.531C258.29 102.698 255.544 64.4114 251.505 49.872C244.72 6.2539 207.887 -1.41965 190.319 0.195832ZM70.6385 108.088C67.2726 112.162 64.5208 116.8 62.592 120.943L59.189 119.359C59.4081 118.888 59.6389 118.412 59.8779 117.931L45.3749 107.848L47.5177 104.766L61.6533 114.594C63.1526 111.958 64.9152 109.274 66.9046 106.743L56.6123 93.1183L59.6078 90.8554L69.3889 103.804C71.93 101.017 74.7988 98.5133 77.9479 96.6682L72.6147 82.5707L76.1263 81.2424L81.3314 95.0001C84.863 93.579 88.6685 93.0478 92.6354 93.8224L93.2587 79.0349L97.0096 79.193L96.3461 94.9243C96.5906 95.0219 96.8367 95.1219 97.0821 95.23C99.5065 96.2984 101.937 97.8716 104.368 100.003L111.127 86.2315L114.497 87.8855L107.202 102.748C108.655 104.289 110.105 106.039 111.552 108.01L123.207 99.769L125.374 102.835L113.692 111.095C113.922 111.446 114.154 111.8 114.384 112.162L111.216 114.177C105.708 105.512 100.402 100.796 95.5682 98.6655C90.8052 96.5668 86.3146 96.895 82.1511 98.7246C77.9272 100.581 74.0152 104.001 70.6385 108.088ZM192.027 108.706C195.169 112.925 197.689 117.698 199.42 121.947L202.896 120.531C202.693 120.033 202.479 119.529 202.255 119.018L216.914 109.231L214.83 106.11L200.638 115.586C199.271 112.884 197.65 110.126 195.801 107.517L206.461 94.0059L203.515 91.6801L193.446 104.439C191.073 101.567 188.369 98.9679 185.364 97.0176L191.165 82.8784L187.693 81.4534L182.051 95.2032C178.66 93.68 174.97 93.0373 171.077 93.6826L171.042 78.7204L167.289 78.7286L167.325 94.6956C167.076 94.7886 166.826 94.8846 166.576 94.9886C164.173 95.9897 161.746 97.4913 159.298 99.5481L153.233 85.4891L149.787 86.9764L156.38 102.26C154.893 103.775 153.4 105.5 151.903 107.45L140.846 98.8144L138.536 101.773L149.693 110.487C149.443 110.85 149.19 111.217 148.939 111.593L152.061 113.678C157.809 105.072 163.201 100.461 168.02 98.4537C172.758 96.4803 177.125 96.9469 181.116 98.9102C185.174 100.906 188.873 104.472 192.027 108.706ZM135.461 162.872C131.73 154.352 124.153 146.29 112.041 147.652C106.864 148.235 103.017 150.175 101.628 153.978C100.322 157.556 101.602 161.833 104.005 166.087C108.9 174.751 119.821 185.716 133.957 196.75L137.803 199.75L142.787 196.222C144.734 194.163 146.61 192.206 148.392 190.347L148.394 190.344C152.945 185.597 156.885 181.486 159.841 177.94C163.939 173.024 166.808 169.007 168.492 165.555C170.19 162.074 170.786 158.955 170.011 155.972C169.25 153.048 167.27 150.66 164.737 148.412C161.911 145.905 158.822 144.906 155.734 145.142C152.722 145.373 149.938 146.76 147.565 148.598C142.859 152.242 137.072 159.57 135.676 164.193L135.619 163.231L135.461 162.872Z" fill="#E66A9D"/>
</svg>
