<svg width="248" height="244" viewBox="0 0 248 244" fill="none" xmlns="http://www.w3.org/2000/svg">
<path fill-rule="evenodd" clip-rule="evenodd" d="M109.63 52.6033C119.249 36.3101 147.791 3.01713 185.01 0.190369C202.088 -1.38005 237.894 6.07946 244.49 48.4809C248.416 62.6147 251.086 99.8337 230.356 135.639C221.719 157.233 190.664 209.135 135.542 243.999C115.715 236.932 63.3414 205.366 12.4597 135.639C4.21499 121.113 -8.26987 84.8755 7.74845 56.1367C13.9822 43.5733 35.7832 20.4488 73.1173 28.458C79.2027 30.2247 95.0248 37.5272 109.63 52.6033ZM173.482 102.284C163.634 99.9333 154.529 91.7696 149.149 84.8029L146.26 87.032C146.498 87.3397 146.744 87.6495 146.996 87.9625L133.093 98.5111L135.3 101.418L149.376 90.7391C151.363 92.9244 153.654 95.1367 156.18 97.1884L147.277 110.285L150.294 112.337L159.091 99.4002C161.361 101.881 165.844 103.635 169.554 104.927L165.939 117.843L169.453 118.827L173.063 105.931C177.188 106.851 181.495 106.881 185.794 105.6L188.605 118.717L192.173 117.953L189.243 104.279C189.469 104.173 189.695 104.066 189.92 103.952C192.453 102.668 194.928 100.89 197.321 98.5606L206.8 110.296L209.639 108.004L199.838 95.8691C201.155 94.3272 202.442 92.6019 203.696 90.6816L217.761 96.7754L219.211 93.4272L205.618 87.5358C205.756 87.2947 205.895 87.0517 206.032 86.8054L202.843 85.0295C198.209 93.3506 193.206 98.1945 188.269 100.697C183.358 103.185 178.342 103.444 173.482 102.284ZM72.8188 108.173C82.6664 105.822 91.7719 97.6587 97.1516 90.692L100.041 92.9211C99.8033 93.2288 99.557 93.5385 99.3048 93.8516L113.207 104.4L111.001 107.307L96.925 96.6282C94.938 98.8135 92.6466 101.026 90.1203 103.077L99.0241 116.174L96.0071 118.226L87.2103 105.289C83.9841 107.573 80.4572 109.524 76.7468 110.816L80.3619 123.732L76.848 124.716L73.2375 111.82C69.1125 112.741 64.806 112.77 60.5069 111.489L57.6958 124.606L54.1279 123.842L57.0574 110.169C56.8322 110.062 56.606 109.955 56.3811 109.841C53.8478 108.557 51.3731 106.779 48.9795 104.45L39.5006 116.185L36.6619 113.893L46.4628 101.758C45.1462 100.216 43.8587 98.491 42.605 96.5707L28.5402 102.665L27.0898 99.3163L40.683 93.4249C40.5449 93.1838 40.4061 92.9408 40.2689 92.6945L43.4573 90.9186C48.0919 99.2397 53.0947 104.084 58.0317 106.586C62.9429 109.074 67.959 109.333 72.8188 108.173ZM128.107 156.942C126.684 153.078 123.548 149.316 118.16 149.598C115.857 149.718 114.106 150.473 113.391 152.117C112.719 153.664 113.172 155.589 114.122 157.532C116.056 161.49 120.592 166.624 126.546 171.873L128.167 173.301L130.463 171.873C131.377 171.015 132.258 170.2 133.094 169.425C135.231 167.447 137.082 165.734 138.482 164.245C140.423 162.181 141.798 160.481 142.633 159.001C143.476 157.507 143.821 156.144 143.557 154.806C143.298 153.493 142.487 152.386 141.427 151.325C140.244 150.143 138.905 149.62 137.534 149.643C136.197 149.665 134.93 150.205 133.833 150.954C131.657 152.44 128.906 155.526 128.167 157.532V157.105L128.107 156.942Z" fill="#E66A9D"/>
<path d="M149.149 84.8029C154.529 91.7696 163.634 99.9333 173.482 102.284C178.342 103.444 183.358 103.185 188.269 100.697C193.206 98.1945 198.209 93.3506 202.843 85.0295L206.032 86.8054C205.895 87.0517 205.756 87.2947 205.618 87.5358L219.211 93.4272L217.761 96.7754L203.696 90.6816C202.442 92.6019 201.155 94.3272 199.838 95.8691L209.639 108.004L206.8 110.296L197.321 98.5606C194.928 100.89 192.453 102.668 189.92 103.952C189.695 104.066 189.469 104.173 189.243 104.279L192.173 117.953L188.605 118.717L185.794 105.6C181.495 106.881 177.188 106.851 173.063 105.931L169.453 118.827L165.939 117.843L169.554 104.927C165.844 103.635 161.361 101.881 159.091 99.4002L150.294 112.337L147.277 110.285L156.18 97.1884C153.654 95.1367 151.363 92.9244 149.376 90.7391L135.3 101.418L133.093 98.5111L146.996 87.9625C146.744 87.6495 146.498 87.3397 146.26 87.032L149.149 84.8029Z" fill="#0A0A0A"/>
<path d="M97.1516 90.692C91.7719 97.6587 82.6664 105.822 72.8188 108.173C67.959 109.333 62.9429 109.074 58.0317 106.586C53.0947 104.084 48.0919 99.2397 43.4573 90.9186L40.2689 92.6945C40.4061 92.9408 40.5449 93.1838 40.683 93.4249L27.0898 99.3163L28.5402 102.665L42.605 96.5707C43.8587 98.491 45.1462 100.216 46.4628 101.758L36.6619 113.893L39.5006 116.185L48.9795 104.45C51.3731 106.779 53.8478 108.557 56.3811 109.841C56.606 109.955 56.8322 110.062 57.0574 110.169L54.1279 123.842L57.6958 124.606L60.5069 111.489C64.806 112.77 69.1125 112.741 73.2375 111.82L76.848 124.716L80.3619 123.732L76.7468 110.816C80.4572 109.524 83.9841 107.573 87.2103 105.289L96.0071 118.226L99.0241 116.174L90.1203 103.077C92.6466 101.026 94.938 98.8135 96.925 96.6282L111.001 107.307L113.207 104.4L99.3048 93.8516C99.557 93.5385 99.8033 93.2288 100.041 92.9211L97.1516 90.692Z" fill="#0C0C0C"/>
<path d="M118.16 149.598C123.548 149.316 126.684 153.078 128.107 156.942L128.167 157.105V157.532C128.906 155.526 131.657 152.44 133.833 150.954C134.93 150.205 136.197 149.665 137.534 149.643C138.905 149.62 140.244 150.143 141.427 151.325C142.487 152.386 143.298 153.493 143.557 154.806C143.821 156.144 143.476 157.507 142.633 159.001C141.798 160.481 140.423 162.181 138.482 164.245C137.082 165.734 135.231 167.447 133.094 169.425C132.258 170.2 131.377 171.015 130.463 171.873L128.167 173.301L126.546 171.873C120.592 166.624 116.056 161.49 114.122 157.532C113.172 155.589 112.719 153.664 113.391 152.117C114.106 150.473 115.857 149.718 118.16 149.598Z" fill="#940200"/>
</svg>
