<svg width="210" height="208" viewBox="0 0 210 208" fill="none" xmlns="http://www.w3.org/2000/svg">
<path d="M92.4727 121.864C102.469 120.74 108.723 127.394 111.802 134.426L111.932 134.722L111.98 135.516C113.132 131.7 117.908 125.652 121.792 122.644C123.751 121.128 126.049 119.983 128.534 119.792C131.083 119.597 133.632 120.422 135.965 122.491C138.056 124.346 139.69 126.317 140.318 128.731C140.958 131.193 140.465 133.767 139.064 136.64C137.674 139.489 135.307 142.805 131.924 146.862C129.484 149.789 126.232 153.181 122.476 157.1L122.475 157.102C121.004 158.636 119.456 160.251 117.848 161.951L113.735 164.863L110.561 162.387C98.8936 153.28 89.8799 144.23 85.8398 137.079C83.8565 133.568 82.8 130.038 83.8784 127.085C85.0245 123.946 88.1997 122.345 92.4727 121.864Z" fill="#D3628A"/>
<path d="M164.59 100.649C163.161 97.1412 161.082 93.2022 158.488 89.7199C155.885 86.2253 152.832 83.2821 149.484 81.6351C146.189 80.0147 142.585 79.6296 138.674 81.2583C134.698 82.9148 130.247 86.7207 125.503 93.824L122.926 92.1027C123.133 91.7928 123.342 91.4894 123.549 91.1901L114.34 83.9978L116.246 81.556L125.372 88.6837C126.608 87.0742 127.84 85.6501 129.067 84.4001L123.626 71.7856L126.47 70.558L131.476 82.1615C133.496 80.464 135.499 79.2247 137.483 78.3984C137.689 78.3125 137.896 78.2333 138.101 78.1566L138.071 64.9783L141.169 64.9715L141.197 77.3205C144.41 76.7879 147.456 77.3184 150.255 78.5755L154.911 67.2272L157.777 68.4033L152.989 80.073C155.469 81.6827 157.701 83.828 159.66 86.1983L167.97 75.6677L170.402 77.5873L161.603 88.7382C163.129 90.8921 164.468 93.1679 165.596 95.3983L177.309 87.5773L179.029 90.1536L166.931 98.2311C167.115 98.6524 167.292 99.0688 167.459 99.4799L164.59 100.649Z" fill="#E4E4E4"/>
<path d="M51.66 99.8198C53.2519 96.3999 55.5232 92.5725 58.3011 89.21C61.0881 85.8367 64.3168 83.0139 67.803 81.4819C71.2393 79.9719 74.9456 79.7009 78.8768 81.4331C82.8665 83.1911 87.2456 87.0837 91.7913 94.235L94.4065 92.5728C94.2166 92.274 94.0249 91.9811 93.8348 91.6919L103.477 84.8741L101.688 82.3439L92.0685 89.1458C90.8746 87.5186 89.6776 86.0744 88.479 84.8023L94.4992 72.5359L91.7182 71.1708L86.1396 82.5373C84.1334 80.7778 82.1273 79.4794 80.1262 78.5977C79.9237 78.5084 79.7206 78.4259 79.5188 78.3453L80.0664 65.3615L76.9706 65.231L76.4562 77.4359C73.1821 76.7965 70.0413 77.235 67.1265 78.4079L62.8305 67.053L59.9322 68.1494L64.3339 79.7846C61.7348 81.3074 59.3671 83.3736 57.2698 85.6743L49.197 74.987L46.7247 76.8547L55.2194 88.1001C53.5775 90.1887 52.1227 92.4037 50.8852 94.5794L39.2185 86.4684L37.45 89.012L49.4199 97.3335C49.2227 97.7311 49.0322 98.124 48.8513 98.5126L51.66 99.8198Z" fill="#E4E4E4"/>
<path fill-rule="evenodd" clip-rule="evenodd" d="M92.4727 121.864C102.469 120.74 108.723 127.394 111.802 134.426L111.932 134.722L111.98 135.516C113.132 131.7 117.908 125.652 121.792 122.644C123.751 121.128 126.049 119.983 128.534 119.792C131.083 119.597 133.632 120.422 135.965 122.491C138.056 124.346 139.69 126.317 140.318 128.731C140.958 131.193 140.465 133.767 139.064 136.64C137.674 139.489 135.307 142.805 131.924 146.862C129.484 149.789 126.232 153.181 122.476 157.1L122.475 157.102C121.004 158.636 119.456 160.251 117.848 161.951L113.735 164.863L110.561 162.387C98.8936 153.28 89.8799 144.23 85.8398 137.079C83.8565 133.568 82.8 130.038 83.8784 127.085C85.0245 123.946 88.1997 122.345 92.4727 121.864Z" fill="#F74D4A"/>
<path fill-rule="evenodd" clip-rule="evenodd" d="M157.079 0.161629C125.479 2.56163 101.245 30.8283 93.0787 44.6616C80.6787 31.8616 67.2453 25.6616 62.0786 24.1616C30.3809 17.3616 11.8713 36.995 6.57865 47.6616C-7.02135 72.0616 3.57865 102.828 10.5786 115.162C53.7786 174.362 98.2453 201.162 115.079 207.162C161.879 177.562 188.245 133.495 195.579 115.162C213.179 84.7616 210.912 53.1616 207.579 41.1616C201.979 5.16163 171.579 -1.1717 157.079 0.161629ZM58.3011 89.21C55.5232 92.5725 53.2519 96.3999 51.66 99.8198L48.8513 98.5126C49.0322 98.124 49.2227 97.7311 49.4199 97.3335L37.45 89.012L39.2185 86.4684L50.8852 94.5794C52.1227 92.4037 53.5775 90.1887 55.2194 88.1001L46.7247 76.8547L49.197 74.987L57.2698 85.6743C59.3671 83.3736 61.7348 81.3074 64.3339 79.7846L59.9322 68.1494L62.8305 67.053L67.1265 78.4079C70.0413 77.235 73.1821 76.7965 76.4562 77.4359L76.9706 65.231L80.0664 65.3615L79.5188 78.3453C79.7206 78.4259 79.9237 78.5084 80.1262 78.5977C82.1273 79.4794 84.1334 80.7778 86.1396 82.5373L91.7182 71.1708L94.4992 72.5359L88.479 84.8023C89.6776 86.0744 90.8746 87.5186 92.0685 89.1458L101.688 82.3439L103.477 84.8741L93.8348 91.6919C94.0249 91.9811 94.2166 92.274 94.4065 92.5728L91.7913 94.235C87.2456 87.0837 82.8665 83.1911 78.8768 81.4331C74.9456 79.7009 71.2393 79.9719 67.803 81.4819C64.3168 83.0139 61.0881 85.8367 58.3011 89.21ZM158.488 89.7199C161.082 93.2022 163.161 97.1412 164.59 100.649L167.459 99.4799C167.292 99.0688 167.115 98.6524 166.931 98.2311L179.029 90.1536L177.309 87.5773L165.596 95.3983C164.468 93.1679 163.129 90.8921 161.603 88.7382L170.402 77.5873L167.97 75.6677L159.66 86.1983C157.701 83.828 155.469 81.6827 152.989 80.073L157.777 68.4033L154.911 67.2272L150.255 78.5755C147.456 77.3184 144.41 76.7879 141.197 77.3205L141.169 64.9715L138.071 64.9783L138.101 78.1566C137.896 78.2333 137.689 78.3125 137.483 78.3984C135.499 79.2247 133.496 80.464 131.476 82.1615L126.47 70.558L123.626 71.7856L129.067 84.4001C127.84 85.6501 126.608 87.0742 125.372 88.6837L116.246 81.556L114.34 83.9978L123.549 91.1901C123.342 91.4894 123.133 91.7928 122.926 92.1027L125.503 93.824C130.247 86.7207 134.698 82.9148 138.674 81.2583C142.585 79.6296 146.189 80.0147 149.484 81.6351C152.832 83.2821 155.885 86.2253 158.488 89.7199ZM111.802 134.426C108.723 127.394 102.469 120.74 92.4727 121.864C88.1997 122.345 85.0245 123.946 83.8784 127.085C82.8 130.038 83.8565 133.568 85.8398 137.079C89.8799 144.23 98.8936 153.28 110.561 162.387L113.735 164.863L117.848 161.951C119.456 160.251 121.004 158.636 122.475 157.102L122.476 157.1C126.232 153.181 129.484 149.789 131.924 146.862C135.307 142.805 137.674 139.489 139.064 136.64C140.465 133.767 140.958 131.193 140.318 128.731C139.69 126.317 138.056 124.346 135.965 122.491C133.632 120.422 131.083 119.597 128.534 119.792C126.049 119.983 123.751 121.128 121.792 122.644C117.908 125.652 113.132 131.7 111.98 135.516L111.932 134.722L111.802 134.426Z" fill="#D3628A"/>
</svg>
