<svg width="214" height="212" viewBox="0 0 214 212" fill="none" xmlns="http://www.w3.org/2000/svg">
<path d="M94.4727 123.864C104.469 122.739 110.723 129.393 113.802 136.426L113.932 136.722L113.98 137.516C115.132 133.7 119.908 127.652 123.792 124.644C125.751 123.127 128.049 121.983 130.534 121.792C133.083 121.597 135.632 122.422 137.965 124.491C140.056 126.346 141.69 128.317 142.318 130.731C142.958 133.192 142.465 135.767 141.064 138.64C139.674 141.489 137.307 144.805 133.924 148.862C131.484 151.789 128.232 155.181 124.476 159.1L124.475 159.101C123.004 160.636 121.456 162.251 119.848 163.951L115.735 166.863L112.561 164.386C100.894 155.28 91.8799 146.23 87.8398 139.079C85.8565 135.568 84.8 132.038 85.8784 129.084C87.0245 125.946 90.1997 124.344 94.4727 123.864Z" fill="white"/>
<path d="M166.59 102.649C165.161 99.141 163.082 95.2019 160.488 91.7196C157.885 88.225 154.832 85.2819 151.484 83.6348C148.189 82.0144 144.585 81.6293 140.674 83.2581C136.698 84.9146 132.247 88.7204 127.503 95.8237L124.926 94.1024C125.133 93.7925 125.342 93.4892 125.549 93.1899L116.34 85.9976L118.246 83.5558L127.372 90.6834C128.608 89.074 129.84 87.6498 131.067 86.3999L125.626 73.7853L128.47 72.5577L133.476 84.1613C135.496 82.4638 137.499 81.2244 139.483 80.3981C139.689 80.3123 139.896 80.2331 140.101 80.1563L140.071 66.9781L143.169 66.9712L143.197 79.3203C146.41 78.7876 149.456 79.3181 152.255 80.5752L156.911 69.2269L159.777 70.4031L154.989 82.0727C157.469 83.6824 159.701 85.8277 161.66 88.1981L169.97 77.6675L172.402 79.5871L163.603 90.738C165.129 92.8918 166.468 95.1677 167.596 97.3981L179.309 89.577L181.029 92.1533L168.931 100.231C169.115 100.652 169.292 101.069 169.459 101.48L166.59 102.649Z" fill="#151515"/>
<path d="M53.66 101.82C55.2519 98.3997 57.5232 94.5722 60.3011 91.2097C63.0881 87.8364 66.3168 85.0137 69.803 83.4816C73.2393 81.9716 76.9456 81.7007 80.8768 83.4328C84.8665 85.1909 89.2456 89.0835 93.7913 96.2348L96.4065 94.5725C96.2166 94.2737 96.0249 93.9808 95.8348 93.6917L105.477 86.8739L103.688 84.3436L94.0685 91.1456C92.8746 89.5183 91.6776 88.0742 90.479 86.8021L96.4992 74.5357L93.7182 73.1705L88.1396 84.5371C86.1334 82.7776 84.1273 81.4792 82.1262 80.5974C81.9237 80.5082 81.7206 80.4256 81.5188 80.3451L82.0664 67.3613L78.9706 67.2308L78.4562 79.4356C75.1821 78.7963 72.0413 79.2347 69.1265 80.4076L64.8305 69.0528L61.9322 70.1491L66.3339 81.7844C63.7348 83.3072 61.3671 85.3734 59.2698 87.674L51.197 76.9868L48.7247 78.8545L57.2194 90.0999C55.5775 92.1885 54.1227 94.4035 52.8852 96.5792L41.2185 88.4682L39.45 91.0118L51.4199 99.3333C51.2227 99.7308 51.0322 100.124 50.8513 100.512L53.66 101.82Z" fill="#151515"/>
<path fill-rule="evenodd" clip-rule="evenodd" d="M94.4727 123.864C104.469 122.739 110.723 129.393 113.802 136.426L113.932 136.722L113.98 137.516C115.132 133.7 119.908 127.652 123.792 124.644C125.751 123.127 128.049 121.983 130.534 121.792C133.083 121.597 135.632 122.422 137.965 124.491C140.056 126.346 141.69 128.317 142.318 130.731C142.958 133.192 142.465 135.767 141.064 138.64C139.674 141.489 137.307 144.805 133.924 148.862C131.484 151.789 128.232 155.181 124.476 159.1L124.475 159.101C123.004 160.636 121.456 162.251 119.848 163.951L115.735 166.863L112.561 164.386C100.894 155.28 91.8799 146.23 87.8398 139.079C85.8565 135.568 84.8 132.038 85.8784 129.084C87.0245 125.946 90.1997 124.344 94.4727 123.864Z" fill="#940200"/>
<path fill-rule="evenodd" clip-rule="evenodd" d="M159.079 2.16138C127.479 4.56138 103.245 32.8281 95.0787 46.6614C82.6787 33.8614 69.2453 27.6614 64.0786 26.1614C32.3809 19.3614 13.8713 38.9947 8.57865 49.6614C-5.02135 74.0614 5.57865 104.828 12.5786 117.161C55.7786 176.361 100.245 203.161 117.079 209.161C163.879 179.561 190.245 135.495 197.579 117.161C215.179 86.7614 212.912 55.1614 209.579 43.1614C203.979 7.16138 173.579 0.828051 159.079 2.16138ZM60.3011 91.2097C57.5232 94.5722 55.2519 98.3997 53.66 101.82L50.8513 100.512C51.0322 100.124 51.2227 99.7308 51.4199 99.3333L39.45 91.0118L41.2185 88.4682L52.8852 96.5792C54.1227 94.4035 55.5775 92.1885 57.2194 90.0999L48.7247 78.8545L51.197 76.9868L59.2698 87.674C61.3671 85.3734 63.7348 83.3072 66.3339 81.7844L61.9322 70.1491L64.8305 69.0528L69.1265 80.4076C72.0413 79.2347 75.1821 78.7963 78.4562 79.4356L78.9706 67.2308L82.0664 67.3613L81.5188 80.3451C81.7206 80.4256 81.9237 80.5082 82.1262 80.5974C84.1273 81.4792 86.1334 82.7776 88.1396 84.5371L93.7182 73.1705L96.4992 74.5357L90.479 86.8021C91.6776 88.0742 92.8746 89.5183 94.0685 91.1456L103.688 84.3436L105.477 86.8739L95.8348 93.6917C96.0249 93.9808 96.2166 94.2737 96.4065 94.5725L93.7913 96.2348C89.2456 89.0835 84.8665 85.1909 80.8768 83.4328C76.9456 81.7007 73.2393 81.9716 69.803 83.4816C66.3168 85.0137 63.0881 87.8364 60.3011 91.2097ZM160.488 91.7196C163.082 95.2019 165.161 99.141 166.59 102.649L169.459 101.48C169.292 101.069 169.115 100.652 168.931 100.231L181.029 92.1533L179.309 89.577L167.596 97.3981C166.468 95.1677 165.129 92.8918 163.603 90.738L172.402 79.5871L169.97 77.6675L161.66 88.1981C159.701 85.8277 157.469 83.6824 154.989 82.0727L159.777 70.4031L156.911 69.2269L152.255 80.5752C149.456 79.3181 146.41 78.7876 143.197 79.3203L143.169 66.9712L140.071 66.9781L140.101 80.1563C139.896 80.2331 139.689 80.3123 139.483 80.3981C137.499 81.2244 135.496 82.4638 133.476 84.1613L128.47 72.5577L125.626 73.7853L131.067 86.3999C129.84 87.6498 128.608 89.074 127.372 90.6834L118.246 83.5558L116.34 85.9976L125.549 93.1899C125.342 93.4892 125.133 93.7925 124.926 94.1024L127.503 95.8237C132.247 88.7204 136.698 84.9146 140.674 83.2581C144.585 81.6293 148.189 82.0144 151.484 83.6348C154.832 85.2819 157.885 88.225 160.488 91.7196ZM113.802 136.426C110.723 129.393 104.469 122.739 94.4727 123.864C90.1997 124.344 87.0245 125.946 85.8784 129.084C84.8 132.038 85.8565 135.568 87.8398 139.079C91.8799 146.23 100.894 155.28 112.561 164.386L115.735 166.863L119.848 163.951C121.456 162.251 123.004 160.636 124.475 159.101L124.476 159.1C128.232 155.181 131.484 151.789 133.924 148.862C137.307 144.805 139.674 141.489 141.064 138.64C142.465 135.767 142.958 133.192 142.318 130.731C141.69 128.317 140.056 126.346 137.965 124.491C135.632 122.422 133.083 121.597 130.534 121.792C128.049 121.983 125.751 123.127 123.792 124.644C119.908 127.652 115.132 133.7 113.98 137.516L113.932 136.722L113.802 136.426Z" fill="white"/>
<path d="M159.003 1.16479C166.423 0.485828 177.855 1.76281 188.171 7.79858C198.528 13.8581 207.699 24.6825 210.557 42.948C213.937 55.1881 216.173 86.9912 198.478 117.602C191.042 136.135 164.563 180.312 117.613 210.007L117.201 210.266L116.743 210.103C99.681 204.022 55.0614 177.075 11.7705 117.751L11.7373 117.705L11.709 117.655C8.15336 111.39 3.70889 100.499 1.86426 88.0837C0.0208808 75.6767 0.760252 61.651 7.68945 49.2009C13.1338 38.2455 32.0361 18.2646 64.2881 25.1833L64.3232 25.1912L64.3574 25.2009C69.5614 26.7118 82.6241 32.7399 94.8887 45.0427C99.2054 38.0541 107.103 28.0547 117.655 19.3523C128.779 10.1786 142.927 2.38476 159.003 1.16382V1.16479Z" stroke="black" stroke-width="2"/>
</svg>
