<svg width="55" height="54" viewBox="0 0 55 54" fill="none" xmlns="http://www.w3.org/2000/svg">
<path d="M24.1182 31.466C26.6173 31.1849 28.1807 32.8484 28.9505 34.6065L28.9831 34.6806L28.9949 34.879C29.283 33.925 30.477 32.413 31.4481 31.6611C31.9377 31.2819 32.5122 30.9958 33.1336 30.9481C33.7707 30.8993 34.408 31.1055 34.9912 31.6229C35.5139 32.0866 35.9225 32.5793 36.0794 33.1828C36.2394 33.7981 36.1163 34.4418 35.766 35.1601C35.4185 35.8722 34.8267 36.7012 33.981 37.7155C33.371 38.4472 32.558 39.2953 31.6191 40.275L31.6186 40.2754C31.2509 40.659 30.8639 41.0629 30.4621 41.4877L29.4337 42.2157L28.6402 41.5967C25.7234 39.3201 23.47 37.0576 22.46 35.2698C21.9641 34.3921 21.7 33.5096 21.9696 32.7712C22.2561 31.9865 23.0499 31.5862 24.1182 31.466Z" fill="#D50303"/>
<path d="M42.1476 26.1622C41.7903 25.2853 41.2705 24.3005 40.6221 23.43C39.9714 22.5563 39.208 21.8205 38.3709 21.4088C37.5472 21.0037 36.6462 20.9074 35.6686 21.3146C34.6744 21.7287 33.5617 22.6802 32.3756 24.456L31.7316 24.0257C31.7833 23.9482 31.8355 23.8724 31.8872 23.7975L29.585 21.9995L30.0616 21.389L32.343 23.1709C32.652 22.7686 32.96 22.4125 33.2668 22.1L31.9065 18.9464L32.6176 18.6395L33.869 21.5404C34.374 21.116 34.8748 20.8062 35.3708 20.5996C35.4223 20.5781 35.4739 20.5583 35.5252 20.5391L35.5179 17.2446L36.2923 17.2429L36.2994 20.3301C37.1026 20.197 37.864 20.3296 38.5637 20.6439L39.7278 17.8068L40.4443 18.1008L39.2472 21.0182C39.8673 21.4207 40.4252 21.957 40.915 22.5496L42.9926 19.9169L43.6005 20.3968L41.4008 23.1846C41.7824 23.723 42.1169 24.292 42.399 24.8496L45.3273 22.8943L45.7573 23.5384L42.7326 25.5578C42.7787 25.6631 42.823 25.7672 42.8648 25.87L42.1476 26.1622Z" fill="#0B0A0A"/>
<path d="M13.915 25.9549C14.313 25.1 14.8808 24.1431 15.5753 23.3025C16.272 22.4592 17.0792 21.7535 17.9508 21.3705C18.8098 20.993 19.7364 20.9252 20.7192 21.3583C21.7166 21.7978 22.8114 22.7709 23.9478 24.5588L24.6016 24.1432C24.5541 24.0685 24.5062 23.9953 24.4587 23.923L26.8692 22.2185L26.422 21.586L24.0171 23.2865C23.7187 22.8796 23.4194 22.5186 23.1197 22.2006L24.6248 19.134L23.9295 18.7927L22.5349 21.6343C22.0333 21.1945 21.5318 20.8699 21.0316 20.6494C20.9809 20.6271 20.9301 20.6065 20.8797 20.5863L21.0166 17.3404L20.2427 17.3078L20.114 20.359C19.2955 20.1991 18.5103 20.3087 17.7816 20.602L16.7076 17.7633L15.983 18.0373L17.0835 20.9462C16.4337 21.3269 15.8418 21.8434 15.3175 22.4186L13.2993 19.7468L12.6812 20.2137L14.8049 23.025C14.3944 23.5472 14.0307 24.1009 13.7213 24.6449L10.8046 22.6171L10.3625 23.253L13.355 25.3334C13.3057 25.4328 13.258 25.531 13.2128 25.6281L13.915 25.9549Z" fill="#0B0A0A"/>
<path fill-rule="evenodd" clip-rule="evenodd" d="M24.1182 31.466C26.6173 31.1849 28.1807 32.8484 28.9505 34.6065L28.9831 34.6806L28.9949 34.879C29.283 33.925 30.477 32.413 31.4481 31.6611C31.9377 31.2819 32.5122 30.9958 33.1336 30.9481C33.7707 30.8993 34.408 31.1055 34.9912 31.6229C35.5139 32.0866 35.9225 32.5793 36.0794 33.1828C36.2394 33.7981 36.1163 34.4418 35.766 35.1601C35.4185 35.8722 34.8267 36.7012 33.981 37.7155C33.371 38.4472 32.558 39.2953 31.6191 40.275L31.6186 40.2754C31.2509 40.659 30.8639 41.0629 30.4621 41.4877L29.4337 42.2157L28.6402 41.5967C25.7234 39.3201 23.47 37.0576 22.46 35.2698C21.9641 34.3921 21.7 33.5096 21.9696 32.7712C22.2561 31.9865 23.0499 31.5862 24.1182 31.466Z" fill="#940200"/>
<path d="M40.2314 0.542969C42.1287 0.370064 45.0389 0.694676 47.6689 2.2334C50.3198 3.78437 52.6556 6.55242 53.3838 11.1875C54.2398 14.3084 54.7887 22.3016 50.3477 30.002C48.4685 34.6793 41.8197 45.7606 30.0371 53.2129L29.8311 53.3428L29.6016 53.2617C25.2788 51.7209 14.0865 44.947 3.24121 30.085L3.22363 30.0625L3.20996 30.0371C2.30713 28.4464 1.1848 25.6944 0.71875 22.5576C0.252655 19.4205 0.436472 15.8502 2.20801 12.6719C3.59382 9.90218 8.28605 4.9527 16.2422 6.47363L16.625 6.55176L16.6416 6.55566L16.6592 6.56055C17.9687 6.94079 21.1462 8.40692 24.1768 11.3652C25.2992 9.61508 27.2245 7.23233 29.7549 5.14551C32.5593 2.83267 36.1437 0.852553 40.2314 0.541992V0.542969Z" stroke="#E66A9D"/>
</svg>
