<svg width="32" height="32" viewBox="0 0 32 32" fill="none" xmlns="http://www.w3.org/2000/svg">
<rect x="0.5" y="0.5" width="31" height="31" rx="15.5" stroke="#E66A9D"/>
<path d="M16.0161 24C13.7746 24 11.8783 23.2242 10.3274 21.6726C8.77638 20.121 8.00059 18.2247 8 15.9837C8 13.935 8.66801 12.1572 10.004 10.6501C11.3401 9.14304 13.0472 8.26362 15.1255 8.01184C15.3184 7.98215 15.4892 8.00828 15.6376 8.09023C15.786 8.17217 15.9048 8.27965 15.9939 8.41266C16.0829 8.54567 16.1313 8.70155 16.1391 8.88028C16.1468 9.05902 16.091 9.22974 15.9716 9.39244C15.7192 9.77841 15.5298 10.1866 15.4033 10.6172C15.2769 11.0477 15.2139 11.5004 15.2145 11.9755C15.2145 13.3115 15.6821 14.4472 16.6173 15.3824C17.5526 16.3177 18.6882 16.7853 20.0242 16.7853C20.4844 16.7853 20.941 16.7185 21.3941 16.5849C21.8471 16.4513 22.2515 16.2657 22.6072 16.0282C22.7705 15.9243 22.9376 15.8762 23.1086 15.8839C23.2796 15.8916 23.4317 15.9323 23.5647 16.0059C23.7131 16.0801 23.8283 16.1915 23.9103 16.3399C23.9922 16.4884 24.018 16.6665 23.9877 16.8744C23.7799 18.923 22.9079 20.6227 21.3718 21.9736C19.8357 23.3245 18.0505 24 16.0161 24Z" fill="#E66A9D"/>
</svg>
