<svg width="55" height="54" viewBox="0 0 55 54" fill="none" xmlns="http://www.w3.org/2000/svg">
<path d="M26.0803 32.7532C27.224 32.6933 27.8895 33.4919 28.1916 34.312L28.2043 34.3467V34.4372C28.3612 34.0115 28.9451 33.3564 29.407 33.041C29.6399 32.882 29.9088 32.7675 30.1926 32.7627C30.4836 32.7578 30.7678 32.8688 31.0188 33.1199C31.2438 33.3449 31.416 33.5801 31.4709 33.8586C31.527 34.1427 31.4537 34.432 31.2749 34.749C31.0976 35.0633 30.8058 35.4239 30.3938 35.8621C30.0965 36.1782 29.7038 36.5417 29.2501 36.9617C29.0726 37.1261 28.8858 37.299 28.6916 37.4812L28.2043 37.7844L27.8603 37.4812C26.5964 36.367 25.6337 35.2774 25.2231 34.4372C25.0216 34.0248 24.9255 33.6162 25.0681 33.2878C25.2197 32.939 25.5915 32.7787 26.0803 32.7532Z" fill="#5D2F54"/>
<path d="M32.658 19C33.7998 20.4787 35.7325 22.2115 37.8228 22.7104C38.8543 22.9566 39.919 22.9018 40.9614 22.3735C42.0093 21.8425 43.0712 20.8143 44.0549 19.0481L44.7317 19.425C44.7026 19.4773 44.6731 19.5289 44.6438 19.5801L47.5291 20.8306L47.2212 21.5413L44.2358 20.2478C43.9697 20.6554 43.6965 21.0216 43.417 21.3489L45.4973 23.9246L44.8948 24.4111L42.8828 21.9202C42.3747 22.4147 41.8495 22.7919 41.3118 23.0645C41.264 23.0886 41.216 23.1115 41.1682 23.134L41.79 26.0364L41.0327 26.1985L40.436 23.4143C39.5235 23.6863 38.6094 23.68 37.7339 23.4846L36.9675 26.2219L36.2217 26.0129L36.989 23.2715C36.2014 22.9973 35.25 22.625 34.7681 22.0984L32.9009 24.8442L32.2605 24.4087L34.1504 21.6289C33.6142 21.1934 33.1278 20.7239 32.7061 20.26L29.7183 22.5266L29.25 21.9097L32.2009 19.6707C32.1474 19.6042 32.0951 19.5385 32.0447 19.4731L32.658 19Z" fill="#0A0A0A"/>
<path fill-rule="evenodd" clip-rule="evenodd" d="M26.0803 32.7532C27.224 32.6933 27.8895 33.4919 28.1916 34.312L28.2043 34.3467V34.4372C28.3612 34.0115 28.9451 33.3564 29.407 33.041C29.6399 32.882 29.9088 32.7675 30.1926 32.7627C30.4836 32.7578 30.7678 32.8688 31.0188 33.1199C31.2438 33.3449 31.416 33.5801 31.4709 33.8586C31.527 34.1427 31.4537 34.432 31.2749 34.749C31.0976 35.0633 30.8058 35.4239 30.3938 35.8621C30.0965 36.1782 29.7038 36.5417 29.2501 36.9617C29.0726 37.1261 28.8858 37.299 28.6916 37.4812L28.2043 37.7844L27.8603 37.4812C26.5964 36.367 25.6337 35.2774 25.2231 34.4372C25.0216 34.0248 24.9255 33.6162 25.0681 33.2878C25.2197 32.939 25.5915 32.7787 26.0803 32.7532Z" fill="#F74D4A"/>
<path d="M21.6211 20.25C20.4792 21.7287 18.5465 23.4615 16.4563 23.9604C15.4248 24.2066 14.3601 24.1518 13.3176 23.6235C12.2697 23.0925 11.2078 22.0643 10.2241 20.2981L9.54736 20.675C9.57648 20.7273 9.60594 20.7789 9.63525 20.8301L6.75 22.0806L7.05786 22.7913L10.0432 21.4978C10.3093 21.9054 10.5826 22.2716 10.8621 22.5989L8.78174 25.1746L9.38428 25.6611L11.3962 23.1702C11.9043 23.6647 12.4296 24.0419 12.9673 24.3145C13.015 24.3386 13.063 24.3615 13.1108 24.384L12.489 27.2864L13.2463 27.4485L13.843 24.6643C14.7555 24.9363 15.6696 24.93 16.5452 24.7346L17.3115 27.4719L18.0574 27.2629L17.29 24.5215C18.0776 24.2473 18.8262 23.8331 19.511 23.3484L21.3782 26.0942L22.0186 25.6587L20.1287 22.8789C20.6649 22.4434 21.1513 21.9739 21.573 21.51L24.5608 23.7766L25.0291 23.1597L22.0781 20.9207C22.1317 20.8542 22.1839 20.7885 22.2344 20.7231L21.6211 20.25Z" fill="#0C0C0C"/>
<path d="M40.2314 0.542969C42.1287 0.370064 45.0389 0.694676 47.6689 2.2334C50.3198 3.78437 52.6556 6.55242 53.3838 11.1875C54.2398 14.3084 54.7887 22.3016 50.3477 30.002C48.4685 34.6793 41.8197 45.7606 30.0371 53.2129L29.8311 53.3428L29.6016 53.2617C25.2788 51.7209 14.0865 44.947 3.24121 30.085L3.22363 30.0625L3.20996 30.0371C2.30713 28.4464 1.1848 25.6944 0.71875 22.5576C0.252655 19.4205 0.436472 15.8502 2.20801 12.6719C3.59382 9.90218 8.28605 4.9527 16.2422 6.47363L16.625 6.55176L16.6416 6.55566L16.6592 6.56055C17.9687 6.94079 21.1462 8.40692 24.1768 11.3652C25.2992 9.61508 27.2245 7.23233 29.7549 5.14551C32.5593 2.83267 36.1437 0.852553 40.2314 0.541992V0.542969Z" stroke="#E66A9D"/>
</svg>
