<svg width="53" height="52" viewBox="0 0 53 52" fill="none" xmlns="http://www.w3.org/2000/svg">
<path d="M23.1182 30.466C25.6173 30.1849 27.1807 31.8484 27.9505 33.6065L27.9831 33.6806L27.9949 33.879C28.283 32.925 29.477 31.413 30.4481 30.6611C30.9377 30.2819 31.5122 29.9958 32.1336 29.9481C32.7707 29.8993 33.408 30.1055 33.9912 30.6229C34.5139 31.0866 34.9225 31.5793 35.0794 32.1828C35.2394 32.7981 35.1163 33.4418 34.766 34.1601C34.4185 34.8722 33.8267 35.7012 32.981 36.7155C32.371 37.4472 31.558 38.2953 30.6191 39.275L30.6186 39.2754C30.2509 39.659 29.8639 40.0629 29.4621 40.4877L28.4337 41.2157L27.6402 40.5967C24.7234 38.3201 22.47 36.0576 21.46 34.2698C20.9641 33.3921 20.7 32.5096 20.9696 31.7712C21.2561 30.9865 22.0499 30.5862 23.1182 30.466Z" fill="#D50303"/>
<path d="M41.1476 25.1622C40.7903 24.2853 40.2705 23.3005 39.6221 22.43C38.9714 21.5563 38.208 20.8205 37.3709 20.4088C36.5472 20.0037 35.6462 19.9074 34.6686 20.3146C33.6744 20.7287 32.5617 21.6802 31.3756 23.456L30.7316 23.0257C30.7833 22.9482 30.8355 22.8724 30.8872 22.7975L28.585 20.9995L29.0616 20.389L31.343 22.1709C31.652 21.7686 31.96 21.4125 32.2668 21.1L30.9065 17.9464L31.6176 17.6395L32.869 20.5404C33.374 20.116 33.8748 19.8062 34.3708 19.5996C34.4223 19.5781 34.4739 19.5583 34.5252 19.5391L34.5179 16.2446L35.2923 16.2429L35.2994 19.3301C36.1026 19.197 36.864 19.3296 37.5637 19.6439L38.7278 16.8068L39.4443 17.1008L38.2472 20.0182C38.8673 20.4207 39.4252 20.957 39.915 21.5496L41.9926 18.9169L42.6005 19.3968L40.4008 22.1846C40.7824 22.723 41.1169 23.292 41.399 23.8496L44.3273 21.8943L44.7573 22.5384L41.7326 24.5578C41.7787 24.6631 41.823 24.7672 41.8648 24.87L41.1476 25.1622Z" fill="#0B0A0A"/>
<path d="M12.915 24.9549C13.313 24.1 13.8808 23.1431 14.5753 22.3025C15.272 21.4592 16.0792 20.7535 16.9508 20.3705C17.8098 19.993 18.7364 19.9252 19.7192 20.3583C20.7166 20.7978 21.8114 21.7709 22.9478 23.5588L23.6016 23.1432C23.5541 23.0685 23.5062 22.9953 23.4587 22.923L25.8692 21.2185L25.422 20.586L23.0171 22.2865C22.7187 21.8796 22.4194 21.5186 22.1197 21.2006L23.6248 18.134L22.9295 17.7927L21.5349 20.6343C21.0333 20.1945 20.5318 19.8699 20.0316 19.6494C19.9809 19.6271 19.9301 19.6065 19.8797 19.5863L20.0166 16.3404L19.2427 16.3078L19.114 19.359C18.2955 19.1991 17.5103 19.3087 16.7816 19.602L15.7076 16.7633L14.983 17.0373L16.0835 19.9462C15.4337 20.3269 14.8418 20.8434 14.3175 21.4186L12.2993 18.7468L11.6812 19.2137L13.8049 22.025C13.3944 22.5472 13.0307 23.1009 12.7213 23.6449L9.80463 21.6171L9.36249 22.253L12.355 24.3334C12.3057 24.4328 12.258 24.531 12.2128 24.6281L12.915 24.9549Z" fill="#0B0A0A"/>
<path fill-rule="evenodd" clip-rule="evenodd" d="M23.1182 30.466C25.6173 30.1849 27.1807 31.8484 27.9505 33.6065L27.9831 33.6806L27.9949 33.879C28.283 32.925 29.477 31.413 30.4481 30.6611C30.9377 30.2819 31.5122 29.9958 32.1336 29.9481C32.7707 29.8993 33.408 30.1055 33.9912 30.6229C34.5139 31.0866 34.9225 31.5793 35.0794 32.1828C35.2394 32.7981 35.1163 33.4418 34.766 34.1601C34.4185 34.8722 33.8267 35.7012 32.981 36.7155C32.371 37.4472 31.558 38.2953 30.6191 39.275L30.6186 39.2754C30.2509 39.659 29.8639 40.0629 29.4621 40.4877L28.4337 41.2157L27.6402 40.5967C24.7234 38.3201 22.47 36.0576 21.46 34.2698C20.9641 33.3921 20.7 32.5096 20.9696 31.7712C21.2561 30.9865 22.0499 30.5862 23.1182 30.466Z" fill="#F74D4A"/>
<path fill-rule="evenodd" clip-rule="evenodd" d="M39.2697 0.0404072C31.3697 0.640407 25.3113 7.70707 23.2697 11.1654C20.1697 7.96541 16.8113 6.41541 15.5197 6.04041C7.59523 4.34041 2.96782 9.24874 1.64466 11.9154C-1.75534 18.0154 0.894662 25.7071 2.64466 28.7904C13.4447 43.5904 24.5613 50.2904 28.7697 51.7904C40.4697 44.3904 47.0613 33.3737 48.8947 28.7904C53.2947 21.1904 52.728 13.2904 51.8947 10.2904C50.4947 1.29041 42.8947 -0.292926 39.2697 0.0404072ZM14.5753 22.3025C13.8808 23.1431 13.313 24.1 12.915 24.9549L12.2128 24.6281C12.258 24.531 12.3057 24.4328 12.355 24.3334L9.36249 22.253L9.80463 21.6171L12.7213 23.6449C13.0307 23.1009 13.3944 22.5472 13.8049 22.025L11.6812 19.2137L12.2993 18.7468L14.3175 21.4186C14.8418 20.8434 15.4337 20.3269 16.0835 19.9462L14.983 17.0373L15.7076 16.7633L16.7816 19.602C17.5103 19.3087 18.2955 19.1991 19.114 19.359L19.2427 16.3078L20.0166 16.3404L19.8797 19.5863C19.9301 19.6065 19.9809 19.6271 20.0316 19.6494C20.5318 19.8699 21.0333 20.1945 21.5349 20.6343L22.9295 17.7927L23.6248 18.134L22.1197 21.2006C22.4194 21.5186 22.7187 21.8796 23.0171 22.2865L25.422 20.586L25.8692 21.2185L23.4587 22.923C23.5062 22.9953 23.5541 23.0685 23.6016 23.1432L22.9478 23.5588C21.8114 21.7709 20.7166 20.7978 19.7192 20.3583C18.7364 19.9252 17.8098 19.993 16.9508 20.3705C16.0792 20.7535 15.272 21.4592 14.5753 22.3025ZM39.6221 22.43C40.2705 23.3005 40.7903 24.2853 41.1476 25.1622L41.8648 24.87C41.823 24.7672 41.7787 24.6631 41.7326 24.5578L44.7573 22.5384L44.3273 21.8943L41.399 23.8496C41.1169 23.292 40.7824 22.723 40.4008 22.1846L42.6005 19.3968L41.9926 18.9169L39.915 21.5496C39.4252 20.957 38.8673 20.4207 38.2472 20.0182L39.4443 17.1008L38.7278 16.8068L37.5637 19.6439C36.864 19.3296 36.1026 19.197 35.2994 19.3301L35.2923 16.2429L34.5179 16.2446L34.5252 19.5391C34.4739 19.5583 34.4223 19.5781 34.3708 19.5996C33.8748 19.8062 33.374 20.116 32.869 20.5404L31.6176 17.6395L30.9065 17.9464L32.2668 21.1C31.96 21.4125 31.652 21.7686 31.343 22.1709L29.0616 20.389L28.585 20.9995L30.8872 22.7975C30.8355 22.8724 30.7833 22.9482 30.7316 23.0257L31.3756 23.456C32.5617 21.6802 33.6744 20.7287 34.6686 20.3146C35.6462 19.9074 36.5472 20.0037 37.3709 20.4088C38.208 20.8205 38.9714 21.5563 39.6221 22.43ZM27.9505 33.6065C27.1807 31.8484 25.6173 30.1849 23.1182 30.466C22.0499 30.5862 21.2561 30.9865 20.9696 31.7712C20.7 32.5096 20.9641 33.3921 21.46 34.2698C22.47 36.0576 24.7234 38.3201 27.6402 40.5967L28.4337 41.2157L29.4621 40.4877C29.8639 40.0629 30.2509 39.659 30.6186 39.2754L30.6191 39.275C31.558 38.2953 32.371 37.4472 32.981 36.7155C33.8267 35.7012 34.4185 34.8722 34.766 34.1601C35.1163 33.4418 35.2394 32.7981 35.0794 32.1828C34.9225 31.5793 34.5139 31.0866 33.9912 30.6229C33.408 30.1055 32.7707 29.8993 32.1336 29.9481C31.5122 29.9958 30.9377 30.2819 30.4481 30.6611C29.477 31.413 28.283 32.925 27.9949 33.879L27.9831 33.6806L27.9505 33.6065Z" fill="#D3628A"/>
</svg>
