<svg width="365" height="342" viewBox="0 0 365 342" fill="none" xmlns="http://www.w3.org/2000/svg">
<path d="M128.291 210.2C131.828 210.028 133.855 211.273 134.372 213.934C134.372 225.009 134.545 234.806 134.89 290.607V324.451L134.502 333.903L135.278 336.479V336.736C135.278 338.625 134.07 339.998 131.655 340.857C129.413 340.857 127.774 338.281 126.739 333.131L127.256 323.678C126.394 302.474 126.308 279.48 126.998 262.997H126.221C122.944 266.516 119.235 268.276 115.094 268.276H114.318C106.987 268.276 101.811 264.113 98.7924 255.785C98.0161 252.437 97.6279 249.476 97.6279 246.9V246.385C97.6279 229.902 102.544 218.957 112.377 213.548L118.07 212.775L124.151 214.836C124.151 211.745 125.531 210.2 128.291 210.2ZM105.391 246.9C105.391 256.086 108.108 260.679 113.542 260.679H116.388C120.787 260.679 123.375 254.841 124.151 243.166V240.719C124.151 230.932 122.124 224.193 118.07 220.502H117.682C111.386 222.734 108.237 225.953 108.237 230.16C106.34 233.25 105.391 238.83 105.391 246.9Z" fill="#E66A9D"/>
<path d="M37.6388 165.968C41.1501 165.968 42.9057 161.85 42.9057 180.758C43.4195 184.539 43.6765 180.852 43.6765 196.837L43.2911 220.3C45.2608 242.13 47.83 255.022 50.9987 258.976C53.4823 260.695 54.724 262.027 54.724 262.972C54.2102 265.035 53.2253 266.41 51.7695 267.098H50.2279C45.9459 267.098 42.4347 261.425 39.6942 250.08C39.1804 250.252 37.7245 253.776 35.3266 260.652C32.2435 264.949 29.1176 267.098 25.949 267.098C15.0727 267.098 8.60683 252.616 6.55147 223.652L0 174.476C0.856401 172.585 2.05536 171.64 3.59689 171.64C6.59429 171.64 8.09299 175.679 8.09299 183.758L15.8006 240.283C18.5411 253.003 21.9239 259.362 25.949 259.362C30.6592 258.073 33.785 244.666 35.3266 219.14C33.8707 196.537 33.1427 189.696 33.1427 171.476V169.964C33.1427 167.729 34.6414 166.397 37.6388 165.968Z" fill="#E66A9D"/>
<path d="M73.9051 220.273C82.639 220.953 86.1845 231.288 84.5415 251.276L83.5038 262.632C82.9849 265.694 81.4716 267.14 78.9639 266.97C76.6291 266.799 75.5914 265.268 75.8508 262.376L76.7588 250.001C77.9694 235.456 76.6723 228.056 72.8674 227.8C68.8031 227.46 65.863 235.03 64.047 250.511L64.5659 264.29C64.3929 266.076 62.9228 267.012 60.1557 267.097C56.9561 266.842 55.7455 262.334 56.5237 253.573L53.4106 224.356C53.5836 222.399 55.1834 221.336 58.21 221.166C60.0259 221.251 61.1069 223.165 61.4528 226.907L61.9716 227.035C65.863 222.272 69.8408 220.018 73.9051 220.273Z" fill="#E66A9D"/>
<path d="M91.8139 199.486C92.1669 199.486 92.8901 198.354 93.6373 198.015C94.5018 197.624 95.6074 198.047 95.99 198.545C96.2934 198.94 96.5234 199.682 96.4606 200.368C96.409 200.931 96.1665 201.486 96.1076 201.721C96.0488 202.486 95.1077 203.662 93.9902 204.368L91.6279 206.547C90.5125 206.547 90.0681 205.527 89.5201 204.721C88.8862 203.787 87.6668 202.555 87.4615 201.721C87.3746 201.368 87.1249 200.874 87.1086 200.368C87.0879 199.722 87.4106 198.914 87.6968 198.545C88.0073 198.145 89.1811 197.573 89.9906 197.898C90.8384 198.238 91.461 199.486 91.8139 199.486Z" fill="#E66A9D"/>
<path d="M92.5289 215.568C95.4498 215.997 96.2659 220.336 94.9773 228.583C93.9464 235.37 93.7746 246.753 94.4619 262.731C93.1732 265.223 91.498 266.297 89.4362 265.953C87.0308 265.609 86.0428 261.357 86.4724 253.196C86.3006 238.935 87.0308 226.994 88.663 217.372C88.8349 216.083 90.1235 215.482 92.5289 215.568Z" fill="#E66A9D"/>
<path d="M164.202 220.383C166.933 220.383 168.299 223.416 168.299 229.48C168.299 236.411 168.768 244.814 169.707 254.69C172.438 255.903 173.803 257.376 173.803 259.108V259.628C173.803 261.794 172.353 263.137 169.451 263.657C167.573 263.657 165.952 261.837 164.586 258.199C161.002 262.964 157.502 265.346 154.089 265.346C146.493 265.086 141.628 261.231 139.494 253.78C138.726 245.464 138.342 236.627 138.342 227.271V224.802C138.342 221.77 139.708 220.253 142.439 220.253C144.402 220.253 145.597 221.899 146.023 225.192V227.271C144.316 247.889 147.005 257.722 154.089 256.769C158.783 253.564 161.215 249.362 161.386 244.164V240.526L159.849 228.7V227.401C159.849 222.722 161.3 220.383 164.202 220.383Z" fill="#E66A9D"/>
<path d="M186.282 217.629C191.093 217.629 194.358 221.968 196.076 230.644C193.843 240.352 189.246 245.205 182.288 245.205H181.772V245.592C183.147 253.409 186.798 257.318 192.726 257.318C197.279 257.318 200.973 253.409 203.808 245.592L206.643 244.432C208.533 244.432 209.736 245.893 210.251 248.813C210.251 254.14 206.084 259.165 197.751 263.89L191.566 265.051C184.178 265.051 178.636 259.767 174.942 249.2C173.912 244.991 173.397 241.512 173.396 238.763V237.087C173.397 228.324 177.048 221.967 184.35 218.015L186.282 217.629ZM185.51 225.747C184.221 225.747 182.889 228.454 181.515 233.866V234.123L184.35 237.087C185.638 237.087 186.841 235.326 187.958 231.804V229.742C187.528 227.079 186.969 225.747 186.282 225.747H185.51Z" fill="#E66A9D"/>
<path d="M207.573 206.376C208.83 206.427 210.004 207.053 211.093 208.257C210.506 208.808 210.129 208.282 209.962 209.736L209.836 210.714L210.59 232.45C210.171 245.889 210.423 255.743 211.344 262.011L211.596 262.613C210.842 263.566 209.626 264.017 207.95 263.967C204.179 263.817 202.671 260.708 203.425 254.64C202.922 251.33 202.671 244.012 202.671 216.882C202.168 215.228 202.043 213.046 202.294 210.338V210.037C202.713 206.477 204.473 206.276 207.573 206.376Z" fill="#E66A9D"/>
<path d="M217.933 218.502C220.593 218.502 221.922 222.528 221.922 230.58V238.417C221.922 248.61 224.11 253.706 228.485 253.706H228.871C231.874 250.708 233.375 246.683 233.375 241.629V226.597C233.375 223.513 235.263 221.372 239.038 220.172H240.582C242.469 221.629 243.413 222.828 243.413 223.77L241.096 242.4L241.483 251.008V257.175C241.483 289.039 235.949 335.92 224.882 340.717L221.665 341.616C215.317 341.616 209.912 337.034 205.451 327.869L200.947 314.121C201.719 311.894 202.92 310.78 204.55 310.78H205.708C207.338 310.78 209.654 315.92 212.657 326.198C215.66 331.252 218.491 333.779 221.15 333.779C228.442 333.779 232.26 291.652 233.633 260.131L227.971 261.415C219.992 261.415 215.402 253.578 214.201 237.903L213.815 221.329C214.587 219.444 215.96 218.502 217.933 218.502Z" fill="#E66A9D"/>
<path d="M321.505 219.564C326.316 219.565 329.58 223.903 331.298 232.579C329.065 242.287 324.469 247.141 317.51 247.141H316.995V247.527C318.369 255.345 322.02 259.254 327.948 259.254C332.501 259.254 336.195 255.345 339.03 247.527L341.865 246.368C343.755 246.368 344.958 247.828 345.473 250.749C345.473 256.075 341.307 261.101 332.974 265.826L326.789 266.986C319.4 266.986 313.86 261.702 310.166 251.136C309.135 246.926 308.619 243.447 308.619 240.698V239.022C308.619 230.26 312.27 223.903 319.572 219.951L321.505 219.564ZM320.732 227.683C319.443 227.683 318.112 230.389 316.738 235.801V236.059L319.573 239.022C320.861 239.022 322.063 237.261 323.18 233.739V231.678C322.751 229.015 322.193 227.683 321.505 227.683H320.732Z" fill="#E66A9D"/>
<path d="M292.959 165.529C295.451 165.529 296.696 167.162 296.696 170.426V171.54C296.696 182.794 300.176 203.027 307.134 259.383V261.445C307.134 265.482 305.803 267.501 303.14 267.501C300.734 267.158 299.531 265.955 299.531 263.893V261.058C299.531 255.99 297.341 251.563 292.959 220.636C281.104 221.324 275.176 222.269 275.176 223.471L275.563 223.987V224.245C276.68 242.028 277.238 237.688 277.238 252.378V262.687C277.238 266.639 275.735 268.615 272.728 268.615C270.752 268.615 269.678 267.112 269.506 264.105V254.44C269.506 237.258 268.948 241.211 267.831 225.147H267.058C264.91 225.147 263.278 224.202 262.161 222.312V220.25C263.622 218.188 265.254 217.114 267.058 217.028C267.058 210.499 264.867 200.064 260.486 171.715C260.486 169.567 262.118 168.321 265.383 167.978C267.531 167.978 269.163 167.201 270.28 179.658C271.396 185.156 272.857 196.797 274.661 214.58H275.176L292.573 212.905C289.824 190.826 288.449 181.981 288.449 172.359C288.449 167.806 289.953 165.529 292.959 165.529Z" fill="#E66A9D"/>
<path d="M339.485 213.766C341.805 213.766 343.566 216.558 344.769 222.142H345.155C348.42 218.276 351.942 216.343 355.722 216.343C361.907 217.46 365 219.393 365 222.142C364.227 224.547 362.895 225.75 361.005 225.75L356.109 224.204H354.82C349.751 225.149 347.217 235.586 347.217 255.517V261.574C346.702 264.237 345.499 265.568 343.609 265.568C340.86 265.568 339.485 263.936 339.485 260.672V245.724C339.485 234.727 338.111 225.106 335.362 216.858C336.049 214.797 337.424 213.766 339.485 213.766Z" fill="#E66A9D"/>
<rect x="51.3276" y="270.256" width="281.778" height="29.3301" rx="8.38002" fill="white"/>
<path d="M72.412 276.426L64.6185 285.753L64.342 285.099L60.395 289.901L59.5654 286.407L67.6102 276.426H72.412ZM61.6771 276.426V293.018H57.353V276.426H61.6771ZM66.0264 281.906L72.7136 293.018H67.8113L62.7833 284.32L66.0264 281.906ZM84.7005 280.448H89.1252L84.6 293.018H79.4965L74.9713 280.448H79.4714L82.0608 290.027L84.7005 280.448ZM95.2731 278.99C94.4016 278.99 93.7647 278.831 93.3625 278.513C92.977 278.177 92.7843 277.658 92.7843 276.954C92.7843 276.233 92.977 275.714 93.3625 275.395C93.7647 275.06 94.4016 274.892 95.2731 274.892C96.1279 274.892 96.7564 275.06 97.1586 275.395C97.5609 275.714 97.762 276.233 97.762 276.954C97.762 277.658 97.5609 278.177 97.1586 278.513C96.7564 278.831 96.1279 278.99 95.2731 278.99ZM97.41 280.448V293.018H93.1362V280.448H97.41ZM102.966 293.018V280.448H106.788L107.014 284.772L106.536 284.295C106.704 283.39 106.997 282.636 107.416 282.032C107.852 281.429 108.388 280.976 109.025 280.675C109.679 280.356 110.408 280.197 111.212 280.197C112.084 280.197 112.838 280.365 113.475 280.7C114.129 281.035 114.64 281.529 115.008 282.183C115.377 282.837 115.562 283.658 115.562 284.647V293.018H111.288V285.778C111.288 284.907 111.12 284.303 110.785 283.968C110.45 283.633 110.022 283.465 109.503 283.465C109.101 283.465 108.723 283.566 108.371 283.767C108.02 283.951 107.743 284.253 107.542 284.672C107.341 285.091 107.24 285.652 107.24 286.356V293.018H102.966ZM125.696 293.27C124.657 293.27 123.743 293.018 122.956 292.516C122.185 291.996 121.581 291.25 121.146 290.278C120.727 289.306 120.517 288.141 120.517 286.784C120.517 285.376 120.735 284.186 121.171 283.214C121.623 282.242 122.243 281.496 123.031 280.976C123.836 280.457 124.757 280.197 125.797 280.197C126.936 280.197 127.85 280.549 128.537 281.253C129.241 281.94 129.693 282.82 129.894 283.893L129.492 284.42V275.119H133.766V293.018H129.945L129.668 288.745L130.171 289.122C130.07 289.96 129.811 290.689 129.392 291.309C128.989 291.929 128.47 292.415 127.833 292.767C127.213 293.102 126.5 293.27 125.696 293.27ZM127.179 290.127C127.665 290.127 128.076 290.002 128.411 289.75C128.763 289.482 129.031 289.088 129.216 288.569C129.4 288.049 129.492 287.412 129.492 286.658C129.492 285.954 129.4 285.359 129.216 284.873C129.048 284.37 128.788 283.993 128.436 283.742C128.101 283.474 127.69 283.339 127.204 283.339C126.467 283.339 125.88 283.616 125.445 284.169C125.026 284.705 124.816 285.56 124.816 286.733C124.816 287.907 125.026 288.77 125.445 289.323C125.864 289.859 126.442 290.127 127.179 290.127ZM145.48 293.27C144.089 293.27 142.882 293.01 141.86 292.49C140.854 291.971 140.075 291.225 139.522 290.253C138.969 289.281 138.692 288.108 138.692 286.733C138.692 285.359 138.969 284.186 139.522 283.214C140.075 282.242 140.846 281.496 141.835 280.976C142.84 280.457 143.988 280.197 145.279 280.197C146.603 280.197 147.726 280.457 148.648 280.976C149.586 281.479 150.299 282.183 150.785 283.088C151.271 283.976 151.514 284.999 151.514 286.155C151.514 286.457 151.505 286.758 151.488 287.06C151.472 287.362 151.447 287.613 151.413 287.814H141.458V285.527H149.528L147.491 286.306C147.491 285.3 147.307 284.529 146.938 283.993C146.586 283.457 146.033 283.189 145.279 283.189C144.743 283.189 144.282 283.314 143.896 283.566C143.527 283.817 143.243 284.211 143.041 284.747C142.857 285.284 142.765 285.971 142.765 286.809C142.765 287.63 142.874 288.3 143.092 288.82C143.31 289.323 143.62 289.692 144.022 289.926C144.424 290.144 144.91 290.253 145.48 290.253C146.117 290.253 146.62 290.127 146.988 289.876C147.374 289.624 147.659 289.272 147.843 288.82L151.262 289.951C151.028 290.672 150.617 291.284 150.03 291.787C149.461 292.273 148.773 292.641 147.969 292.893C147.181 293.144 146.352 293.27 145.48 293.27ZM156.419 293.018V280.448H160.19L160.366 283.163C160.684 282.225 161.153 281.496 161.773 280.976C162.41 280.457 163.215 280.197 164.187 280.197C164.505 280.197 164.773 280.222 164.991 280.272C165.226 280.323 165.41 280.39 165.544 280.473L165.117 283.993C164.949 283.926 164.731 283.876 164.463 283.842C164.212 283.792 163.902 283.767 163.533 283.767C163.03 283.767 162.561 283.876 162.125 284.094C161.69 284.312 161.338 284.638 161.069 285.074C160.818 285.493 160.692 286.029 160.692 286.683V293.018H156.419ZM169.905 288.694C170.525 288.694 171.037 288.837 171.439 289.122C171.841 289.407 172.134 289.784 172.319 290.253C172.52 290.705 172.62 291.217 172.62 291.787C172.62 292.541 172.453 293.261 172.118 293.949C171.799 294.652 171.372 295.264 170.836 295.784C170.316 296.32 169.746 296.722 169.126 296.991L167.391 295.708C167.861 295.524 168.288 295.289 168.674 295.004C169.076 294.72 169.419 294.409 169.704 294.074C170.006 293.739 170.232 293.395 170.383 293.044L170.257 292.968C170.174 293.035 170.065 293.085 169.931 293.119C169.796 293.152 169.62 293.169 169.403 293.169C169.101 293.169 168.791 293.094 168.472 292.943C168.171 292.792 167.911 292.566 167.693 292.264C167.492 291.962 167.391 291.577 167.391 291.108C167.391 290.571 167.509 290.127 167.743 289.775C167.978 289.423 168.288 289.155 168.674 288.971C169.059 288.786 169.47 288.694 169.905 288.694ZM192.661 293.27C191.404 293.27 190.231 293.069 189.142 292.666C188.069 292.247 187.181 291.652 186.477 290.881L188.488 288.518C188.907 289.055 189.46 289.507 190.147 289.876C190.851 290.228 191.631 290.404 192.485 290.404C193.005 290.404 193.432 290.328 193.768 290.178C194.103 290.027 194.27 289.792 194.27 289.474C194.27 289.239 194.187 289.055 194.019 288.921C193.851 288.77 193.516 288.644 193.013 288.543L191.254 288.191C189.678 287.873 188.555 287.404 187.885 286.784C187.231 286.147 186.904 285.317 186.904 284.295C186.904 283.608 187.114 282.954 187.533 282.334C187.952 281.697 188.597 281.186 189.469 280.8C190.34 280.398 191.455 280.197 192.812 280.197C194.086 280.197 195.209 280.381 196.181 280.75C197.153 281.119 197.924 281.655 198.494 282.359L196.458 284.672C196.055 284.169 195.536 283.775 194.899 283.49C194.262 283.205 193.625 283.063 192.988 283.063C192.586 283.063 192.242 283.105 191.958 283.189C191.689 283.256 191.488 283.356 191.354 283.49C191.22 283.624 191.153 283.792 191.153 283.993C191.153 284.211 191.254 284.404 191.455 284.571C191.673 284.722 192.066 284.856 192.636 284.974L194.924 285.426C196.215 285.661 197.145 286.088 197.715 286.708C198.284 287.328 198.569 288.074 198.569 288.946C198.569 289.767 198.351 290.504 197.916 291.158C197.48 291.812 196.826 292.331 195.955 292.717C195.083 293.085 193.986 293.27 192.661 293.27ZM209.211 280.197C210.535 280.197 211.691 280.457 212.68 280.976C213.685 281.479 214.465 282.225 215.018 283.214C215.588 284.186 215.873 285.359 215.873 286.733C215.873 288.108 215.588 289.289 215.018 290.278C214.465 291.25 213.685 291.996 212.68 292.516C211.691 293.018 210.535 293.27 209.211 293.27C207.92 293.27 206.772 293.018 205.766 292.516C204.761 291.996 203.973 291.25 203.403 290.278C202.85 289.289 202.574 288.108 202.574 286.733C202.574 285.359 202.85 284.186 203.403 283.214C203.973 282.225 204.761 281.479 205.766 280.976C206.772 280.457 207.92 280.197 209.211 280.197ZM209.211 283.239C208.724 283.239 208.305 283.356 207.953 283.591C207.602 283.825 207.333 284.203 207.149 284.722C206.965 285.242 206.872 285.912 206.872 286.733C206.872 287.555 206.965 288.225 207.149 288.745C207.333 289.247 207.602 289.624 207.953 289.876C208.305 290.111 208.724 290.228 209.211 290.228C209.713 290.228 210.141 290.111 210.493 289.876C210.845 289.624 211.113 289.247 211.297 288.745C211.481 288.225 211.574 287.555 211.574 286.733C211.574 285.912 211.481 285.242 211.297 284.722C211.113 284.203 210.845 283.825 210.493 283.591C210.141 283.356 209.713 283.239 209.211 283.239ZM220.791 293.018V280.448H224.612L224.738 282.887C225.14 281.999 225.702 281.328 226.422 280.876C227.16 280.423 228.006 280.197 228.961 280.197C229.9 280.197 230.713 280.406 231.4 280.825C232.087 281.244 232.598 281.865 232.934 282.686C233.202 282.133 233.545 281.672 233.964 281.303C234.4 280.934 234.894 280.658 235.448 280.473C236.001 280.289 236.57 280.197 237.157 280.197C237.995 280.197 238.732 280.365 239.369 280.7C240.006 281.018 240.509 281.513 240.878 282.183C241.263 282.837 241.456 283.658 241.456 284.647V293.018H237.182V285.627C237.182 284.823 237.023 284.261 236.705 283.943C236.403 283.624 235.992 283.465 235.473 283.465C235.054 283.465 234.668 283.574 234.316 283.792C233.981 283.993 233.721 284.303 233.537 284.722C233.353 285.141 233.26 285.669 233.26 286.306V293.018H228.987V285.627C228.987 284.823 228.827 284.261 228.509 283.943C228.19 283.624 227.78 283.465 227.277 283.465C226.892 283.465 226.523 283.566 226.171 283.767C225.836 283.968 225.567 284.286 225.366 284.722C225.165 285.141 225.065 285.694 225.065 286.381V293.018H220.791ZM261.305 293.27C260.266 293.27 259.353 293.018 258.565 292.516C257.794 291.996 257.19 291.25 256.755 290.278C256.336 289.306 256.126 288.141 256.126 286.784C256.126 285.376 256.344 284.186 256.78 283.214C257.232 282.242 257.853 281.496 258.64 280.976C259.445 280.457 260.367 280.197 261.406 280.197C262.545 280.197 263.459 280.549 264.146 281.253C264.85 281.94 265.302 282.82 265.503 283.893L265.101 284.42V275.119H269.375V293.018H265.554L265.277 288.745L265.78 289.122C265.679 289.96 265.42 290.689 265.001 291.309C264.598 291.929 264.079 292.415 263.442 292.767C262.822 293.102 262.11 293.27 261.305 293.27ZM262.788 290.127C263.274 290.127 263.685 290.002 264.02 289.75C264.372 289.482 264.64 289.088 264.825 288.569C265.009 288.049 265.101 287.412 265.101 286.658C265.101 285.954 265.009 285.359 264.825 284.873C264.657 284.37 264.397 283.993 264.045 283.742C263.71 283.474 263.3 283.339 262.813 283.339C262.076 283.339 261.489 283.616 261.054 284.169C260.635 284.705 260.425 285.56 260.425 286.733C260.425 287.907 260.635 288.77 261.054 289.323C261.473 289.859 262.051 290.127 262.788 290.127ZM281.089 293.27C279.698 293.27 278.491 293.01 277.469 292.49C276.463 291.971 275.684 291.225 275.131 290.253C274.578 289.281 274.301 288.108 274.301 286.733C274.301 285.359 274.578 284.186 275.131 283.214C275.684 282.242 276.455 281.496 277.444 280.976C278.449 280.457 279.597 280.197 280.888 280.197C282.212 280.197 283.335 280.457 284.257 280.976C285.195 281.479 285.908 282.183 286.394 283.088C286.88 283.976 287.123 284.999 287.123 286.155C287.123 286.457 287.114 286.758 287.098 287.06C287.081 287.362 287.056 287.613 287.022 287.814H277.067V285.527H285.137L283.1 286.306C283.1 285.3 282.916 284.529 282.547 283.993C282.195 283.457 281.642 283.189 280.888 283.189C280.352 283.189 279.891 283.314 279.505 283.566C279.137 283.817 278.852 284.211 278.651 284.747C278.466 285.284 278.374 285.971 278.374 286.809C278.374 287.63 278.483 288.3 278.701 288.82C278.919 289.323 279.229 289.692 279.631 289.926C280.033 290.144 280.519 290.253 281.089 290.253C281.726 290.253 282.229 290.127 282.598 289.876C282.983 289.624 283.268 289.272 283.452 288.82L286.871 289.951C286.637 290.672 286.226 291.284 285.639 291.787C285.07 292.273 284.382 292.641 283.578 292.893C282.79 293.144 281.961 293.27 281.089 293.27ZM307.869 293.27C306.478 293.27 305.271 293.01 304.249 292.49C303.243 291.971 302.464 291.225 301.911 290.253C301.358 289.281 301.081 288.108 301.081 286.733C301.081 285.359 301.358 284.186 301.911 283.214C302.464 282.242 303.235 281.496 304.224 280.976C305.23 280.457 306.378 280.197 307.668 280.197C308.992 280.197 310.115 280.457 311.037 280.976C311.975 281.479 312.688 282.183 313.174 283.088C313.66 283.976 313.903 284.999 313.903 286.155C313.903 286.457 313.894 286.758 313.878 287.06C313.861 287.362 313.836 287.613 313.802 287.814H303.847V285.527H311.917L309.88 286.306C309.88 285.3 309.696 284.529 309.327 283.993C308.975 283.457 308.422 283.189 307.668 283.189C307.132 283.189 306.671 283.314 306.285 283.566C305.917 283.817 305.632 284.211 305.431 284.747C305.246 285.284 305.154 285.971 305.154 286.809C305.154 287.63 305.263 288.3 305.481 288.82C305.699 289.323 306.009 289.692 306.411 289.926C306.813 290.144 307.299 290.253 307.869 290.253C308.506 290.253 309.009 290.127 309.378 289.876C309.763 289.624 310.048 289.272 310.232 288.82L313.651 289.951C313.417 290.672 313.006 291.284 312.42 291.787C311.85 292.273 311.163 292.641 310.358 292.893C309.57 293.144 308.741 293.27 307.869 293.27ZM318.808 293.018V280.448H322.579L322.755 283.163C323.073 282.225 323.542 281.496 324.163 280.976C324.799 280.457 325.604 280.197 326.576 280.197C326.894 280.197 327.163 280.222 327.38 280.272C327.615 280.323 327.799 280.39 327.934 280.473L327.506 283.993C327.339 283.926 327.121 283.876 326.853 283.842C326.601 283.792 326.291 283.767 325.922 283.767C325.42 283.767 324.95 283.876 324.514 284.094C324.079 284.312 323.727 284.638 323.459 285.074C323.207 285.493 323.081 286.029 323.081 286.683V293.018H318.808Z" fill="#E66A9D"/>
<path d="M172.448 0C229.505 0.000259071 275.759 46.255 275.759 103.312C275.759 160.37 229.505 206.624 172.448 206.624C115.39 206.624 69.1352 160.37 69.135 103.312C69.135 46.2548 115.39 0 172.448 0ZM174.85 154.767C174.85 154.767 163.718 160.745 152.336 165.442C141.124 170.07 129.714 173.401 122.531 175.482C117.339 176.932 135.833 181.987 135.833 181.987C135.833 181.987 130.34 182.495 123.563 181.104C119.864 180.344 117.481 178.699 117.481 178.699C115.453 177.321 114.102 177.71 114.102 177.71C107.522 178.665 131.246 198.249 164.821 201.501C194.839 202.844 211.565 193.738 216.534 191.179C219.005 190.091 218.674 188.377 218.669 188.351C218.029 185.805 205.26 186.83 205.26 186.83C212.693 184.709 226.514 180.036 222.332 178.311C218.776 177.445 215.504 176.226 213.298 175.482C212.251 175.969 205.26 178.558 198.36 178.558C190.491 178.61 182.145 177.186 182.106 177.18C182.158 177.185 198.943 178.798 208.531 174.175C208.458 174.146 195.744 169.108 188.935 164.983C181.177 160.285 174.85 154.767 174.85 154.767ZM265.937 129.385C256.938 134.086 247.556 131.956 242.932 130.188C236.343 127.67 220.056 132.851 213.298 136.197C212.59 137.109 213.59 138.431 216.534 139.813C220.099 141.487 225.462 142.606 225.462 142.606C225.462 142.606 220.017 142.838 216.036 141.581C212.844 140.573 210.701 139.617 209.492 138.852C208.994 138.428 203.053 140.84 181.146 152.575C194.78 165.726 229.099 183.604 238.729 175.023C243.887 170.428 248.815 164.83 252.636 158.762C259.216 149.005 263.872 135.632 265.937 129.385ZM255.162 80.165C255.159 80.1418 254.658 76.9203 251.016 77.3008C251.789 82.0516 248.511 95.0083 246.587 96.4434C242.088 99.7969 232.107 105.037 233.021 112.792C217.697 117.473 204.24 121.555 185.011 125.787C178.363 127.25 169.236 129.716 160.76 130.957C153.015 132.091 148.629 131.18 142.484 131.865C125.715 133.264 123.321 136.046 122.24 136.966C122.364 133.799 131.057 129.923 151.02 128.665C148.489 124.753 143.007 119.303 129.199 111.534C117.08 104.715 110.009 103.011 110.009 103.011C109.967 103.028 93.6794 109.77 77.0403 96.6494C74.2994 108.961 75.4653 143.21 108.463 175.482C112.239 179.175 142.674 165.676 174.281 151.357C202.232 137.035 227.468 126.905 238.729 126.905C241.479 128.28 250.885 132.922 265.495 128.302C266.856 127.871 267.323 125.578 267.042 123.831C266.484 121.89 264.615 121.187 264.586 121.176C264.624 121.172 266.906 120.942 267.537 117.962C267.867 116.407 266.763 115.559 265.425 114.399C266.138 113.82 268.659 114.119 268.94 111.115C268.94 110.353 268.533 109.232 266.902 108.881C265.894 108.664 262.964 108.967 261.068 107.972C258.818 104.618 267.257 95.3256 267.534 94.627C268.237 91.5086 270.135 87.5707 266.902 88.1992C264.586 89.4568 264.584 91.2309 263.528 92.6016C261.412 95.3466 257.507 97.3979 254.6 98.6094C254.875 95.6177 255.779 91.2154 255.725 87.291C255.66 82.5396 255.162 80.165 255.162 80.165ZM98.9856 60.2383C98.792 59.2485 94.0828 59.3545 94.9309 63.4902C95.4649 66.0934 101.961 72.6587 104.57 75.4043C104.57 75.4043 85.0785 65.1876 82.1975 70.4902C80.7271 73.197 81.7794 73.9296 82.4573 74.1279C81.5546 74.0341 79.5694 74.1115 79.0325 76.4648C78.2788 79.7691 80.564 79.922 80.7307 79.9287C80.5305 79.9234 77.2472 79.8816 77.0403 82.8633C76.8191 86.054 79.5305 86.3271 79.5305 86.3271C79.5305 86.3271 76.6087 86.0448 76.3293 89.792C76.1173 92.6412 80.6941 96.6102 80.7395 96.6494C80.7395 96.6494 86.4417 101.041 94.469 102.341C100.088 103.25 110.794 100.892 110.794 100.892C120.433 102.271 155.536 122.667 155.537 129.809C165.034 129.809 186.046 123.799 186.871 122.668C177.604 117.092 164.547 108.033 152.336 100.892C137.256 91.3115 122.531 85.7617 122.531 85.7617C115.845 84.3829 113.39 75.6869 110.794 73.1768C108.198 70.6668 99.4213 62.4654 98.9856 60.2383ZM208.141 12.5498C195.586 7.9895 171.671 1.52741 143.018 9.89844C144.974 24.3216 138.465 37.225 176.664 26.5137C175.135 28.458 162.721 31.0381 159.378 32.0986C161.109 41.2781 167.275 64.7634 175.313 70.4902C175.939 70.9365 170.434 67.3375 166.705 66.1416C163.086 64.9808 156.07 63.915 155.501 63.915C151.067 63.3375 143.777 60.2421 141.203 55.3242C140.981 54.8994 142.998 57.6494 149.349 60.2383C152.342 61.4581 157.094 61.6549 160.695 62.6426C165.211 63.6324 167.808 64.6572 167.808 64.6572C163.931 58.4944 159.876 50.1278 158.204 41.8203C158.176 41.8459 154.189 45.3841 144.298 43.6943C140.118 42.9801 134.635 38.7223 129.823 36.8711C122.348 33.9958 115.939 33.4224 114.28 33.9014C107.842 34.6084 86.0749 50.9761 85.47 67.5557C85.47 67.5557 88.0856 67.3696 90.8411 68.1211C93.2464 68.7771 98.0256 70.7373 98.0256 70.7373C98.0256 70.7373 93.0466 65.8595 93.0461 62.6426C93.2517 58.572 98.2883 56.5198 99.9456 58.7539C103.033 62.9164 111.469 70.704 111.505 70.7373C111.512 70.6967 112.667 64.1544 120.113 61.6523C118.168 62.6893 113.959 67.574 113.959 71.8691C115.097 77.5605 119.65 82.6506 123.563 83.499C126.671 84.1735 154.755 97.6049 165.567 105.912C166.824 106.878 171.102 108.095 174.118 92.1924C173.477 95.9832 171.569 110.919 180.363 115.351L192.392 121.289C196.233 122.279 231.452 112.01 232.107 110.766C231.704 108.397 234.202 102.534 241.681 98.2764C245.344 96.1907 246.546 94.988 247.079 91.3115C246.937 89.5318 243.921 82.0281 241.681 81.0732C243.175 81.5567 248.183 84.5552 248.696 85.5449C249.336 86.7819 250.31 79.2058 249.68 77.3008C248.862 74.8263 253.988 76.2403 255.162 77.3008C257.723 79.6146 256.888 93.5015 256.006 96.4434C258.52 95.807 262.965 90.6445 262.965 90.6445C262.988 90.619 265.249 88.0752 265.003 85.8945C265.347 84.364 263.987 76.0428 260.247 66.2832C257.492 59.0914 253.1 52.5356 249.825 47.4062C246.696 43.0227 243.743 41.8203 243.743 41.8203C239.76 40.2649 232.561 39.8978 225.248 48.4668C224.57 49.2609 217.408 56.5124 212.124 59.4961C207.866 61.9007 199.971 62.9669 195.799 64.6572C189.752 67.1071 187.86 69.856 185.591 71.4443C188.413 67.874 194.15 60.8932 199.213 60.2383C207.963 59.1071 213.369 56.597 225.248 45.3203C220.553 47.3589 210.83 51.1388 209.492 49.9512C208.651 49.204 205.91 41.968 204.619 35.0684C203.347 28.2625 203.517 21.7866 203.517 21.7764C203.441 21.8138 185.56 30.6846 170.866 30.6846C183.671 28.21 203.247 17.2161 208.141 12.5498ZM268.284 95.9072C267.085 97.3227 264.489 101.4 263.341 103.261C261.634 105.488 261.883 107.538 264.586 107.538C266.4 107.538 269.032 107.538 269.423 108.881C269.557 109.34 270.277 99.9019 268.284 95.9072Z" fill="#E66A9D"/>
</svg>
