<svg width="215" height="215" viewBox="0 0 215 215" fill="none" xmlns="http://www.w3.org/2000/svg">
<path d="M107.396 3.05176e-05C166.71 0.000141123 214.793 48.0833 214.793 107.397C214.793 166.71 166.71 214.793 107.396 214.793C48.0832 214.793 7.34581e-05 166.71 0 107.397C0 48.0832 48.0832 3.05176e-05 107.396 3.05176e-05ZM109.895 160.886C109.895 160.886 98.3217 167.101 86.4902 171.983C74.8346 176.794 62.9745 180.256 55.5068 182.42C50.1088 183.927 69.335 189.182 69.335 189.182C69.335 189.182 63.6244 189.709 56.5791 188.263C52.7341 187.473 50.2568 185.764 50.2568 185.764C48.1495 184.331 46.7441 184.735 46.7441 184.735C39.9054 185.728 64.5662 206.086 99.4678 209.467C130.674 210.863 148.061 201.397 153.227 198.736C155.792 197.607 155.451 195.828 155.445 195.797C154.781 193.157 141.562 194.211 141.507 194.216C149.234 192.011 163.601 187.153 159.253 185.359C155.557 184.46 152.155 183.192 149.862 182.42C148.774 182.926 141.506 185.617 134.333 185.617C126.134 185.672 117.437 184.184 117.437 184.184C117.437 184.184 134.925 185.875 144.908 181.061C144.908 181.061 131.634 175.805 124.535 171.506C116.507 166.644 109.953 160.937 109.895 160.886ZM204.582 134.5C195.228 139.387 185.474 137.172 180.668 135.335C173.818 132.716 156.887 138.102 149.862 141.581C149.126 142.529 150.166 143.904 153.227 145.341C156.925 147.077 162.484 148.239 162.507 148.244C162.472 148.246 156.834 148.48 152.709 147.178C149.391 146.13 147.162 145.137 145.906 144.341C145.388 143.9 139.213 146.407 116.438 158.606C130.611 172.277 166.287 190.862 176.298 181.942C181.659 177.165 186.783 171.346 190.755 165.038C197.595 154.896 202.436 140.995 204.582 134.5ZM193.382 83.334C193.376 83.296 192.848 79.9615 189.07 80.3565C189.874 85.2951 186.467 98.766 184.467 100.257C179.79 103.743 169.415 109.19 170.364 117.251C154.435 122.117 140.446 126.36 120.457 130.76C113.547 132.281 104.058 134.844 95.2471 136.134C87.196 137.312 82.6373 136.366 76.249 137.078C58.8163 138.532 56.3277 141.423 55.2041 142.38C55.3329 139.088 64.3704 135.059 85.1221 133.752C82.4915 129.685 76.7914 124.02 62.4385 115.944C49.8522 108.863 42.5045 107.086 42.4902 107.083C42.4902 107.083 25.538 114.128 8.21875 100.471C5.36947 113.269 6.58047 148.872 40.8828 182.42C44.8085 186.258 76.4472 172.226 109.303 157.342C138.359 142.453 164.592 131.922 176.298 131.922C179.157 133.35 188.934 138.177 204.123 133.374C205.537 132.927 206.023 130.542 205.73 128.727C205.15 126.708 203.206 125.977 203.178 125.967C203.201 125.965 205.588 125.734 206.246 122.626C206.588 121.01 205.441 120.128 204.051 118.922C204.792 118.32 207.412 118.631 207.704 115.508C207.704 114.716 207.281 113.55 205.585 113.186C204.538 112.96 201.491 113.275 199.52 112.24C197.181 108.754 205.953 99.0955 206.242 98.3682C206.973 95.1264 208.946 91.033 205.585 91.6866C203.178 92.9938 203.175 94.8369 202.077 96.2617C199.878 99.1154 195.819 101.248 192.797 102.508C193.083 99.3979 194.023 94.8218 193.967 90.7422C193.899 85.8028 193.382 83.334 193.382 83.334ZM31.0303 62.6201C30.829 61.5912 25.9335 61.7014 26.8154 66.001C27.371 68.7073 34.1236 75.5307 36.835 78.3848C36.7395 78.3348 16.5672 67.7776 13.5791 73.2764C12.0504 76.0901 13.1439 76.8523 13.8486 77.0586C12.9101 76.9612 10.8472 77.0412 10.2891 79.4873C9.50524 82.9227 11.8804 83.0809 12.0537 83.0879C11.8456 83.0824 8.4339 83.0393 8.21875 86.1387C7.98856 89.4559 10.8066 89.7403 10.8066 89.7403C10.8066 89.7403 7.76888 89.4465 7.47852 93.3418C7.25726 96.3156 12.0545 100.463 12.0635 100.471C12.0635 100.471 17.9905 105.036 26.335 106.387C32.1665 107.331 43.2712 104.888 43.3057 104.881C53.3256 106.314 89.8161 127.517 89.8174 134.94C99.6892 134.94 121.534 128.694 122.392 127.518C112.758 121.721 99.184 112.305 86.4902 104.881C70.8383 94.9375 55.5543 89.1703 55.5068 89.1524C48.5562 87.7192 46.0047 78.6785 43.3057 76.0694C40.6066 73.4602 31.484 64.9358 31.0303 62.6201ZM144.501 13.0459C131.449 8.30535 106.589 1.58814 76.8037 10.2901C78.837 25.2833 72.0714 38.6963 111.78 27.5616C110.19 29.5827 97.2873 32.2657 93.8115 33.3682C95.611 42.9108 102.019 67.323 110.375 73.2764C111.028 73.7415 105.305 70.0003 101.428 68.7569C97.6657 67.5504 90.3749 66.4418 89.7812 66.4414C85.172 65.8412 77.5931 62.6241 74.918 57.5117C74.6858 57.0681 76.7809 59.9282 83.3848 62.6201C86.4956 63.8881 91.4359 64.0916 95.1787 65.1182C99.8407 66.1398 102.535 67.1978 102.573 67.2129C98.5432 60.8065 94.3285 52.1094 92.5908 43.4737C92.5794 43.4838 88.4398 47.1814 78.1348 45.4209C73.789 44.6785 68.0883 40.2534 63.0859 38.3291C55.3155 35.3401 48.6536 34.7441 46.9287 35.2422C40.2362 35.9777 17.6091 52.9918 16.9805 70.2266C16.9805 70.2266 19.6992 70.0334 22.5635 70.8145C25.0594 71.4952 30.0149 73.5271 30.0322 73.5342C30.0322 73.5342 24.8564 68.4623 24.8564 65.1182C25.0705 60.887 30.3066 58.7538 32.0293 61.0762C35.242 65.4072 44.023 73.514 44.0449 73.5342C44.0449 73.5342 45.2283 66.6991 52.9922 64.0899C50.9708 65.1683 46.5967 70.2454 46.5967 74.71C47.7798 80.6264 52.5121 85.9178 56.5791 86.7998C59.8086 87.5002 89.0042 101.463 100.244 110.099C101.551 111.103 105.998 112.368 109.134 95.8369C108.467 99.7775 106.483 115.304 115.625 119.911L128.13 126.084C132.125 127.112 168.735 116.438 169.415 115.145C168.996 112.682 171.593 106.587 179.367 102.161C183.175 99.9931 184.424 98.7435 184.979 94.9219C184.831 93.0723 181.696 85.271 179.367 84.2784C180.92 84.7809 186.127 87.8979 186.659 88.9268C187.325 90.2128 188.337 82.3366 187.683 80.3565C186.832 77.7843 192.161 79.254 193.382 80.3565C196.044 82.7618 195.176 97.1994 194.259 100.257C196.872 99.5954 201.493 94.2285 201.493 94.2285C201.509 94.2111 203.868 91.5609 203.612 89.2901C203.97 87.699 202.555 79.0488 198.667 68.9034C195.802 61.4274 191.238 54.6123 187.834 49.2803C184.6 44.7511 181.549 43.4888 181.512 43.4737C177.371 41.8567 169.887 41.475 162.285 50.3828C161.581 51.2077 154.135 58.7457 148.643 61.8477C144.216 64.3473 136.009 65.4559 131.672 67.2129C125.386 69.7595 123.419 72.6174 121.061 74.2686C123.994 70.5569 129.958 63.3008 135.221 62.6201C144.316 61.4442 149.936 58.8341 162.285 47.1114C157.405 49.2305 147.297 53.1605 145.906 51.9258C145.032 51.1491 142.182 43.6274 140.841 36.4551C139.523 29.4081 139.693 22.7011 139.694 22.6377C139.587 22.691 121.016 31.8975 105.753 31.8975C119.063 29.3251 139.413 17.8968 144.501 13.0459ZM207.022 99.6992C205.776 101.171 203.078 105.408 201.884 107.343C200.109 109.658 200.368 111.789 203.178 111.789C205.063 111.789 207.799 111.789 208.206 113.186C208.345 113.663 209.093 103.852 207.022 99.6992Z" fill="#E66A9D"/>
</svg>
