<svg width="152" height="43" viewBox="0 0 152 43" fill="none" xmlns="http://www.w3.org/2000/svg">
<g clip-path="url(#clip0_1386_1884)">
<path d="M19.4581 3.94314C12.0679 5.9864 13.3271 3.52505 12.9487 0.773726C18.492 -0.82312 23.1188 0.409574 25.5478 1.27948C24.601 2.16962 20.8137 4.26683 18.3365 4.73887C21.1852 4.73887 24.6533 3.03952 24.6533 3.03952C24.6533 3.03952 24.6202 4.27576 24.8666 5.57505C25.1163 6.8912 25.6466 8.27152 25.8093 8.41404C26.068 8.64062 27.9493 7.91952 28.8576 7.53065C26.5594 9.68181 25.5134 10.1606 23.8207 10.3764C22.8411 10.5013 21.7311 11.833 21.1852 12.5141C21.6241 12.2111 21.9902 11.6867 23.1601 11.2193C23.9673 10.8969 25.4947 10.6935 26.3185 10.2348C27.3408 9.66551 28.7269 8.28188 28.8576 8.13082C30.2724 6.49621 31.6651 6.56634 32.4358 6.86305C32.4358 6.86305 33.007 7.09232 33.6125 7.92851C34.246 8.90697 35.0955 10.1576 35.6287 11.5295C36.3522 13.3912 36.6154 14.9784 36.5489 15.2704C36.5967 15.6885 36.1545 16.1766 36.1545 16.1766C36.1545 16.1766 35.2944 17.1614 34.8082 17.2828C34.9788 16.7217 35.1404 14.0725 34.645 13.6311C34.4179 13.4288 33.426 13.1591 33.5843 13.6311C33.7061 13.9945 33.5177 15.4398 33.3939 15.2038C33.2948 15.0149 32.3257 14.443 32.0367 14.3508C32.4702 14.5329 33.0536 15.9644 33.0811 16.3039C32.9779 17.0052 32.7454 17.2345 32.0367 17.6323C30.5897 18.4446 30.1065 19.5631 30.1845 20.0149C30.0578 20.2523 23.2441 22.2111 22.5009 22.0223L20.1737 20.8894C18.4723 20.044 18.8416 17.1948 18.9656 16.4718C18.382 19.5053 17.5544 19.2732 17.3112 19.0889C15.2194 17.5042 9.78576 14.9421 9.18471 14.8136C8.4278 14.6517 7.54702 13.6807 7.32683 12.595C7.32683 11.7756 8.14108 10.8439 8.51724 10.6461C7.07223 11.1249 6.85204 12.3792 6.85204 12.3792C6.85204 12.3792 5.21435 10.8889 4.6157 10.0932C4.29508 9.66698 3.32054 10.0585 3.28078 10.8349C3.28078 11.4486 4.24412 12.3792 4.24412 12.3792C4.24412 12.3792 3.31949 12.0053 2.85415 11.8802C2.32106 11.7368 1.8151 11.7723 1.8151 11.7723C1.93209 8.6096 6.14329 5.48739 7.38875 5.35252C7.70977 5.26112 8.94961 5.37045 10.3958 5.91897C11.3268 6.27208 12.3876 7.08422 13.1964 7.22045C15.1169 7.54396 15.8869 6.86305 15.8869 6.86305C16.2103 8.44776 16.9947 10.0437 17.7447 11.2193C17.7447 11.2193 17.2424 11.0238 16.3685 10.8349C15.6719 10.6465 14.7525 10.6091 14.1735 10.3764C12.9444 9.8824 12.5545 9.35763 12.5977 9.43904C13.0956 10.3772 14.5061 10.9676 15.3639 11.0777C15.474 11.0777 16.8312 11.2811 17.5314 11.5025C18.253 11.7307 19.3181 12.4173 19.1966 12.332C17.6415 11.2395 16.4488 6.75965 16.1139 5.00861C16.7607 4.8063 19.1622 4.31403 19.4581 3.94314Z" fill="#D3628A"/>
<path d="M36.468 19.3991C35.9451 19.3991 35.8969 19.008 36.2272 18.5831C36.4494 18.2281 36.9517 17.4505 37.1837 17.1805C37.5691 17.9425 37.4298 19.743 37.4039 19.6553C37.3282 19.3991 36.819 19.3991 36.468 19.3991Z" fill="#D3628A"/>
<path d="M0.184318 14.6922C0.225607 14.1055 0.899959 14.1325 0.899959 14.1325C0.899959 14.1325 0.418292 14.1257 0.569658 13.4716C0.673539 13.0227 1.05759 13.0081 1.23223 13.026C1.10107 12.9882 0.897531 12.8484 1.18207 12.332C1.73944 11.3205 5.51023 13.2693 5.51023 13.2693C5.00562 12.7456 3.74877 11.4934 3.64546 10.9968C3.48133 10.2078 4.39244 10.1876 4.4299 10.3764C4.51419 10.8012 6.21209 12.3657 6.71441 12.8445C7.21673 13.3233 7.69157 14.9821 8.98515 15.2451C8.98515 15.2451 11.834 16.3039 14.7515 18.1313C17.1139 19.4936 19.64 21.2217 21.433 22.2853C21.2733 22.5011 17.208 23.6475 15.3708 23.6475C15.3708 22.2853 8.57922 18.3943 6.71441 18.1313C6.71441 18.1313 4.64304 18.5813 3.55604 18.4078C2.00304 18.1599 0.899955 17.3221 0.899955 17.3221C0.899955 17.3221 0.00539894 16.5601 0.0466938 16.0139C0.100734 15.2991 0.666003 15.353 0.666003 15.353C0.666003 15.353 0.141478 15.3009 0.184318 14.6922Z" fill="#D3628A"/>
<path d="M25.8093 25.3724C25.713 25.2915 24.5638 25.7514 20.3251 27.9902C22.9628 30.4988 29.6024 33.9091 31.4655 32.2723C32.4634 31.3957 33.4169 30.3278 34.1561 29.1703C35.4291 27.3091 36.3301 24.7583 36.7295 23.5665C34.9886 24.4634 33.1733 24.057 32.2787 23.7199C31.0039 23.2394 27.853 24.2276 26.5456 24.866C26.4086 25.0399 26.6021 25.2921 27.1717 25.5559C27.8614 25.8752 28.8989 26.0886 28.8989 26.0886C28.8989 26.0886 27.8455 26.1327 27.0754 25.893C26.4578 25.7008 26.0431 25.5185 25.8093 25.3724Z" fill="#D3628A"/>
<path d="M8.98516 32.36C7.98053 32.6365 11.5587 33.6008 11.5587 33.6008C11.5587 33.6008 10.496 33.6976 9.18477 33.4322C8.46914 33.2874 8.0081 32.9736 8.0081 32.9736C7.61588 32.7106 7.3544 32.7848 7.3544 32.7848C6.08141 32.9669 10.6711 36.7028 17.1667 37.3232C22.9744 37.5794 26.2104 35.8422 27.1717 35.3541C27.6534 35.145 27.5847 34.8146 27.5847 34.8146C27.4608 34.3291 24.9905 34.5246 24.9905 34.5246C26.4286 34.12 29.1025 33.2285 28.2934 32.8995C27.6054 32.7343 26.9723 32.5017 26.5456 32.36C26.3429 32.4528 24.9905 32.9467 23.6555 32.9467C22.1296 32.9566 20.5109 32.6837 20.5109 32.6837C20.5109 32.6837 23.7656 32.9939 25.6235 32.1105C25.6235 32.1105 23.1532 31.1462 21.8321 30.3572C20.3312 29.4609 19.1072 28.4083 19.1072 28.4083C19.1072 28.4083 16.9534 29.5488 14.7515 30.4448C12.5822 31.3275 10.375 31.9629 8.98516 32.36Z" fill="#D3628A"/>
<path d="M6.26344 32.36C-0.120545 26.2038 -0.34596 19.6707 0.184318 17.3221C3.40761 19.8283 6.56263 18.5356 6.56263 18.5356C6.56263 18.5356 7.93052 18.8607 10.2752 20.1615C12.9464 21.6434 14.0072 22.6829 14.4968 23.4293C10.6346 23.6692 8.95278 24.4084 8.92889 25.0126C9.138 24.837 9.60104 24.3065 12.8454 24.0397C14.0344 23.9091 14.8828 24.0827 16.3813 23.8665C18.0211 23.6298 19.7869 23.1593 21.073 22.8802C24.7931 22.0729 27.3966 21.2943 30.3612 20.4014C30.1845 18.9221 32.1155 17.9225 32.9859 17.2828C33.3581 17.0092 33.9922 14.5374 33.8426 13.6311C34.5498 13.5583 34.645 14.1776 34.645 14.1776C34.645 14.1776 34.7412 14.6305 34.7538 15.5369C34.7642 16.2855 34.5895 17.1253 34.5362 17.6959C35.0986 17.4648 35.854 17.0735 36.2633 16.5498C36.4677 16.2883 36.468 15.9501 36.9161 15.7102C37.5416 15.5902 37.1744 16.3414 37.0385 16.9363C36.9848 17.0696 35.3522 18.8421 35.7873 19.4818C36.1543 19.6716 36.7212 19.614 36.9161 19.6553C37.2317 19.7223 37.3104 19.9362 37.3104 20.0815C37.256 20.6546 36.7683 20.5974 36.6305 20.7079C36.8893 20.9292 37.1029 21.091 37.0392 21.3876C36.9161 21.9607 36.468 22.0006 36.468 22.0006C36.468 22.0006 36.8345 22.1339 36.9433 22.5071C36.9977 22.8403 36.9073 23.2779 36.6441 23.36C33.8173 24.2414 31.9975 23.3556 31.4655 23.0935C29.2869 23.0935 24.4048 25.0259 18.9971 27.758C12.8823 30.4893 6.99392 33.0644 6.26344 32.36Z" fill="#D3628A"/>
</g>
<path d="M84.1302 12.7613C85.1399 12.7123 85.7186 13.0677 85.8664 13.8276C85.8664 16.9896 85.9157 19.7869 86.0142 35.7195V37.4476L85.9034 40.1464L86.125 40.8817V40.9553C86.125 41.4945 85.7802 41.8867 85.0906 42.1318C84.4503 42.1318 83.9824 41.3965 83.6869 39.9258L83.8346 37.227C83.5883 31.1726 83.5637 32.5422 83.7607 27.836H83.5391C82.6032 28.841 81.5442 29.3435 80.3621 29.3435H80.1405C78.0471 29.3435 76.5694 28.1546 75.7075 25.777C75.4858 24.8211 75.375 23.9754 75.375 23.24V23.093C75.375 18.3867 76.7788 15.2615 79.5863 13.7172L81.2118 13.4966L82.948 14.0849C82.948 13.2025 83.3421 12.7613 84.1302 12.7613ZM77.5915 23.24C77.5915 25.8628 78.3673 27.1742 79.9188 27.1742H80.7315C81.9875 27.1742 82.7264 25.5074 82.948 22.1738V21.4752C82.948 18.6809 82.3693 16.7567 81.2118 15.7027H81.1009C79.3031 16.34 78.4042 17.2592 78.4042 18.4603C77.8624 19.3427 77.5915 20.9359 77.5915 23.24Z" fill="#D3628A"/>
<path d="M58.2468 0.131842C59.2493 0.131842 59.7506 -1.04383 59.7506 4.35483C59.8973 5.43456 59.9707 4.38159 59.9707 8.94591L59.8606 15.6452C60.423 21.8782 61.1566 25.5591 62.0613 26.6879C62.7704 27.1787 63.125 27.559 63.125 27.829C62.9783 28.4179 62.6971 28.8105 62.2814 29.0068H61.8413C60.6186 29.0068 59.6161 27.3872 58.8336 24.148C58.6869 24.1971 58.2712 25.2032 57.5866 27.1664C56.7063 28.3934 55.8138 29.0068 54.909 29.0068C51.8036 29.0068 49.9575 24.872 49.3706 16.6022L47.5 2.56124C47.7445 2.02137 48.0869 1.75144 48.527 1.75144C49.3828 1.75144 49.8107 2.90479 49.8107 5.21149L52.0114 21.3506C52.7939 24.9824 53.7598 26.7983 54.909 26.7983C56.2539 26.4302 57.1464 22.6021 57.5866 15.3139C57.1709 8.86002 56.963 6.90693 56.963 1.70458V1.27292C56.963 0.634899 57.3909 0.254539 58.2468 0.131842Z" fill="#D3628A"/>
<path d="M68.6017 15.6374C71.0954 15.8317 72.1077 18.7824 71.6386 24.4896L71.3423 27.7318C71.1942 28.6061 70.7621 29.019 70.046 28.9704C69.3794 28.9218 69.0831 28.4847 69.1572 27.659L69.4164 24.1253C69.7621 19.9724 69.3917 17.8596 68.3054 17.7867C67.1449 17.6896 66.3054 19.851 65.7869 24.2711L65.9351 28.2054C65.8857 28.7154 65.466 28.9826 64.6759 29.0068C63.7623 28.934 63.4166 27.6468 63.6389 25.1454L62.75 16.8031C62.7994 16.2445 63.2562 15.941 64.1203 15.8924C64.6388 15.9167 64.9475 16.4631 65.0462 17.5317L65.1944 17.5681C66.3054 16.2081 67.4412 15.5645 68.6017 15.6374Z" fill="#D3628A"/>
<path d="M73.7148 9.70216C73.8156 9.70216 74.0221 9.37895 74.2355 9.28232C74.4823 9.1705 74.798 9.29138 74.9072 9.43346C74.9938 9.54617 75.0595 9.75811 75.0416 9.95406C75.0268 10.1147 74.9576 10.2731 74.9408 10.3403C74.924 10.5586 74.6553 10.8945 74.3362 11.096L73.6617 11.7182C73.3432 11.7182 73.2164 11.4272 73.0599 11.1968C72.8789 10.9304 72.5307 10.5784 72.4721 10.3403C72.4473 10.2396 72.376 10.0986 72.3714 9.95406C72.3654 9.76967 72.4576 9.53876 72.5393 9.43346C72.628 9.31918 72.9631 9.15594 73.1942 9.24873C73.4363 9.34591 73.6141 9.70216 73.7148 9.70216Z" fill="#D3628A"/>
<path d="M73.9193 14.2938C74.7532 14.4164 74.9863 15.6552 74.6183 18.0099C74.324 19.9477 74.2749 23.1978 74.4712 27.7601C74.1032 28.4715 73.6249 28.7781 73.0362 28.68C72.3494 28.5819 72.0673 27.3677 72.19 25.0374C72.1409 20.9656 72.3494 17.5561 72.8155 14.8089C72.8645 14.441 73.2325 14.2693 73.9193 14.2938Z" fill="#D3628A"/>
<path d="M94.3836 15.6689C95.1634 15.6689 95.5532 16.5347 95.5532 18.2662C95.5532 20.2451 95.6873 22.6444 95.9553 25.4643C96.7351 25.8106 97.125 26.2311 97.125 26.7259V26.8743C97.125 27.4927 96.7107 27.8761 95.8822 28.0245C95.3461 28.0245 94.8831 27.505 94.4932 26.4661C93.4698 27.8266 92.4707 28.5068 91.4959 28.5068C89.3272 28.4326 87.9382 27.3319 87.329 25.2046C87.1097 22.83 87 20.3069 87 17.6354V16.9305C87 16.0647 87.3899 15.6318 88.1697 15.6318C88.7301 15.6318 89.0713 16.1018 89.1931 17.0418V17.6354C88.7058 23.5226 89.4734 26.3301 91.4959 26.058C92.8362 25.1428 93.5307 23.9431 93.5794 22.4589V21.42L93.1408 18.0436V17.6725C93.1408 16.3368 93.5551 15.6689 94.3836 15.6689Z" fill="#D3628A"/>
<path d="M100.688 14.8823C102.062 14.8826 102.994 16.1212 103.484 18.5981C102.847 21.3697 101.534 22.7562 99.5479 22.7563H99.4004V22.8667C99.7928 25.0985 100.835 26.2142 102.527 26.2144C103.827 26.2144 104.883 25.0988 105.692 22.8667L106.501 22.5356C107.041 22.5356 107.384 22.9526 107.531 23.7866C107.531 25.3073 106.342 26.7423 103.963 28.0913L102.196 28.4224C100.087 28.4222 98.5049 26.9137 97.4502 23.897C97.1559 22.6951 97.0088 21.7014 97.0088 20.9165V20.438C97.0088 17.9363 98.051 16.121 100.136 14.9927L100.688 14.8823ZM100.468 17.2007C100.1 17.2007 99.7196 17.973 99.3271 19.5181V19.5923L100.136 20.438C100.504 20.438 100.847 19.9349 101.166 18.9292V18.3413C101.043 17.5814 100.885 17.2012 100.688 17.2007H100.468Z" fill="#D3628A"/>
<path d="M106.755 0.00887946C107.105 0.0334744 107.432 0.340911 107.735 0.93119C107.572 1.20173 107.467 0.943625 107.42 1.65688L107.385 2.13648L107.595 12.7971C107.478 19.3885 107.548 24.2214 107.805 27.2958L107.875 27.5909C107.665 28.0582 107.327 28.2796 106.86 28.255C105.81 28.1812 105.39 26.6563 105.6 23.6803C105.46 22.0571 105.39 18.4675 105.39 5.16166C105.25 4.35002 105.215 3.28014 105.285 1.95202V1.80445C105.402 0.0582073 105.892 -0.0403104 106.755 0.00887946Z" fill="#D3628A"/>
<path d="M109.725 15.1318C110.484 15.1318 110.864 16.2813 110.864 18.5802V20.818C110.864 23.7283 111.489 25.1835 112.738 25.1835H112.848C113.705 24.3275 114.134 23.178 114.134 21.7351V17.443C114.134 16.5625 114.673 15.9511 115.751 15.6087H116.192C116.731 16.0245 117 16.3669 117 16.6359L116.339 21.9552L116.449 24.4131V26.174C116.449 35.2718 114.869 40.5055 111.709 41.875L110.791 42.1318C108.978 42.1318 107.435 40.8234 106.161 38.2066L104.875 34.2813C105.095 33.6454 105.438 33.3275 105.904 33.3275H106.234C106.7 33.3275 107.361 34.7949 108.219 37.7297C109.076 39.1726 109.884 39.8941 110.644 39.8941C112.726 39.8941 113.816 36.0177 114.208 27.0177L112.591 27.3846C110.313 27.3846 109.002 25.1468 108.659 20.6712L108.549 15.9389C108.77 15.4009 109.162 15.1318 109.725 15.1318Z" fill="#D3628A"/>
<path d="M139.298 15.4351C140.671 15.4353 141.603 16.6739 142.094 19.1509C141.456 21.9226 140.144 23.309 138.157 23.3091H138.01V23.4195C138.402 25.6513 139.445 26.767 141.137 26.7672C142.437 26.7672 143.492 25.6516 144.302 23.4195L145.111 23.0884C145.651 23.0887 145.993 23.5057 146.141 24.3394C146.14 25.8601 144.951 27.2951 142.572 28.6441L140.806 28.9752C138.696 28.975 137.114 27.4665 136.06 24.4498C135.765 23.2479 135.618 22.2542 135.618 21.4693V20.9908C135.618 18.4889 136.661 16.6738 138.746 15.5455L139.298 15.4351ZM139.077 17.7535C138.709 17.7535 138.329 18.5258 137.937 20.0709V20.1451L138.746 20.9908C139.114 20.9905 139.458 20.4874 139.776 19.482V18.8941C139.654 18.134 139.494 17.7538 139.298 17.7535H139.077Z" fill="#D3628A"/>
<path d="M131.147 0.00683594C131.858 0.00683594 132.214 0.472884 132.214 1.40498V1.72296C132.214 4.93623 133.207 10.7133 135.194 26.8043V27.3929C135.194 28.5458 134.814 29.1222 134.054 29.1222C133.367 29.0241 133.023 28.6807 133.023 28.092V27.2826C133.023 25.8354 132.398 24.5716 131.147 15.7412C127.762 15.9374 126.069 16.2072 126.069 16.5506L126.18 16.6978V16.7714C126.499 21.8489 126.658 20.6098 126.658 24.8043V27.7477C126.658 28.876 126.229 29.4402 125.37 29.4402C124.806 29.4402 124.5 29.011 124.451 28.1524V25.3929C124.451 20.4872 124.291 21.6158 123.972 17.029H123.751C123.138 17.029 122.672 16.7591 122.353 16.2195V15.6308C122.77 15.0421 123.236 14.7355 123.751 14.711C123.751 12.8468 123.126 9.86743 121.875 1.77291C121.875 1.15969 122.341 0.804023 123.273 0.705908C123.886 0.705908 124.352 0.484249 124.671 4.04093C124.99 5.61078 125.407 8.93444 125.922 14.0119H126.069L131.037 13.5336C130.252 7.22968 129.859 4.70411 129.859 1.95688C129.859 0.65685 130.288 0.00683594 131.147 0.00683594Z" fill="#D3628A"/>
<path d="M144.431 13.7794C145.094 13.7794 145.596 14.5766 145.94 16.171H146.05C146.982 15.0672 147.988 14.5153 149.067 14.5153C150.833 14.8342 151.716 15.3861 151.716 16.171C151.496 16.8578 151.115 17.2012 150.576 17.2012L149.178 16.7597H148.81C147.362 17.0295 146.639 20.0097 146.639 25.7004V27.4297C146.492 28.1901 146.148 28.5703 145.609 28.5703C144.824 28.5703 144.431 28.1043 144.431 27.1722V22.9041C144.431 19.7645 144.039 17.0172 143.254 14.6625C143.45 14.0738 143.843 13.7794 144.431 13.7794Z" fill="#D3628A"/>
<defs>
<clipPath id="clip0_1386_1884">
<rect width="37.4496" height="37.3488" rx="18.6744" fill="white"/>
</clipPath>
</defs>
</svg>
