<svg width="152" height="43" viewBox="0 0 152 43" fill="none" xmlns="http://www.w3.org/2000/svg">
<path d="M18.75 0C29.1053 0 37.5 8.39467 37.5 18.75C37.5 29.1053 29.1053 37.5 18.75 37.5C8.39466 37.5 0 29.1053 0 18.75C6.93585e-06 8.39467 8.39467 1.32429e-07 18.75 0ZM19.1865 28.0889C19.1865 28.0889 17.1652 29.1739 15.0996 30.0264C13.0648 30.8661 10.9941 31.4708 9.69043 31.8486C8.75627 32.11 12.057 33.0153 12.1045 33.0283C12.081 33.0304 11.0932 33.1176 9.87793 32.8682C9.20667 32.7304 8.77441 32.4316 8.77441 32.4316C8.41318 32.186 8.16985 32.2496 8.16113 32.252C6.96695 32.4252 11.2727 35.9801 17.3662 36.5703C22.8131 36.814 25.8485 35.1621 26.751 34.6973C27.1993 34.4999 27.1396 34.1884 27.1387 34.1836C27.0225 33.7217 24.7051 33.9072 24.7051 33.9072C26.0541 33.5223 28.5625 32.6744 27.8037 32.3613C27.1584 32.2043 26.5644 31.9835 26.1641 31.8486C25.9736 31.9371 24.7051 32.4062 23.4531 32.4062C22.0249 32.4157 20.5097 32.1574 20.5029 32.1562C20.5102 32.157 23.5581 32.4498 25.2988 31.6104C25.2682 31.5982 22.9733 30.688 21.7422 29.9424C20.35 29.0992 19.2116 28.1107 19.1865 28.0889ZM35.7178 23.4814C34.0847 24.3347 32.3811 23.9487 31.542 23.6279C30.3461 23.1709 27.3906 24.1104 26.1641 24.7178C26.0356 24.8832 26.2168 25.1241 26.751 25.375C27.3979 25.6788 28.3721 25.8818 28.3721 25.8818C28.3721 25.8818 27.3836 25.9234 26.6611 25.6953C26.0821 25.5125 25.693 25.3391 25.4736 25.2002C25.3833 25.1232 24.305 25.5606 20.3291 27.6904C22.8036 30.0771 29.0315 33.3219 30.7793 31.7646C31.7154 30.9306 32.6103 29.9147 33.3037 28.8135C34.4978 27.0427 35.3431 24.6153 35.7178 23.4814ZM33.0098 14.0293C33.15 14.8916 32.5552 17.2433 32.2061 17.5039C31.3896 18.1125 29.5773 19.0632 29.7432 20.4707C26.9622 21.3202 24.5199 22.061 21.0303 22.8291C19.8238 23.0946 18.1672 23.5424 16.6289 23.7676C15.2235 23.9733 14.4276 23.8074 13.3125 23.9316C10.269 24.1854 9.83386 24.6904 9.6377 24.8574C9.66063 24.2827 11.2389 23.5798 14.8613 23.3516C14.4021 22.6415 13.407 21.6521 10.9014 20.2422C8.70184 19.0046 7.41797 18.6953 7.41797 18.6953C7.39005 18.7068 4.44395 19.9141 1.43457 17.541C0.937175 19.7756 1.14911 25.9917 7.1377 31.8486C7.8243 32.5178 13.3476 30.068 19.083 27.4697C24.1558 24.8704 28.7356 23.0322 30.7793 23.0322C31.2785 23.2817 32.9861 24.1237 35.6377 23.2852C35.8843 23.2067 35.969 22.7904 35.918 22.4736C35.8158 22.1188 35.4717 21.9922 35.4717 21.9922C35.4717 21.9922 35.8922 21.9541 36.0078 21.4092C36.0676 21.127 35.8678 20.9722 35.625 20.7617C35.755 20.6571 36.2117 20.7106 36.2627 20.166C36.2626 20.0278 36.1884 19.8244 35.8926 19.7607C35.7098 19.7214 35.1782 19.7761 34.834 19.5957C34.4259 18.9873 35.9552 17.302 36.0068 17.1738C36.1344 16.6079 36.4791 15.8929 35.8926 16.0068C35.4725 16.235 35.4717 16.5569 35.2803 16.8057C34.8964 17.3038 34.1877 17.6766 33.6602 17.8965C33.7102 17.3536 33.874 16.5549 33.8643 15.8428C33.8524 14.9804 33.7617 14.5488 33.7617 14.5488C33.7593 14.5339 33.6641 13.9612 33.0098 14.0293ZM5.41797 10.9326C5.38283 10.753 4.52803 10.7722 4.68164 11.5225C4.77852 11.9948 5.95707 13.1861 6.43066 13.6846C6.38701 13.6617 2.89124 11.8373 2.37109 12.793C2.10417 13.2843 2.29493 13.4171 2.41797 13.4531C2.25414 13.4361 1.89335 13.4508 1.7959 13.8779C1.65429 14.4997 2.10645 14.5059 2.10645 14.5059C2.10645 14.5059 1.4733 14.4809 1.43457 15.0391C1.39462 15.6179 1.88672 15.667 1.88672 15.667C1.88672 15.667 1.35649 15.6161 1.30566 16.2959C1.26693 16.8156 2.10645 17.541 2.10645 17.541C2.12524 17.5554 3.15422 18.3405 4.59766 18.5742C5.61592 18.7391 7.5551 18.3117 7.56055 18.3105C9.30976 18.5607 15.6796 22.2623 15.6807 23.5586C17.4042 23.5586 21.2184 22.468 21.3682 22.2627C19.6862 21.2507 17.3158 19.6067 15.0996 18.3105C12.3629 16.572 9.69043 15.5645 9.69043 15.5645C8.47741 15.314 8.03164 13.737 7.56055 13.2812C7.08937 12.8258 5.49731 11.337 5.41797 10.9326ZM25.2285 2.27734C22.9499 1.44971 18.6093 0.27768 13.4092 1.79688C13.764 4.41435 12.5833 6.75541 19.5156 4.81152C19.2381 5.16439 16.9847 5.63272 16.3779 5.8252C16.6921 7.49117 17.8117 11.7536 19.2705 12.793C19.383 12.8732 18.3845 12.2209 17.708 12.0039C17.0515 11.7934 15.7796 11.5999 15.6748 11.5996C14.8702 11.4948 13.5473 10.9334 13.0801 10.041C13.0395 9.96356 13.4048 10.4627 14.5576 10.9326C15.1007 11.154 15.9637 11.1899 16.6172 11.3691C17.4368 11.5488 17.9082 11.7344 17.9082 11.7344C17.2046 10.6159 16.4684 9.09754 16.165 7.58984C16.1601 7.59428 15.4368 8.2363 13.6416 7.92969C12.8829 7.80007 11.887 7.02736 11.0137 6.69141C9.65763 6.16984 8.49488 6.06553 8.19336 6.15234C7.025 6.28066 3.07459 9.25172 2.96484 12.2607C2.97625 12.26 3.44548 12.2286 3.93945 12.3633C4.37269 12.4814 5.23015 12.8326 5.24316 12.8379C5.23012 12.8251 4.34013 11.9487 4.33984 11.3691C4.37714 10.6304 5.29099 10.2577 5.5918 10.6631C6.14934 11.4147 7.66763 12.8177 7.68945 12.8379C7.69206 12.8231 7.90488 11.6421 9.25195 11.1895C8.89914 11.3776 8.13504 12.2636 8.13477 13.043C8.34132 14.0759 9.16788 15.0003 9.87793 15.1543C10.4417 15.2766 15.5384 17.7139 17.501 19.2217C17.7292 19.397 18.5062 19.6176 19.0537 16.7314C18.9374 17.4193 18.5907 20.1301 20.1865 20.9346L22.3701 22.0127C23.069 22.1916 29.4584 20.3283 29.5771 20.1025C29.5043 19.6725 29.9584 18.6085 31.3154 17.8359C31.98 17.4575 32.1981 17.2393 32.2949 16.5723C32.2691 16.2494 31.7221 14.8875 31.3154 14.7139C31.5868 14.8018 32.4944 15.3456 32.5879 15.5254C32.7041 15.7499 32.8809 14.375 32.7666 14.0293C32.6182 13.5803 33.5485 13.8368 33.7617 14.0293C34.2265 14.4492 34.0751 16.9701 33.915 17.5039C34.3671 17.3894 35.1636 16.4675 35.1777 16.4512C35.1777 16.4512 35.5927 15.9866 35.5479 15.5889C35.6102 15.3111 35.3633 13.8006 34.6846 12.0293C34.1844 10.7242 33.3872 9.53434 32.793 8.60352C32.225 7.80819 31.6895 7.58984 31.6895 7.58984C30.9665 7.30759 29.6601 7.24095 28.333 8.7959C28.2104 8.93961 26.9102 10.2562 25.9512 10.7979C25.1784 11.2342 23.7455 11.4276 22.9883 11.7344C21.8908 12.179 21.5475 12.6785 21.1357 12.9668C21.6478 12.3189 22.6886 11.0517 23.6074 10.9326C25.1953 10.7273 26.1772 10.2721 28.333 8.22559C27.481 8.59553 25.7167 9.28072 25.4736 9.06543C25.321 8.92983 24.8231 7.61646 24.5889 6.36426C24.3577 5.12819 24.3887 3.95215 24.3887 3.95215C24.3623 3.96524 21.1244 5.56934 18.4629 5.56934C20.7867 5.12023 24.3403 3.12423 25.2285 2.27734ZM36.1436 17.4062C35.926 17.6631 35.4546 18.4023 35.2461 18.7402C34.9364 19.1443 34.9816 19.5164 35.4717 19.5166C35.8008 19.5166 36.2785 19.5171 36.3496 19.7607C36.3739 19.8441 36.5051 18.1313 36.1436 17.4062Z" fill="#E66A9D"/>
<path d="M84.1302 12.7613C85.1399 12.7123 85.7186 13.0677 85.8664 13.8276C85.8664 16.9896 85.9157 19.7869 86.0142 35.7195V37.4476L85.9034 40.1464L86.125 40.8817V40.9553C86.125 41.4945 85.7802 41.8867 85.0906 42.1318C84.4503 42.1318 83.9824 41.3965 83.6869 39.9258L83.8346 37.227C83.5883 31.1726 83.5637 32.5422 83.7607 27.836H83.5391C82.6032 28.841 81.5442 29.3435 80.3621 29.3435H80.1405C78.0471 29.3435 76.5694 28.1546 75.7075 25.777C75.4858 24.8211 75.375 23.9754 75.375 23.24V23.093C75.375 18.3867 76.7788 15.2615 79.5863 13.7172L81.2118 13.4966L82.948 14.0849C82.948 13.2025 83.3421 12.7613 84.1302 12.7613ZM77.5915 23.24C77.5915 25.8628 78.3673 27.1742 79.9188 27.1742H80.7315C81.9875 27.1742 82.7264 25.5074 82.948 22.1738V21.4752C82.948 18.6809 82.3693 16.7567 81.2118 15.7027H81.1009C79.3031 16.34 78.4042 17.2592 78.4042 18.4603C77.8624 19.3427 77.5915 20.9359 77.5915 23.24Z" fill="#E66A9D"/>
<path d="M58.2468 0.131842C59.2493 0.131842 59.7506 -1.04383 59.7506 4.35483C59.8973 5.43456 59.9707 4.38159 59.9707 8.94591L59.8606 15.6452C60.423 21.8782 61.1566 25.5591 62.0613 26.6879C62.7704 27.1787 63.125 27.559 63.125 27.829C62.9783 28.4179 62.6971 28.8105 62.2814 29.0068H61.8413C60.6186 29.0068 59.6161 27.3872 58.8336 24.148C58.6869 24.1971 58.2712 25.2032 57.5866 27.1664C56.7063 28.3934 55.8138 29.0068 54.909 29.0068C51.8036 29.0068 49.9575 24.872 49.3706 16.6022L47.5 2.56124C47.7445 2.02137 48.0869 1.75144 48.527 1.75144C49.3828 1.75144 49.8107 2.90479 49.8107 5.21149L52.0114 21.3506C52.7939 24.9824 53.7598 26.7983 54.909 26.7983C56.2539 26.4302 57.1464 22.6021 57.5866 15.3139C57.1709 8.86002 56.963 6.90693 56.963 1.70458V1.27292C56.963 0.634899 57.3909 0.254539 58.2468 0.131842Z" fill="#E66A9D"/>
<path d="M68.6017 15.6374C71.0954 15.8317 72.1077 18.7824 71.6386 24.4896L71.3423 27.7318C71.1942 28.6061 70.7621 29.019 70.046 28.9704C69.3794 28.9218 69.0831 28.4847 69.1572 27.659L69.4164 24.1253C69.7621 19.9724 69.3917 17.8596 68.3054 17.7867C67.1449 17.6896 66.3054 19.851 65.7869 24.2711L65.9351 28.2054C65.8857 28.7154 65.466 28.9826 64.6759 29.0068C63.7623 28.934 63.4166 27.6468 63.6389 25.1454L62.75 16.8031C62.7994 16.2445 63.2562 15.941 64.1203 15.8924C64.6388 15.9167 64.9475 16.4631 65.0462 17.5317L65.1944 17.5681C66.3054 16.2081 67.4412 15.5645 68.6017 15.6374Z" fill="#E66A9D"/>
<path d="M73.7148 9.70216C73.8156 9.70216 74.0221 9.37895 74.2355 9.28232C74.4823 9.1705 74.798 9.29138 74.9072 9.43346C74.9938 9.54617 75.0595 9.75811 75.0416 9.95406C75.0268 10.1147 74.9576 10.2731 74.9408 10.3403C74.924 10.5586 74.6553 10.8945 74.3362 11.096L73.6617 11.7182C73.3432 11.7182 73.2164 11.4272 73.0599 11.1968C72.8789 10.9304 72.5307 10.5784 72.4721 10.3403C72.4473 10.2396 72.376 10.0986 72.3714 9.95406C72.3654 9.76967 72.4576 9.53876 72.5393 9.43346C72.628 9.31918 72.9631 9.15594 73.1942 9.24873C73.4363 9.34591 73.6141 9.70216 73.7148 9.70216Z" fill="#E66A9D"/>
<path d="M73.9193 14.2938C74.7532 14.4164 74.9863 15.6552 74.6183 18.0099C74.324 19.9477 74.2749 23.1978 74.4712 27.7601C74.1032 28.4715 73.6249 28.7781 73.0362 28.68C72.3494 28.5819 72.0673 27.3677 72.19 25.0374C72.1409 20.9656 72.3494 17.5561 72.8155 14.8089C72.8645 14.441 73.2325 14.2693 73.9193 14.2938Z" fill="#E66A9D"/>
<path d="M94.3836 15.6689C95.1634 15.6689 95.5532 16.5347 95.5532 18.2662C95.5532 20.2451 95.6873 22.6444 95.9553 25.4643C96.7351 25.8106 97.125 26.2311 97.125 26.7259V26.8743C97.125 27.4927 96.7107 27.8761 95.8822 28.0245C95.3461 28.0245 94.8831 27.505 94.4932 26.4661C93.4698 27.8266 92.4707 28.5068 91.4959 28.5068C89.3272 28.4326 87.9382 27.3319 87.329 25.2046C87.1097 22.83 87 20.3069 87 17.6354V16.9305C87 16.0647 87.3899 15.6318 88.1697 15.6318C88.7301 15.6318 89.0713 16.1018 89.1931 17.0418V17.6354C88.7058 23.5226 89.4734 26.3301 91.4959 26.058C92.8362 25.1428 93.5307 23.9431 93.5794 22.4589V21.42L93.1408 18.0436V17.6725C93.1408 16.3368 93.5551 15.6689 94.3836 15.6689Z" fill="#E66A9D"/>
<path d="M100.688 14.8823C102.062 14.8826 102.994 16.1212 103.484 18.5981C102.847 21.3697 101.534 22.7562 99.5479 22.7563H99.4004V22.8667C99.7928 25.0985 100.835 26.2142 102.527 26.2144C103.827 26.2144 104.883 25.0988 105.692 22.8667L106.501 22.5356C107.041 22.5356 107.384 22.9526 107.531 23.7866C107.531 25.3073 106.342 26.7423 103.963 28.0913L102.196 28.4224C100.087 28.4222 98.5049 26.9137 97.4502 23.897C97.1559 22.6951 97.0088 21.7014 97.0088 20.9165V20.438C97.0088 17.9363 98.051 16.121 100.136 14.9927L100.688 14.8823ZM100.468 17.2007C100.1 17.2007 99.7196 17.973 99.3271 19.5181V19.5923L100.136 20.438C100.504 20.438 100.847 19.9349 101.166 18.9292V18.3413C101.043 17.5814 100.885 17.2012 100.688 17.2007H100.468Z" fill="#E66A9D"/>
<path d="M106.755 0.00887946C107.105 0.0334744 107.432 0.340911 107.735 0.93119C107.572 1.20173 107.467 0.943625 107.42 1.65688L107.385 2.13648L107.595 12.7971C107.478 19.3885 107.548 24.2214 107.805 27.2958L107.875 27.5909C107.665 28.0582 107.327 28.2796 106.86 28.255C105.81 28.1812 105.39 26.6563 105.6 23.6803C105.46 22.0571 105.39 18.4675 105.39 5.16166C105.25 4.35002 105.215 3.28014 105.285 1.95202V1.80445C105.402 0.0582073 105.892 -0.0403104 106.755 0.00887946Z" fill="#E66A9D"/>
<path d="M109.725 15.1318C110.484 15.1318 110.864 16.2813 110.864 18.5802V20.818C110.864 23.7283 111.489 25.1835 112.738 25.1835H112.848C113.705 24.3275 114.134 23.178 114.134 21.7351V17.443C114.134 16.5625 114.673 15.9511 115.751 15.6087H116.192C116.731 16.0245 117 16.3669 117 16.6359L116.339 21.9552L116.449 24.4131V26.174C116.449 35.2718 114.869 40.5055 111.709 41.875L110.791 42.1318C108.978 42.1318 107.435 40.8234 106.161 38.2066L104.875 34.2813C105.095 33.6454 105.438 33.3275 105.904 33.3275H106.234C106.7 33.3275 107.361 34.7949 108.219 37.7297C109.076 39.1726 109.884 39.8941 110.644 39.8941C112.726 39.8941 113.816 36.0177 114.208 27.0177L112.591 27.3846C110.313 27.3846 109.002 25.1468 108.659 20.6712L108.549 15.9389C108.77 15.4009 109.162 15.1318 109.725 15.1318Z" fill="#E66A9D"/>
<path d="M139.298 15.4351C140.671 15.4353 141.603 16.6739 142.094 19.1509C141.456 21.9226 140.144 23.309 138.157 23.3091H138.01V23.4195C138.402 25.6513 139.445 26.767 141.137 26.7672C142.437 26.7672 143.492 25.6516 144.302 23.4195L145.111 23.0884C145.651 23.0887 145.993 23.5057 146.141 24.3394C146.14 25.8601 144.951 27.2951 142.572 28.6441L140.806 28.9752C138.696 28.975 137.114 27.4665 136.06 24.4498C135.765 23.2479 135.618 22.2542 135.618 21.4693V20.9908C135.618 18.4889 136.661 16.6738 138.746 15.5455L139.298 15.4351ZM139.077 17.7535C138.709 17.7535 138.329 18.5258 137.937 20.0709V20.1451L138.746 20.9908C139.114 20.9905 139.458 20.4874 139.776 19.482V18.8941C139.654 18.134 139.494 17.7538 139.298 17.7535H139.077Z" fill="#E66A9D"/>
<path d="M131.147 0.00683594C131.858 0.00683594 132.214 0.472884 132.214 1.40498V1.72296C132.214 4.93623 133.207 10.7133 135.194 26.8043V27.3929C135.194 28.5458 134.814 29.1222 134.054 29.1222C133.367 29.0241 133.023 28.6807 133.023 28.092V27.2826C133.023 25.8354 132.398 24.5716 131.147 15.7412C127.762 15.9374 126.069 16.2072 126.069 16.5506L126.18 16.6978V16.7714C126.499 21.8489 126.658 20.6098 126.658 24.8043V27.7477C126.658 28.876 126.229 29.4402 125.37 29.4402C124.806 29.4402 124.5 29.011 124.451 28.1524V25.3929C124.451 20.4872 124.291 21.6158 123.972 17.029H123.751C123.138 17.029 122.672 16.7591 122.353 16.2195V15.6308C122.77 15.0421 123.236 14.7355 123.751 14.711C123.751 12.8468 123.126 9.86743 121.875 1.77291C121.875 1.15969 122.341 0.804023 123.273 0.705908C123.886 0.705908 124.352 0.484249 124.671 4.04093C124.99 5.61078 125.407 8.93444 125.922 14.0119H126.069L131.037 13.5336C130.252 7.22968 129.859 4.70411 129.859 1.95688C129.859 0.65685 130.288 0.00683594 131.147 0.00683594Z" fill="#E66A9D"/>
<path d="M144.431 13.7794C145.094 13.7794 145.596 14.5766 145.94 16.171H146.05C146.982 15.0672 147.988 14.5153 149.067 14.5153C150.833 14.8342 151.716 15.3861 151.716 16.171C151.496 16.8578 151.115 17.2012 150.576 17.2012L149.178 16.7597H148.81C147.362 17.0295 146.639 20.0097 146.639 25.7004V27.4297C146.492 28.1901 146.148 28.5703 145.609 28.5703C144.824 28.5703 144.431 28.1043 144.431 27.1722V22.9041C144.431 19.7645 144.039 17.0172 143.254 14.6625C143.45 14.0738 143.843 13.7794 144.431 13.7794Z" fill="#E66A9D"/>
</svg>
