<svg width="22" height="23" viewBox="0 0 22 23" fill="none" xmlns="http://www.w3.org/2000/svg">
<path d="M21.2149 5.21807L11.7247 0.181108C11.5028 0.0623112 11.2535 0 11 0C10.7465 0 10.4972 0.0623112 10.2753 0.181108L0.785098 5.21807C0.547633 5.34402 0.349466 5.52955 0.211345 5.75522C0.0732232 5.9809 0.000227406 6.23842 0 6.50083V16.4995C0.000227406 16.7619 0.0732232 17.0194 0.211345 17.2451C0.349466 17.4707 0.547633 17.6563 0.785098 17.7822L10.2753 22.8192C10.4972 22.9378 10.7466 23 11 23C11.2534 23 11.5028 22.9378 11.7247 22.8192L21.2149 17.7822C21.4524 17.6563 21.6505 17.4707 21.7887 17.2451C21.9268 17.0194 21.9998 16.7619 22 16.4995V6.50083C21.9998 6.23842 21.9268 5.9809 21.7887 5.75522C21.6505 5.52955 21.4524 5.34402 21.2149 5.21807ZM10.8922 1.28092C10.9239 1.26408 10.9595 1.25526 10.9957 1.25526C11.0319 1.25526 11.0675 1.26408 11.0992 1.28092L20.1138 6.06383L16.4536 8.00522L7.33873 3.16899L10.8922 1.28092ZM10.3529 21.4319L1.40196 16.6824C1.36889 16.6639 1.34147 16.6372 1.32253 16.6051C1.30358 16.5729 1.29378 16.5365 1.29412 16.4995V7.17828L10.3529 11.9873V21.4319ZM1.88618 6.06383L5.99176 3.88408L15.1056 8.72031L11 10.898L1.88618 6.06383ZM20.7059 16.4995C20.7062 16.5365 20.6964 16.5729 20.6775 16.6051C20.6585 16.6372 20.6311 16.6639 20.598 16.6824L11.6471 21.4319V11.9852L15.5294 9.92466V14.0092C15.5294 14.1756 15.5976 14.3351 15.7189 14.4528C15.8403 14.5704 16.0049 14.6365 16.1765 14.6365C16.3481 14.6365 16.5127 14.5704 16.634 14.4528C16.7554 14.3351 16.8235 14.1756 16.8235 14.0092V9.23885L20.7059 7.17828V16.4995Z" fill="#151515"/>
</svg>
