<svg width="32" height="32" viewBox="0 0 32 32" fill="none" xmlns="http://www.w3.org/2000/svg">
<path d="M12.234 14.433C11.1895 13.3886 10.6673 12.133 10.6673 10.6663C10.6673 9.19967 11.1895 7.94412 12.234 6.89967C13.2784 5.85523 14.534 5.33301 16.0007 5.33301C17.4673 5.33301 18.7229 5.85523 19.7673 6.89967C20.8118 7.94412 21.334 9.19967 21.334 10.6663C21.334 12.133 20.8118 13.3886 19.7673 14.433C18.7229 15.4775 17.4673 15.9997 16.0007 15.9997C14.534 15.9997 13.2784 15.4775 12.234 14.433ZM5.33398 26.6663V22.933C5.33398 22.1775 5.52865 21.4832 5.91798 20.8503C6.30732 20.2175 6.82376 19.7339 7.46732 19.3997C8.8451 18.7108 10.2451 18.1943 11.6673 17.8503C13.0895 17.5063 14.534 17.3339 16.0007 17.333C17.4673 17.3321 18.9118 17.5046 20.334 17.8503C21.7562 18.1961 23.1562 18.7126 24.534 19.3997C25.1784 19.733 25.6953 20.2166 26.0847 20.8503C26.474 21.4841 26.6682 22.1783 26.6673 22.933V26.6663H5.33398ZM8.00065 23.9997H24.0007V22.933C24.0007 22.6886 23.9398 22.4663 23.818 22.2663C23.6962 22.0663 23.5349 21.9108 23.334 21.7997C22.134 21.1997 20.9229 20.7499 19.7007 20.4503C18.4784 20.1508 17.2451 20.0006 16.0007 19.9997C14.7562 19.9988 13.5229 20.149 12.3007 20.4503C11.0784 20.7517 9.86732 21.2015 8.66732 21.7997C8.46732 21.9108 8.30598 22.0663 8.18332 22.2663C8.06065 22.4663 7.99976 22.6886 8.00065 22.933V23.9997ZM17.8847 12.5503C18.4064 12.0277 18.6673 11.3997 18.6673 10.6663C18.6673 9.93301 18.4064 9.30545 17.8847 8.78367C17.3629 8.2619 16.7349 8.00056 16.0007 7.99967C15.2664 7.99879 14.6389 8.26012 14.118 8.78367C13.5971 9.30723 13.3358 9.93479 13.334 10.6663C13.3322 11.3979 13.5935 12.0259 14.118 12.5503C14.6424 13.0748 15.27 13.3357 16.0007 13.333C16.7313 13.3303 17.3593 13.0695 17.8847 12.5503Z" fill="#D3628A"/>
</svg>
