<svg width="32" height="32" viewBox="0 0 32 32" fill="none" xmlns="http://www.w3.org/2000/svg">
<path d="M12.234 14.4331C11.1895 13.3887 10.6673 12.1331 10.6673 10.6665C10.6673 9.1998 11.1895 7.94424 12.234 6.8998C13.2784 5.85535 14.534 5.33313 16.0007 5.33313C17.4673 5.33313 18.7229 5.85535 19.7673 6.8998C20.8118 7.94424 21.334 9.1998 21.334 10.6665C21.334 12.1331 20.8118 13.3887 19.7673 14.4331C18.7229 15.4776 17.4673 15.9998 16.0007 15.9998C14.534 15.9998 13.2784 15.4776 12.234 14.4331ZM5.33398 26.6665V22.9331C5.33398 22.1776 5.52865 21.4834 5.91798 20.8505C6.30732 20.2176 6.82376 19.734 7.46732 19.3998C8.8451 18.7109 10.2451 18.1945 11.6673 17.8505C13.0895 17.5065 14.534 17.334 16.0007 17.3331C17.4673 17.3322 18.9118 17.5047 20.334 17.8505C21.7562 18.1962 23.1562 18.7127 24.534 19.3998C25.1784 19.7331 25.6953 20.2167 26.0847 20.8505C26.474 21.4842 26.6682 22.1785 26.6673 22.9331V26.6665H5.33398ZM8.00065 23.9998H24.0007V22.9331C24.0007 22.6887 23.9398 22.4665 23.818 22.2665C23.6962 22.0665 23.5349 21.9109 23.334 21.7998C22.134 21.1998 20.9229 20.75 19.7007 20.4505C18.4784 20.1509 17.2451 20.0007 16.0007 19.9998C14.7562 19.9989 13.5229 20.1491 12.3007 20.4505C11.0784 20.7518 9.86732 21.2016 8.66732 21.7998C8.46732 21.9109 8.30598 22.0665 8.18332 22.2665C8.06065 22.4665 7.99976 22.6887 8.00065 22.9331V23.9998ZM17.8847 12.5505C18.4064 12.0278 18.6673 11.3998 18.6673 10.6665C18.6673 9.93313 18.4064 9.30557 17.8847 8.7838C17.3629 8.26202 16.7349 8.00069 16.0007 7.9998C15.2664 7.99891 14.6389 8.26024 14.118 8.7838C13.5971 9.30735 13.3358 9.93491 13.334 10.6665C13.3322 11.398 13.5935 12.026 14.118 12.5505C14.6424 13.0749 15.27 13.3358 16.0007 13.3331C16.7313 13.3305 17.3593 13.0696 17.8847 12.5505Z" fill="#E66A9D"/>
</svg>
