<svg width="345" height="66" viewBox="0 0 345 66" fill="none" xmlns="http://www.w3.org/2000/svg">
<path d="M37.8983 7.45191C38.0144 7.53083 38.2649 7.73224 38.6456 8.22086C39.3536 9.1296 40.1142 10.5338 40.8658 12.2882C42.355 15.7645 43.5673 20.0406 44.2208 22.9175L44.6481 24.7956L46.5662 24.9708C49.0026 25.1929 52.7704 25.7931 56.0829 26.843C57.7419 27.3688 59.1834 27.9753 60.2614 28.6398C61.3822 29.3308 61.824 29.9076 61.9579 30.2453C61.9896 30.3258 62.1029 30.8066 61.5325 31.9824C60.9914 33.0978 60.0312 34.4184 58.7599 35.8353C56.2315 38.6532 52.8709 41.4145 50.5494 43.0835L49.4748 43.8566L49.446 45.1809C49.3958 47.56 49.1221 51.2696 48.4784 54.6045C48.1559 56.2759 47.7576 57.7633 47.2899 58.9121C46.8642 59.9578 46.4892 60.4449 46.2949 60.6311C46.1709 60.6339 45.8124 60.6201 45.087 60.3666C43.9516 59.9699 42.5052 59.1857 40.8842 58.1111C37.669 55.9795 34.2575 53.0369 32.1055 50.9741L30.7656 49.6891L29.0991 50.5098C26.58 51.7507 22.6825 53.3874 19.1994 54.2899C17.442 54.7453 15.9531 54.9698 14.8651 54.9372C14.1141 54.9147 13.8268 54.7825 13.7513 54.7401C13.5764 54.4463 13.362 53.804 13.3104 52.6424C13.2578 51.4577 13.3843 50.0196 13.6459 48.4578C14.1687 45.3372 15.1706 42.0722 15.9296 40.0444L16.4368 38.6901L15.5725 37.5299C13.9771 35.3892 11.6833 31.9976 9.99444 28.8127C9.14531 27.2113 8.50152 25.7591 8.15648 24.5983C7.98439 24.0193 7.91084 23.5931 7.89624 23.3073C7.89152 23.2146 7.89425 23.1518 7.8971 23.1146C8.65539 21.6993 10.4417 20.8946 13.7882 20.772C15.3923 20.7133 17.1138 20.8218 18.8472 20.9681C20.5081 21.1084 22.2975 21.2966 23.7591 21.3437L25.2258 21.3911L26.0457 20.1723C27.5245 17.973 29.9814 14.6579 32.5106 11.8972C33.7788 10.5129 35.0064 9.33364 36.0907 8.50831C36.6309 8.0971 37.089 7.80921 37.459 7.62853C37.6408 7.53977 37.7831 7.48615 37.8869 7.45505C37.8908 7.4539 37.8946 7.45298 37.8983 7.45191Z" fill="#FFD678" stroke="#A47C21" stroke-width="5.30377"/>
<path d="M106.732 7.43782C106.839 7.50015 107.12 7.69465 107.574 8.26028C108.308 9.17617 109.095 10.5869 109.874 12.3443C111.418 15.8282 112.681 20.1104 113.364 22.99L113.803 24.8423L115.7 25.0181C118.21 25.2515 122.093 25.8695 125.512 26.9381C127.225 27.4733 128.718 28.0909 129.84 28.7675C131.01 29.4732 131.474 30.0623 131.614 30.403C131.639 30.4652 131.767 30.9235 131.189 32.0927C130.641 33.2009 129.663 34.5161 128.363 35.9292C125.778 38.7379 122.338 41.4872 119.959 43.1488L118.848 43.924L118.825 45.2769C118.784 47.6545 118.519 51.3611 117.874 54.6903C117.55 56.3588 117.148 57.8411 116.675 58.9833C116.235 60.0457 115.848 60.5272 115.651 60.7037C115.543 60.7091 115.158 60.7154 114.316 60.4261C113.133 60.0188 111.635 59.2216 109.963 58.1377C106.644 55.9863 103.123 53.0232 100.902 50.9481L99.5812 49.7147L97.9502 50.4926C95.3658 51.7246 91.3639 53.3493 87.7808 54.2398C85.9739 54.6889 84.4314 54.91 83.2946 54.872C82.4307 54.8431 82.1293 54.6812 82.0663 54.6429C81.8828 54.3528 81.6568 53.712 81.5984 52.5408C81.5396 51.3615 81.6623 49.9283 81.9239 48.3695C82.4465 45.255 83.4605 41.9977 84.2304 39.9746L84.7559 38.5916L83.8562 37.4178C82.2073 35.2674 79.8356 31.8616 78.0868 28.6663C77.2075 27.0596 76.5405 25.605 76.1818 24.4443C76.0029 23.865 75.9271 23.4422 75.9112 23.1625C75.9066 23.0812 75.9079 23.0246 75.91 22.9893C76.6846 21.5909 78.537 20.7838 81.9974 20.6748C83.6533 20.6227 85.4281 20.7393 87.21 20.8933C88.9216 21.0412 90.7535 21.2369 92.25 21.2902L93.7042 21.3415L94.5289 20.1423C96.0376 17.949 98.5467 14.6434 101.132 11.8921C102.428 10.5129 103.685 9.33711 104.797 8.51452C105.825 7.75343 106.459 7.50131 106.732 7.43782Z" fill="#FFD678" stroke="#A47C21" stroke-width="5.30377"/>
<path d="M176.39 7.43782C176.496 7.50015 176.778 7.69465 177.231 8.26028C177.965 9.17617 178.753 10.5869 179.532 12.3443C181.076 15.8282 182.339 20.1104 183.022 22.99L183.461 24.8423L185.357 25.0181C187.868 25.2515 191.751 25.8695 195.17 26.9381C196.883 27.4733 198.376 28.0909 199.498 28.7675C200.668 29.4732 201.132 30.0623 201.272 30.403C201.297 30.4652 201.425 30.9235 200.847 32.0927C200.298 33.2009 199.321 34.5161 198.02 35.9292C195.436 38.7379 191.996 41.4872 189.617 43.1488L188.506 43.924L188.483 45.2769C188.441 47.6545 188.177 51.3611 187.531 54.6903C187.208 56.3588 186.806 57.8411 186.332 58.9833C185.892 60.0457 185.505 60.5272 185.309 60.7037C185.201 60.7091 184.815 60.7154 183.974 60.4261C182.791 60.0188 181.292 59.2216 179.62 58.1377C176.302 55.9863 172.78 53.0232 170.559 50.9481L169.239 49.7147L167.608 50.4926C165.023 51.7246 161.022 53.3493 157.438 54.2398C155.632 54.6889 154.089 54.91 152.952 54.872C152.088 54.8431 151.787 54.6812 151.724 54.6429C151.541 54.3528 151.314 53.712 151.256 52.5408C151.197 51.3615 151.32 49.9283 151.582 48.3695C152.104 45.255 153.118 41.9977 153.888 39.9746L154.414 38.5916L153.514 37.4178C151.865 35.2674 149.493 31.8616 147.745 28.6663C146.865 27.0596 146.198 25.605 145.84 24.4443C145.661 23.865 145.585 23.4422 145.569 23.1625C145.564 23.0812 145.566 23.0246 145.568 22.9893C146.342 21.5909 148.195 20.7838 151.655 20.6748C153.311 20.6227 155.086 20.7393 156.868 20.8933C158.579 21.0412 160.411 21.2369 161.908 21.2902L163.362 21.3415L164.187 20.1423C165.695 17.949 168.204 14.6434 170.79 11.8921C172.086 10.5129 173.342 9.33711 174.454 8.51452C175.483 7.75343 176.117 7.50131 176.39 7.43782Z" fill="#FFD678" stroke="#A47C21" stroke-width="5.30377"/>
<path d="M246.047 7.43782C246.154 7.50015 246.435 7.69465 246.889 8.26028C247.622 9.17617 248.41 10.5869 249.189 12.3443C250.733 15.8282 251.996 20.1104 252.679 22.99L253.118 24.8423L255.015 25.0181C257.525 25.2515 261.408 25.8695 264.827 26.9381C266.54 27.4733 268.033 28.0909 269.155 28.7675C270.325 29.4732 270.789 30.0623 270.929 30.403C270.954 30.4652 271.082 30.9235 270.504 32.0927C269.956 33.2009 268.978 34.5161 267.678 35.9292C265.093 38.7379 261.653 41.4872 259.274 43.1488L258.163 43.924L258.14 45.2769C258.098 47.6545 257.834 51.3611 257.189 54.6903C256.865 56.3588 256.463 57.8411 255.99 58.9833C255.55 60.0457 255.163 60.5272 254.966 60.7037C254.858 60.7091 254.472 60.7154 253.631 60.4261C252.448 60.0188 250.95 59.2216 249.278 58.1377C245.959 55.9863 242.438 53.0232 240.217 50.9481L238.896 49.7147L237.265 50.4926C234.681 51.7246 230.679 53.3493 227.096 54.2398C225.289 54.6889 223.746 54.91 222.61 54.872C221.746 54.8431 221.444 54.6812 221.381 54.6429C221.198 54.3528 220.972 53.712 220.913 52.5408C220.855 51.3615 220.977 49.9283 221.239 48.3695C221.761 45.255 222.775 41.9977 223.545 39.9746L224.071 38.5916L223.171 37.4178C221.522 35.2674 219.151 31.8616 217.402 28.6663C216.522 27.0596 215.855 25.605 215.497 24.4443C215.318 23.865 215.242 23.4422 215.226 23.1625C215.222 23.0812 215.223 23.0246 215.225 22.9893C216 21.5909 217.852 20.7838 221.312 20.6748C222.968 20.6227 224.743 20.7393 226.525 20.8933C228.237 21.0412 230.068 21.2369 231.565 21.2902L233.019 21.3415L233.844 20.1423C235.353 17.949 237.862 14.6434 240.447 11.8921C241.743 10.5129 243 9.33711 244.112 8.51452C245.14 7.75343 245.774 7.50131 246.047 7.43782Z" fill="#FFD678" stroke="#A47C21" stroke-width="5.30377"/>
<path d="M314.884 7.45191C315 7.53083 315.251 7.73224 315.631 8.22086C316.339 9.1296 317.1 10.5338 317.852 12.2882C319.341 15.7645 320.553 20.0406 321.207 22.9175L321.634 24.7956L323.552 24.9708C325.988 25.1929 329.756 25.7931 333.069 26.843C334.728 27.3688 336.169 27.9753 337.247 28.6398C338.368 29.3308 338.81 29.9076 338.944 30.2453C338.975 30.3258 339.089 30.8066 338.518 31.9824C337.977 33.0978 337.017 34.4184 335.746 35.8353C333.217 38.6532 329.857 41.4145 327.535 43.0835L326.461 43.8566L326.432 45.1809C326.382 47.56 326.108 51.2696 325.464 54.6045C325.142 56.2759 324.743 57.7633 324.276 58.9121C323.85 59.9578 323.475 60.4449 323.281 60.6311C323.157 60.6339 322.798 60.6201 322.073 60.3666C320.937 59.9699 319.491 59.1857 317.87 58.1111C314.655 55.9795 311.243 53.0369 309.091 50.9741L307.751 49.6891L306.085 50.5098C303.566 51.7507 299.668 53.3874 296.185 54.2899C294.428 54.7453 292.939 54.9698 291.851 54.9372C291.1 54.9147 290.813 54.7825 290.737 54.7401C290.562 54.4463 290.348 53.804 290.296 52.6424C290.244 51.4577 290.37 50.0196 290.632 48.4578C291.155 45.3372 292.156 42.0722 292.915 40.0444L293.423 38.6901L292.558 37.5299C290.963 35.3892 288.669 31.9976 286.98 28.8127C286.131 27.2113 285.487 25.7591 285.142 24.5983C284.97 24.0193 284.897 23.5931 284.882 23.3073C284.877 23.2146 284.88 23.1518 284.883 23.1146C285.641 21.6993 287.428 20.8946 290.774 20.772C292.378 20.7133 294.1 20.8218 295.833 20.9681C297.494 21.1084 299.283 21.2966 300.745 21.3437L302.212 21.3911L303.031 20.1723C304.51 17.973 306.967 14.6579 309.496 11.8972C310.765 10.5129 311.992 9.33364 313.076 8.50831C313.617 8.0971 314.075 7.80921 314.445 7.62853C314.627 7.53977 314.769 7.48615 314.873 7.45505C314.877 7.4539 314.88 7.45298 314.884 7.45191Z" fill="#FFD678" stroke="#A47C21" stroke-width="5.30377"/>
</svg>
