<svg width="32" height="32" viewBox="0 0 32 32" fill="none" xmlns="http://www.w3.org/2000/svg">
<g filter="url(#filter0_d_1121_10193)">
<path d="M5.33301 29.3334V8.00008H10.6663C10.6663 6.53341 11.1886 5.27786 12.233 4.23341C13.2775 3.18897 14.533 2.66675 15.9997 2.66675C17.4663 2.66675 18.7219 3.18897 19.7663 4.23341C20.8108 5.27786 21.333 6.53341 21.333 8.00008H26.6663V29.3334H5.33301ZM7.99967 26.6667H23.9997V10.6667H21.333V14.6667H18.6663V10.6667H13.333V14.6667H10.6663V10.6667H7.99967V26.6667ZM13.333 8.00008H18.6663C18.6663 7.26675 18.4055 6.63919 17.8837 6.11741C17.3619 5.59564 16.7339 5.3343 15.9997 5.33341C15.2655 5.33253 14.6379 5.59386 14.117 6.11741C13.5961 6.64097 13.3348 7.26853 13.333 8.00008Z" fill="#E66A9D"/>
</g>
<defs>
<filter id="filter0_d_1121_10193" x="0" y="0" width="32" height="32" filterUnits="userSpaceOnUse" color-interpolation-filters="sRGB">
<feFlood flood-opacity="0" result="BackgroundImageFix"/>
<feColorMatrix in="SourceAlpha" type="matrix" values="0 0 0 0 0 0 0 0 0 0 0 0 0 0 0 0 0 0 127 0" result="hardAlpha"/>
<feOffset/>
<feComposite in2="hardAlpha" operator="out"/>
<feColorMatrix type="matrix" values="0 0 0 0 0 0 0 0 0 0 0 0 0 0 0 0 0 0 0.25 0"/>
<feBlend mode="normal" in2="BackgroundImageFix" result="effect1_dropShadow_1121_10193"/>
<feBlend mode="normal" in="SourceGraphic" in2="effect1_dropShadow_1121_10193" result="shape"/>
</filter>
</defs>
</svg>
