<svg width="60" height="59" viewBox="0 0 60 59" fill="none" xmlns="http://www.w3.org/2000/svg">
<path d="M32.6566 2.6814C32.7727 2.76032 33.0232 2.96173 33.4039 3.45035C34.1119 4.35909 34.8725 5.76325 35.6241 7.51766C37.1133 10.994 38.3256 15.2701 38.9791 18.147L39.4064 20.0251L41.3245 20.2003C43.7609 20.4224 47.5287 21.0226 50.8412 22.0725C52.5002 22.5983 53.9417 23.2048 55.0197 23.8693C56.1405 24.5603 56.5823 25.1371 56.7162 25.4748C56.7479 25.5553 56.8612 26.036 56.2908 27.2119C55.7497 28.3273 54.7895 29.6479 53.5182 31.0648C50.9898 33.8827 47.6292 36.644 45.3077 38.313L44.2331 39.0861L44.2043 40.4104C44.1541 42.7895 43.8804 46.4991 43.2367 49.834C42.9142 51.5054 42.5159 52.9928 42.0482 54.1416C41.6225 55.1873 41.2475 55.6744 41.0532 55.8606C40.9292 55.8634 40.5707 55.8495 39.8453 55.5961C38.7099 55.1993 37.2635 54.4152 35.6425 53.3406C32.4273 51.209 29.0158 48.2664 26.8638 46.2036L25.5239 44.9186L23.8574 45.7393C21.3383 46.9802 17.4408 48.6169 13.9577 49.5194C12.2003 49.9748 10.7114 50.1993 9.62338 50.1667C8.87241 50.1442 8.58507 50.012 8.50965 49.9696C8.33472 49.6758 8.12033 49.0335 8.06871 47.8718C8.0161 46.6872 8.14257 45.249 8.40421 43.6873C8.92702 40.5667 9.92886 37.3017 10.6879 35.2739L11.1951 33.9196L10.3308 32.7594C8.73539 30.6187 6.44163 27.2271 4.75274 24.0422C3.90362 22.4408 3.25982 20.9886 2.91478 19.8277C2.74269 19.2488 2.66914 18.8226 2.65454 18.5368C2.64982 18.4441 2.65255 18.3813 2.6554 18.3441C3.41369 16.9288 5.20001 16.1241 8.54654 16.0015C10.1506 15.9428 11.8721 16.0513 13.6055 16.1976C15.2664 16.3379 17.0558 16.5261 18.5174 16.5732L19.9841 16.6206L20.804 15.4018C22.2828 13.2025 24.7397 9.88737 27.2689 7.1267C28.5371 5.74243 29.7647 4.56313 30.849 3.7378C31.3892 3.32659 31.8474 3.0387 32.2173 2.85802C32.3991 2.76926 32.5414 2.71564 32.6452 2.68454C32.6491 2.68339 32.6529 2.68248 32.6566 2.6814Z" fill="#FFD678" stroke="#A47C21" stroke-width="5.30377"/>
</svg>
