<svg width="608" height="570" viewBox="0 0 608 570" fill="none" xmlns="http://www.w3.org/2000/svg">
<path d="M213.702 350.141C219.593 349.855 222.969 351.929 223.831 356.362C223.831 374.809 224.119 391.129 224.693 484.08V540.456L224.047 556.201L225.34 560.491V560.92C225.34 564.066 223.328 566.354 219.305 567.784C215.57 567.784 212.84 563.494 211.116 554.914L211.978 539.169C210.541 503.847 210.397 465.544 211.547 438.088H210.254C204.794 443.951 198.616 446.882 191.719 446.882H190.426C178.213 446.882 169.592 439.947 164.564 426.076C163.271 420.499 162.624 415.565 162.624 411.275V410.417C162.624 382.96 170.814 364.728 187.193 355.719L196.676 354.432L206.805 357.864C206.805 352.716 209.104 350.141 213.702 350.141ZM175.555 411.275C175.555 426.576 180.081 434.227 189.133 434.227H193.874C201.202 434.227 205.512 424.503 206.805 405.054V400.979C206.805 384.676 203.429 373.451 196.676 367.302H196.029C185.541 371.02 180.297 376.382 180.297 383.389C177.136 388.538 175.555 397.833 175.555 411.275Z" fill="#EB79A1"/>
<path d="M62.697 276.461C68.5459 276.461 71.4703 269.602 71.4703 301.098C72.3263 307.397 72.7542 301.254 72.7542 327.883L72.1123 366.966C75.3933 403.33 79.673 424.804 84.9513 431.39C89.0883 434.253 91.1568 436.472 91.1568 438.047C90.3008 441.483 88.6603 443.773 86.2352 444.919H83.6674C76.5346 444.919 70.6857 435.47 66.1208 416.572C65.2648 416.859 62.8397 422.728 58.8453 434.182C53.7097 441.34 48.5028 444.919 43.2246 444.919C25.1073 444.919 14.3369 420.796 10.9131 372.55L0 290.634C1.42655 287.485 3.42373 285.91 5.99152 285.91C10.9845 285.91 13.4809 292.639 13.4809 306.096L26.3199 400.252C30.8849 421.44 36.5198 432.034 43.2246 432.034C51.0706 429.887 56.2775 407.553 58.8453 365.034C56.4202 327.382 55.2076 315.987 55.2076 285.636V283.118C55.2076 279.396 57.7041 277.177 62.697 276.461Z" fill="#EB79A1"/>
<path d="M123.107 366.92C137.656 368.054 143.562 385.269 140.825 418.565L139.097 437.48C138.232 442.58 135.711 444.989 131.534 444.706C127.645 444.422 125.916 441.872 126.348 437.055L127.861 416.439C129.878 392.211 127.717 379.885 121.379 379.459C114.609 378.893 109.711 391.503 106.686 417.289L107.551 440.242C107.263 443.218 104.814 444.776 100.204 444.918C94.8746 444.493 92.858 436.984 94.1544 422.39L88.9688 373.721C89.2568 370.462 91.9217 368.691 96.9633 368.408C99.9882 368.55 101.789 371.738 102.365 377.972L103.229 378.184C109.711 370.25 116.337 366.495 123.107 366.92Z" fill="#EB79A1"/>
<path d="M152.939 332.294C153.527 332.294 154.732 330.409 155.976 329.845C157.416 329.193 159.258 329.898 159.895 330.727C160.401 331.384 160.784 332.621 160.679 333.764C160.593 334.701 160.189 335.625 160.091 336.017C159.993 337.291 158.426 339.25 156.564 340.426L152.629 344.056C150.771 344.056 150.031 342.358 149.118 341.014C148.062 339.46 146.031 337.406 145.689 336.017C145.544 335.429 145.128 334.607 145.101 333.764C145.067 332.688 145.604 331.341 146.081 330.727C146.598 330.06 148.554 329.108 149.902 329.649C151.314 330.216 152.351 332.294 152.939 332.294Z" fill="#EB79A1"/>
<path d="M154.13 359.083C158.996 359.798 160.355 367.025 158.209 380.763C156.491 392.068 156.205 411.029 157.35 437.646C155.203 441.796 152.413 443.585 148.979 443.012C144.972 442.44 143.326 435.356 144.042 421.762C143.755 398.007 144.972 378.115 147.691 362.088C147.977 359.941 150.123 358.94 154.13 359.083Z" fill="#EB79A1"/>
<path d="M273.52 367.104C278.07 367.104 280.344 372.155 280.344 382.257C280.344 393.802 281.126 407.8 282.69 424.251C287.239 426.271 289.514 428.725 289.514 431.611V432.477C289.514 436.084 287.097 438.321 282.264 439.187C279.136 439.187 276.435 436.157 274.16 430.096C268.189 438.033 262.36 442.001 256.674 442.001C244.021 441.568 235.918 435.146 232.364 422.736C231.084 408.882 230.444 394.162 230.444 378.577V374.464C230.444 369.413 232.719 366.888 237.268 366.888C240.538 366.888 242.528 369.63 243.239 375.114V378.577C240.396 412.923 244.874 429.302 256.674 427.714C264.493 422.375 268.545 415.376 268.829 406.717V400.656L266.27 380.958V378.793C266.27 371.001 268.687 367.104 273.52 367.104Z" fill="#EB79A1"/>
<path d="M310.301 362.516C318.314 362.516 323.752 369.742 326.614 384.195C322.894 400.366 315.238 408.451 303.646 408.451H302.788V409.096C305.078 422.118 311.159 428.629 321.033 428.629C328.618 428.629 334.772 422.118 339.494 409.096L344.216 407.163C347.364 407.163 349.368 409.597 350.227 414.462C350.226 423.334 343.286 431.706 329.405 439.576L319.102 441.508C306.795 441.508 297.564 432.707 291.411 415.106C289.694 408.094 288.836 402.298 288.836 397.719V394.929C288.836 380.332 294.917 369.742 307.081 363.159L310.301 362.516ZM309.014 376.039C306.867 376.039 304.649 380.547 302.359 389.563V389.991L307.081 394.929C309.228 394.929 311.231 391.995 313.092 386.128V382.694C312.376 378.257 311.446 376.039 310.301 376.039H309.014Z" fill="#EB79A1"/>
<path d="M345.766 343.772C347.86 343.856 349.814 344.9 351.629 346.905C350.652 347.824 350.024 346.947 349.745 349.369L349.535 350.998L350.792 387.205C350.094 409.591 350.512 426.005 352.048 436.447L352.467 437.449C351.21 439.036 349.186 439.788 346.394 439.704C340.113 439.454 337.6 434.275 338.857 424.167C338.019 418.654 337.6 406.463 337.6 361.273C336.763 358.516 336.553 354.882 336.972 350.372V349.87C337.67 343.94 340.601 343.605 345.766 343.772Z" fill="#EB79A1"/>
<path d="M363.023 363.971C367.453 363.971 369.668 370.677 369.668 384.089V397.144C369.668 414.123 373.312 422.612 380.6 422.612H381.243C386.245 417.619 388.746 410.913 388.746 402.494V377.454C388.746 372.318 391.89 368.751 398.177 366.753H400.75C403.893 369.179 405.465 371.176 405.465 372.746L401.607 403.779L402.25 418.118V428.391C402.25 481.468 393.032 559.56 374.598 567.55L369.239 569.048C358.664 569.048 349.661 561.415 342.23 546.148L334.728 523.248C336.014 519.538 338.014 517.684 340.73 517.684H342.659C345.374 517.684 349.232 526.244 354.234 543.366C359.236 551.784 363.951 555.993 368.381 555.993C380.528 555.993 386.888 485.82 389.174 433.313L379.743 435.454C366.453 435.454 358.807 422.398 356.807 396.288L356.163 368.679C357.45 365.54 359.736 363.971 363.023 363.971Z" fill="#EB79A1"/>
<path d="M535.548 365.74C543.561 365.74 548.999 372.967 551.861 387.42C548.141 403.59 540.485 411.676 528.894 411.676H528.034V412.32C530.324 425.342 536.406 431.853 546.28 431.853C553.865 431.853 560.018 425.342 564.74 412.32L569.463 410.388C572.611 410.388 574.614 412.821 575.473 417.686C575.473 426.559 568.532 434.93 554.651 442.801L544.349 444.732C532.042 444.732 522.812 435.932 516.658 418.33C514.941 411.318 514.082 405.523 514.082 400.943V398.153C514.082 383.557 520.164 372.966 532.327 366.384L535.548 365.74ZM534.26 379.263C532.113 379.263 529.895 383.771 527.605 392.786V393.216L532.328 398.152C534.475 398.152 536.479 395.219 538.339 389.352V385.917C537.623 381.481 536.693 379.263 535.548 379.263H534.26Z" fill="#EB79A1"/>
<path d="M487.998 275.731C492.148 275.731 494.223 278.45 494.223 283.888V285.743C494.223 304.489 500.018 338.193 511.61 432.068V435.503C511.61 442.228 509.392 445.591 504.955 445.591C500.949 445.019 498.945 443.015 498.945 439.581V434.859C498.945 426.416 495.296 419.043 487.998 367.526C468.25 368.671 458.376 370.245 458.376 372.248L459.02 373.107V373.536C460.88 403.158 461.81 395.93 461.81 420.4V437.572C461.81 444.155 459.306 447.446 454.297 447.446C451.006 447.446 449.217 444.942 448.931 439.933V423.834C448.931 395.214 448.001 401.799 446.141 375.039H444.853C441.275 375.039 438.556 373.464 436.696 370.316V366.882C439.129 363.447 441.847 361.659 444.853 361.515C444.853 350.64 441.203 333.258 433.905 286.034C433.905 282.457 436.624 280.382 442.062 279.809C445.64 279.809 448.359 278.516 450.219 299.266C452.079 308.425 454.512 327.815 457.517 357.437H458.376L487.354 354.647C482.775 317.869 480.485 303.135 480.485 287.108C480.485 279.523 482.989 275.731 487.998 275.731Z" fill="#EB79A1"/>
<path d="M565.499 356.081C569.363 356.081 572.296 360.732 574.3 370.034H574.944C580.381 363.594 586.249 360.374 592.545 360.374C602.848 362.234 608 365.454 608 370.034C606.712 374.04 604.494 376.044 601.346 376.044L593.189 373.468H591.043C582.599 375.042 578.378 392.429 578.378 425.629V435.717C577.519 440.154 575.516 442.372 572.368 442.372C567.788 442.372 565.499 439.653 565.499 434.215V409.315C565.499 390.998 563.209 374.971 558.63 361.233C559.775 357.798 562.064 356.081 565.499 356.081Z" fill="#EB79A1"/>
<rect x="85.499" y="450.18" width="469.373" height="48.8567" rx="13.9591" fill="#5D2F54"/>
<path d="M120.62 459.816L107.638 475.353L107.177 474.264L100.603 482.262L99.2207 476.442L112.621 459.816H120.62ZM102.738 459.816V487.455H95.5355V459.816H102.738ZM109.983 468.946L121.123 487.455H112.956L104.581 472.966L109.983 468.946ZM141.09 466.517H148.46L140.922 487.455H132.421L124.883 466.517H132.379L136.693 482.472L141.09 466.517ZM158.701 464.088C157.249 464.088 156.188 463.823 155.518 463.292C154.876 462.734 154.555 461.868 154.555 460.696C154.555 459.495 154.876 458.63 155.518 458.099C156.188 457.541 157.249 457.262 158.701 457.262C160.125 457.262 161.172 457.541 161.842 458.099C162.512 458.63 162.847 459.495 162.847 460.696C162.847 461.868 162.512 462.734 161.842 463.292C161.172 463.823 160.125 464.088 158.701 464.088ZM162.261 466.517V487.455H155.141V466.517H162.261ZM171.516 487.455V466.517H177.881L178.258 473.72L177.463 472.924C177.742 471.416 178.23 470.16 178.928 469.155C179.654 468.15 180.548 467.396 181.609 466.894C182.697 466.363 183.912 466.098 185.252 466.098C186.704 466.098 187.96 466.377 189.021 466.935C190.11 467.494 190.961 468.317 191.575 469.406C192.189 470.495 192.497 471.863 192.497 473.51V487.455H185.377V475.395C185.377 473.943 185.098 472.938 184.54 472.379C183.982 471.821 183.27 471.542 182.404 471.542C181.734 471.542 181.106 471.709 180.52 472.044C179.933 472.352 179.473 472.854 179.138 473.552C178.803 474.25 178.635 475.185 178.635 476.358V487.455H171.516ZM209.378 487.874C207.647 487.874 206.126 487.455 204.813 486.618C203.529 485.752 202.524 484.51 201.798 482.891C201.1 481.271 200.751 479.331 200.751 477.07C200.751 474.725 201.114 472.742 201.84 471.123C202.594 469.504 203.627 468.262 204.939 467.396C206.279 466.531 207.815 466.098 209.546 466.098C211.444 466.098 212.965 466.684 214.11 467.857C215.283 469.001 216.036 470.467 216.371 472.254L215.701 473.133V457.639H222.821V487.455H216.455L215.995 480.336L216.832 480.964C216.665 482.36 216.232 483.575 215.534 484.608C214.864 485.641 213.998 486.45 212.938 487.036C211.905 487.595 210.718 487.874 209.378 487.874ZM211.849 482.639C212.658 482.639 213.342 482.43 213.901 482.011C214.487 481.565 214.934 480.908 215.241 480.043C215.548 479.178 215.701 478.117 215.701 476.86C215.701 475.688 215.548 474.697 215.241 473.887C214.962 473.05 214.529 472.421 213.943 472.003C213.384 471.556 212.7 471.333 211.891 471.333C210.662 471.333 209.685 471.793 208.959 472.714C208.261 473.608 207.912 475.032 207.912 476.986C207.912 478.94 208.261 480.378 208.959 481.299C209.657 482.193 210.62 482.639 211.849 482.639ZM242.333 487.874C240.016 487.874 238.006 487.441 236.303 486.576C234.628 485.71 233.33 484.468 232.408 482.849C231.487 481.23 231.027 479.275 231.027 476.986C231.027 474.697 231.487 472.742 232.408 471.123C233.33 469.504 234.614 468.262 236.261 467.396C237.936 466.531 239.849 466.098 241.998 466.098C244.204 466.098 246.074 466.531 247.61 467.396C249.173 468.234 250.36 469.406 251.169 470.914C251.979 472.393 252.384 474.096 252.384 476.023C252.384 476.525 252.37 477.028 252.342 477.53C252.314 478.033 252.272 478.452 252.216 478.787H235.633V474.976H249.076L245.684 476.274C245.684 474.599 245.376 473.315 244.762 472.421C244.176 471.528 243.255 471.081 241.998 471.081C241.105 471.081 240.337 471.291 239.695 471.709C239.081 472.128 238.606 472.784 238.271 473.678C237.964 474.571 237.811 475.716 237.811 477.112C237.811 478.48 237.992 479.596 238.355 480.462C238.718 481.299 239.234 481.914 239.904 482.304C240.575 482.667 241.384 482.849 242.333 482.849C243.394 482.849 244.232 482.639 244.846 482.221C245.488 481.802 245.963 481.216 246.27 480.462L251.965 482.346C251.574 483.547 250.89 484.566 249.913 485.403C248.964 486.213 247.819 486.827 246.479 487.246C245.167 487.665 243.785 487.874 242.333 487.874ZM260.554 487.455V466.517H266.836L267.129 471.039C267.659 469.476 268.441 468.262 269.474 467.396C270.535 466.531 271.875 466.098 273.494 466.098C274.025 466.098 274.471 466.14 274.834 466.224C275.225 466.307 275.532 466.419 275.756 466.559L275.044 472.421C274.765 472.31 274.402 472.226 273.955 472.17C273.536 472.086 273.02 472.044 272.405 472.044C271.568 472.044 270.786 472.226 270.06 472.589C269.334 472.952 268.748 473.496 268.301 474.222C267.883 474.92 267.673 475.813 267.673 476.902V487.455H260.554ZM283.02 480.252C284.053 480.252 284.904 480.49 285.574 480.964C286.245 481.439 286.733 482.067 287.04 482.849C287.375 483.603 287.543 484.454 287.543 485.403C287.543 486.66 287.264 487.86 286.705 489.005C286.175 490.177 285.463 491.196 284.569 492.062C283.704 492.955 282.755 493.625 281.722 494.072L278.832 491.936C279.614 491.629 280.326 491.238 280.968 490.764C281.638 490.289 282.21 489.772 282.685 489.214C283.187 488.656 283.564 488.083 283.816 487.497L283.606 487.372C283.467 487.483 283.285 487.567 283.062 487.623C282.839 487.679 282.545 487.707 282.182 487.707C281.68 487.707 281.163 487.581 280.633 487.33C280.13 487.078 279.698 486.701 279.335 486.199C279 485.696 278.832 485.054 278.832 484.273C278.832 483.379 279.028 482.639 279.419 482.053C279.809 481.467 280.326 481.02 280.968 480.713C281.61 480.406 282.294 480.252 283.02 480.252ZM320.926 487.874C318.832 487.874 316.878 487.539 315.063 486.869C313.276 486.171 311.797 485.18 310.624 483.896L313.974 479.959C314.672 480.853 315.594 481.606 316.738 482.221C317.911 482.807 319.209 483.1 320.633 483.1C321.498 483.1 322.21 482.974 322.769 482.723C323.327 482.472 323.606 482.081 323.606 481.551C323.606 481.16 323.467 480.853 323.187 480.629C322.908 480.378 322.35 480.169 321.512 480.001L318.581 479.415C315.957 478.884 314.086 478.103 312.969 477.07C311.881 476.009 311.336 474.627 311.336 472.924C311.336 471.779 311.685 470.69 312.383 469.657C313.081 468.597 314.156 467.745 315.608 467.103C317.059 466.433 318.916 466.098 321.177 466.098C323.299 466.098 325.17 466.405 326.789 467.019C328.408 467.633 329.692 468.527 330.642 469.699L327.249 473.552C326.579 472.714 325.714 472.058 324.653 471.584C323.592 471.109 322.531 470.872 321.47 470.872C320.8 470.872 320.228 470.942 319.753 471.081C319.307 471.193 318.972 471.36 318.748 471.584C318.525 471.807 318.413 472.086 318.413 472.421C318.413 472.784 318.581 473.105 318.916 473.385C319.279 473.636 319.935 473.859 320.884 474.055L324.695 474.808C326.845 475.199 328.394 475.911 329.343 476.944C330.293 477.977 330.767 479.219 330.767 480.671C330.767 482.039 330.404 483.268 329.678 484.356C328.952 485.445 327.864 486.311 326.412 486.953C324.96 487.567 323.132 487.874 320.926 487.874ZM348.493 466.098C350.698 466.098 352.625 466.531 354.272 467.396C355.947 468.234 357.245 469.476 358.166 471.123C359.116 472.742 359.59 474.697 359.59 476.986C359.59 479.275 359.116 481.243 358.166 482.891C357.245 484.51 355.947 485.752 354.272 486.618C352.625 487.455 350.698 487.874 348.493 487.874C346.343 487.874 344.431 487.455 342.755 486.618C341.08 485.752 339.768 484.51 338.819 482.891C337.898 481.243 337.437 479.275 337.437 476.986C337.437 474.697 337.898 472.742 338.819 471.123C339.768 469.476 341.08 468.234 342.755 467.396C344.431 466.531 346.343 466.098 348.493 466.098ZM348.493 471.165C347.683 471.165 346.985 471.36 346.399 471.751C345.813 472.142 345.366 472.77 345.059 473.636C344.752 474.501 344.598 475.618 344.598 476.986C344.598 478.354 344.752 479.471 345.059 480.336C345.366 481.174 345.813 481.802 346.399 482.221C346.985 482.611 347.683 482.807 348.493 482.807C349.33 482.807 350.042 482.611 350.628 482.221C351.215 481.802 351.661 481.174 351.968 480.336C352.276 479.471 352.429 478.354 352.429 476.986C352.429 475.618 352.276 474.501 351.968 473.636C351.661 472.77 351.215 472.142 350.628 471.751C350.042 471.36 349.33 471.165 348.493 471.165ZM367.783 487.455V466.517H374.148L374.357 470.579C375.027 469.099 375.963 467.982 377.163 467.229C378.392 466.475 379.801 466.098 381.393 466.098C382.956 466.098 384.31 466.447 385.455 467.145C386.599 467.843 387.451 468.876 388.009 470.244C388.456 469.322 389.028 468.555 389.726 467.94C390.452 467.326 391.276 466.866 392.197 466.559C393.118 466.251 394.068 466.098 395.045 466.098C396.441 466.098 397.669 466.377 398.73 466.935C399.791 467.466 400.628 468.289 401.243 469.406C401.885 470.495 402.206 471.863 402.206 473.51V487.455H395.087V475.143C395.087 473.803 394.821 472.868 394.291 472.338C393.788 471.807 393.104 471.542 392.239 471.542C391.541 471.542 390.899 471.723 390.313 472.086C389.754 472.421 389.321 472.938 389.014 473.636C388.707 474.334 388.554 475.213 388.554 476.274V487.455H381.435V475.143C381.435 473.803 381.169 472.868 380.639 472.338C380.109 471.807 379.425 471.542 378.587 471.542C377.945 471.542 377.331 471.709 376.744 472.044C376.186 472.379 375.739 472.91 375.404 473.636C375.069 474.334 374.902 475.255 374.902 476.4V487.455H367.783ZM435.269 487.874C433.538 487.874 432.017 487.455 430.705 486.618C429.421 485.752 428.415 484.51 427.69 482.891C426.992 481.271 426.643 479.331 426.643 477.07C426.643 474.725 427.006 472.742 427.731 471.123C428.485 469.504 429.518 468.262 430.83 467.396C432.17 466.531 433.706 466.098 435.437 466.098C437.335 466.098 438.857 466.684 440.001 467.857C441.174 469.001 441.928 470.467 442.263 472.254L441.593 473.133V457.639H448.712V487.455H442.347L441.886 480.336L442.724 480.964C442.556 482.36 442.123 483.575 441.425 484.608C440.755 485.641 439.89 486.45 438.829 487.036C437.796 487.595 436.609 487.874 435.269 487.874ZM437.74 482.639C438.55 482.639 439.234 482.43 439.792 482.011C440.378 481.565 440.825 480.908 441.132 480.043C441.439 479.178 441.593 478.117 441.593 476.86C441.593 475.688 441.439 474.697 441.132 473.887C440.853 473.05 440.42 472.421 439.834 472.003C439.276 471.556 438.592 471.333 437.782 471.333C436.554 471.333 435.576 471.793 434.851 472.714C434.153 473.608 433.804 475.032 433.804 476.986C433.804 478.94 434.153 480.378 434.851 481.299C435.549 482.193 436.512 482.639 437.74 482.639ZM468.225 487.874C465.908 487.874 463.897 487.441 462.194 486.576C460.519 485.71 459.221 484.468 458.3 482.849C457.379 481.23 456.918 479.275 456.918 476.986C456.918 474.697 457.379 472.742 458.3 471.123C459.221 469.504 460.505 468.262 462.153 467.396C463.828 466.531 465.74 466.098 467.89 466.098C470.095 466.098 471.966 466.531 473.501 467.396C475.065 468.234 476.251 469.406 477.061 470.914C477.87 472.393 478.275 474.096 478.275 476.023C478.275 476.525 478.261 477.028 478.233 477.53C478.205 478.033 478.164 478.452 478.108 478.787H461.524V474.976H474.967L471.575 476.274C471.575 474.599 471.268 473.315 470.654 472.421C470.067 471.528 469.146 471.081 467.89 471.081C466.996 471.081 466.229 471.291 465.586 471.709C464.972 472.128 464.498 472.784 464.163 473.678C463.856 474.571 463.702 475.716 463.702 477.112C463.702 478.48 463.883 479.596 464.246 480.462C464.609 481.299 465.126 481.914 465.796 482.304C466.466 482.667 467.276 482.849 468.225 482.849C469.286 482.849 470.123 482.639 470.737 482.221C471.379 481.802 471.854 481.216 472.161 480.462L477.856 482.346C477.466 483.547 476.782 484.566 475.805 485.403C474.855 486.213 473.711 486.827 472.371 487.246C471.058 487.665 469.676 487.874 468.225 487.874ZM512.834 487.874C510.517 487.874 508.506 487.441 506.803 486.576C505.128 485.71 503.83 484.468 502.909 482.849C501.988 481.23 501.527 479.275 501.527 476.986C501.527 474.697 501.988 472.742 502.909 471.123C503.83 469.504 505.114 468.262 506.762 467.396C508.437 466.531 510.349 466.098 512.499 466.098C514.704 466.098 516.575 466.531 518.11 467.396C519.674 468.234 520.86 469.406 521.67 470.914C522.479 472.393 522.884 474.096 522.884 476.023C522.884 476.525 522.87 477.028 522.842 477.53C522.814 478.033 522.773 478.452 522.717 478.787H506.133V474.976H519.576L516.184 476.274C516.184 474.599 515.877 473.315 515.263 472.421C514.676 471.528 513.755 471.081 512.499 471.081C511.605 471.081 510.838 471.291 510.195 471.709C509.581 472.128 509.107 472.784 508.772 473.678C508.465 474.571 508.311 475.716 508.311 477.112C508.311 478.48 508.492 479.596 508.855 480.462C509.218 481.299 509.735 481.914 510.405 482.304C511.075 482.667 511.885 482.849 512.834 482.849C513.895 482.849 514.732 482.639 515.346 482.221C515.988 481.802 516.463 481.216 516.77 480.462L522.465 482.346C522.075 483.547 521.391 484.566 520.413 485.403C519.464 486.213 518.32 486.827 516.98 487.246C515.667 487.665 514.285 487.874 512.834 487.874ZM531.055 487.455V466.517H537.336L537.629 471.039C538.16 469.476 538.941 468.262 539.974 467.396C541.035 466.531 542.375 466.098 543.995 466.098C544.525 466.098 544.972 466.14 545.335 466.224C545.726 466.307 546.033 466.419 546.256 466.559L545.544 472.421C545.265 472.31 544.902 472.226 544.455 472.17C544.036 472.086 543.52 472.044 542.906 472.044C542.068 472.044 541.287 472.226 540.561 472.589C539.835 472.952 539.249 473.496 538.802 474.222C538.383 474.92 538.174 475.813 538.174 476.902V487.455H531.055Z" fill="#D9D9D9"/>
<g clip-path="url(#clip0_626_4051)">
<path d="M293.754 36.1912C225.924 54.9448 237.482 32.3538 234.008 7.10146C284.887 -7.55481 327.353 3.75918 349.647 11.7434C340.957 19.9133 306.195 39.1621 283.459 43.4946C309.606 43.4946 341.437 27.8975 341.437 27.8975C341.437 27.8975 341.132 39.2441 343.394 51.1693C345.686 63.2492 350.553 75.9181 352.047 77.2263C354.421 79.3059 371.688 72.6875 380.025 69.1183C358.931 88.8622 349.331 93.2566 333.795 95.2371C324.804 96.3833 314.616 108.606 309.606 114.857C313.634 112.076 316.994 107.263 327.732 102.974C335.14 100.014 349.159 98.1475 356.72 93.9374C366.104 88.7126 378.825 76.0132 380.025 74.6268C393.01 59.6239 405.793 60.2676 412.866 62.9909C412.866 62.9909 418.109 65.0952 423.666 72.7699C429.481 81.7505 437.278 93.2292 442.171 105.821C448.812 122.908 451.228 137.476 450.617 140.156C451.056 143.993 446.998 148.473 446.998 148.473C446.998 148.473 439.104 157.512 434.641 158.626C436.207 153.477 437.69 129.161 433.143 125.11C431.059 123.253 421.955 120.778 423.407 125.11C424.525 128.445 422.797 141.71 421.66 139.544C420.75 137.811 411.855 132.561 409.203 131.715C413.182 133.387 418.536 146.526 418.789 149.641C417.842 156.078 415.708 158.182 409.203 161.834C395.922 169.289 391.487 179.555 392.203 183.702C391.041 185.88 328.502 203.859 321.681 202.126L300.322 191.728C284.706 183.969 288.095 157.819 289.234 151.183C283.877 179.025 276.281 176.894 274.049 175.203C254.849 160.658 204.978 137.142 199.462 135.963C192.515 134.477 184.431 125.565 182.41 115.6C182.41 108.08 189.883 99.5284 193.336 97.7129C180.073 102.107 178.052 113.619 178.052 113.619C178.052 113.619 163.021 99.941 157.526 92.6376C154.583 88.7261 145.639 92.3191 145.274 99.4459C145.274 105.078 154.116 113.619 154.116 113.619C154.116 113.619 145.629 110.188 141.358 109.039C136.465 107.724 131.822 108.049 131.822 108.049C132.895 79.0211 171.547 50.3647 182.978 49.1268C185.924 48.2879 197.304 49.2914 210.577 54.3258C219.122 57.5668 228.859 65.0208 236.282 66.2712C253.909 69.2405 260.976 62.9909 260.976 62.9909C263.944 77.5357 271.144 92.1838 278.028 102.974C278.028 102.974 273.417 101.179 265.397 99.4459C259.003 97.7166 250.564 97.3729 245.25 95.2371C233.969 90.7033 230.391 85.8868 230.787 86.634C235.357 95.2445 248.302 100.663 256.176 101.674C257.186 101.674 269.643 103.541 276.07 105.573C282.693 107.667 292.469 113.969 291.354 113.186C277.081 103.159 266.134 62.0418 263.06 45.9703C268.997 44.1135 291.038 39.5953 293.754 36.1912Z" fill="#EB79A1"/>
<path d="M449.875 178.05C445.076 178.05 444.633 174.46 447.665 170.561C449.704 167.302 454.315 160.165 456.444 157.687C459.981 164.681 458.702 181.206 458.465 180.402C457.77 178.05 453.096 178.05 449.875 178.05Z" fill="#EB79A1"/>
<path d="M116.854 134.849C117.221 129.628 123.05 129.702 123.405 129.711C123.109 129.699 119.052 129.432 120.391 123.646C121.344 119.526 124.869 119.392 126.472 119.556C125.268 119.209 123.4 117.926 126.011 113.186C131.127 103.902 165.736 121.789 165.736 121.789C161.105 116.982 149.569 105.489 148.621 100.931C147.115 93.6898 155.477 93.5041 155.821 95.2371C156.595 99.1364 172.178 113.496 176.789 117.89C181.399 122.284 185.757 137.51 197.63 139.924C197.63 139.924 223.777 149.641 250.555 166.414C272.238 178.918 295.423 194.778 311.879 204.54C310.414 206.521 273.102 217.043 256.239 217.043C256.239 204.54 193.904 168.828 176.789 166.414C176.789 166.414 157.777 170.544 147.8 168.952C133.546 166.677 123.422 158.987 123.422 158.987C123.422 158.987 115.212 151.993 115.591 146.98C116.087 140.419 121.275 140.914 121.275 140.914C121.275 140.914 116.461 140.436 116.854 134.849Z" fill="#EB79A1"/>
<path d="M352.047 232.875C351.163 232.132 340.615 236.353 301.711 256.902C325.921 279.926 386.86 311.227 403.961 296.204C413.119 288.158 421.871 278.357 428.656 267.733C440.34 250.65 448.609 227.238 452.275 216.3C436.297 224.532 419.635 220.802 411.425 217.707C399.724 213.297 370.804 222.367 358.804 228.227C357.547 229.822 359.323 232.138 364.551 234.558C370.881 237.489 380.404 239.448 380.404 239.448C380.404 239.448 370.735 239.853 363.667 237.653C357.999 235.889 354.192 234.215 352.047 232.875Z" fill="#EB79A1"/>
<path d="M197.63 297.008C188.41 299.546 221.251 308.397 221.251 308.397C221.251 308.397 211.497 309.285 199.462 306.849C192.894 305.52 188.663 302.641 188.663 302.641C185.063 300.227 182.663 300.908 182.663 300.908C170.979 302.579 213.104 336.867 272.723 342.562C326.027 344.914 355.728 328.969 364.551 324.489C368.972 322.57 368.342 319.537 368.342 319.537C367.205 315.081 344.532 316.876 344.532 316.876C357.731 313.162 382.272 304.98 374.846 301.96C368.531 300.444 362.721 298.309 358.804 297.008C356.945 297.86 344.531 302.393 332.279 302.393C318.273 302.485 303.416 299.979 303.416 299.979C303.416 299.979 333.289 302.826 350.341 294.718C350.341 294.718 327.668 285.868 315.542 278.626C301.767 270.4 290.533 260.739 290.533 260.739C290.533 260.739 270.765 271.207 250.555 279.431C230.645 287.532 210.386 293.364 197.63 297.008Z" fill="#EB79A1"/>
<path d="M172.65 297.008C114.056 240.505 111.987 180.542 116.854 158.987C146.438 181.989 175.396 170.124 175.396 170.124C175.396 170.124 187.95 173.108 209.471 185.047C233.988 198.649 243.724 208.19 248.217 215.04C212.769 217.242 197.333 224.027 197.114 229.572C199.033 227.961 203.283 223.091 233.061 220.643C243.973 219.443 251.761 221.037 265.514 219.053C280.564 216.88 296.771 212.562 308.575 210.001C342.72 202.591 366.615 195.445 393.826 187.249C392.203 173.672 409.927 164.497 417.915 158.626C421.331 156.115 427.152 133.428 425.779 125.11C432.269 124.441 433.143 130.125 433.143 130.125C433.143 130.125 434.026 134.283 434.141 142.602C434.237 149.473 432.634 157.18 432.144 162.418C437.306 160.297 444.24 156.705 447.996 151.898C449.872 149.499 449.875 146.394 453.987 144.192C459.729 143.091 456.359 149.986 455.111 155.446C454.618 156.669 439.633 172.938 443.628 178.809C446.995 180.552 452.199 180.022 453.987 180.402C456.885 181.016 457.607 182.979 457.607 184.313C457.108 189.573 452.631 189.048 451.366 190.062C453.742 192.094 455.702 193.579 455.117 196.301C453.987 201.561 449.875 201.928 449.875 201.928C449.875 201.928 453.238 203.151 454.237 206.576C454.736 209.634 453.907 213.651 451.491 214.404C425.546 222.494 408.844 214.364 403.961 211.958C383.965 211.958 339.156 229.694 289.522 254.77C233.399 279.839 179.354 303.474 172.65 297.008Z" fill="#EB79A1"/>
</g>
<defs>
<clipPath id="clip0_626_4051">
<rect x="115.162" width="343.722" height="342.797" rx="171.398" fill="white"/>
</clipPath>
</defs>
</svg>
