<svg width="352" height="70" viewBox="0 0 352 70" fill="none" xmlns="http://www.w3.org/2000/svg">
<rect width="352" height="70" rx="20" fill="#65BDAB"/>
<path d="M27.16 25.7V27.95H20.26V45.5H17.86V27.95H10.96V25.7H27.16ZM31.6267 27.62C31.0867 27.62 30.6467 27.46 30.3067 27.14C29.9867 26.8 29.8267 26.36 29.8267 25.82C29.8267 25.28 29.9867 24.85 30.3067 24.53C30.6467 24.19 31.0867 24.02 31.6267 24.02C32.1667 24.02 32.5967 24.19 32.9167 24.53C33.2567 24.85 33.4267 25.28 33.4267 25.82C33.4267 26.36 33.2567 26.8 32.9167 27.14C32.5967 27.46 32.1667 27.62 31.6267 27.62ZM32.8267 30.5V45.5H30.4267V30.5H32.8267ZM40.6755 23.6V41.69C40.6755 42.45 40.8155 42.98 41.0955 43.28C41.3755 43.56 41.8255 43.7 42.4455 43.7C42.8455 43.7 43.1755 43.67 43.4355 43.61C43.6955 43.55 44.0455 43.44 44.4855 43.28L44.0955 45.38C43.7755 45.52 43.4255 45.62 43.0455 45.68C42.6655 45.76 42.2755 45.8 41.8755 45.8C40.6555 45.8 39.7455 45.47 39.1455 44.81C38.5655 44.15 38.2755 43.14 38.2755 41.78V23.6H40.6755ZM53.6554 23.45C54.1754 23.45 54.6654 23.51 55.1254 23.63C55.5854 23.75 55.9454 23.92 56.2054 24.14L55.5754 26.09C55.3354 25.93 55.0754 25.82 54.7954 25.76C54.5154 25.68 54.2054 25.64 53.8654 25.64C53.0054 25.64 52.3354 25.85 51.8554 26.27C51.3754 26.67 51.1354 27.32 51.1354 28.22V30.5V31.28V45.5H48.7354V27.98C48.7354 27.32 48.8354 26.71 49.0354 26.15C49.2354 25.59 49.5354 25.11 49.9354 24.71C50.3554 24.31 50.8754 24 51.4954 23.78C52.1154 23.56 52.8354 23.45 53.6554 23.45ZM56.1454 30.5V32.57H45.7354V30.5H56.1454ZM65.1426 30.2C66.5626 30.2 67.8126 30.51 68.8926 31.13C69.9926 31.75 70.8526 32.65 71.4726 33.83C72.0926 34.99 72.4026 36.38 72.4026 38C72.4026 39.62 72.0926 41.02 71.4726 42.2C70.8526 43.36 69.9926 44.25 68.8926 44.87C67.8126 45.49 66.5626 45.8 65.1426 45.8C63.7426 45.8 62.4926 45.49 61.3926 44.87C60.2926 44.25 59.4326 43.36 58.8126 42.2C58.1926 41.02 57.8826 39.62 57.8826 38C57.8826 36.38 58.1926 34.99 58.8126 33.83C59.4326 32.65 60.2926 31.75 61.3926 31.13C62.4926 30.51 63.7426 30.2 65.1426 30.2ZM65.1426 32.27C64.1226 32.27 63.2526 32.5 62.5326 32.96C61.8126 33.42 61.2526 34.08 60.8526 34.94C60.4726 35.78 60.2826 36.8 60.2826 38C60.2826 39.18 60.4726 40.2 60.8526 41.06C61.2526 41.92 61.8126 42.58 62.5326 43.04C63.2526 43.5 64.1226 43.73 65.1426 43.73C66.1626 43.73 67.0326 43.5 67.7526 43.04C68.4726 42.58 69.0226 41.92 69.4026 41.06C69.8026 40.2 70.0026 39.18 70.0026 38C70.0026 36.8 69.8026 35.78 69.4026 34.94C69.0226 34.08 68.4726 33.42 67.7526 32.96C67.0326 32.5 66.1626 32.27 65.1426 32.27ZM57.7926 46.4L70.4826 29.6H72.4926L59.8026 46.4H57.7926ZM78.1209 27.62C77.5809 27.62 77.1409 27.46 76.8009 27.14C76.4809 26.8 76.3209 26.36 76.3209 25.82C76.3209 25.28 76.4809 24.85 76.8009 24.53C77.1409 24.19 77.5809 24.02 78.1209 24.02C78.6609 24.02 79.0909 24.19 79.4109 24.53C79.7509 24.85 79.9209 25.28 79.9209 25.82C79.9209 26.36 79.7509 26.8 79.4109 27.14C79.0909 27.46 78.6609 27.62 78.1209 27.62ZM79.3209 30.5V47.03C79.3209 48.27 79.0809 49.25 78.6009 49.97C78.1209 50.69 77.5309 51.2 76.8309 51.5C76.1309 51.8 75.4409 51.95 74.7609 51.95C74.1409 51.95 73.5709 51.85 73.0509 51.65C72.5309 51.47 72.1009 51.24 71.7609 50.96L72.2709 48.68C72.5509 48.94 72.9009 49.16 73.3209 49.34C73.7409 49.52 74.2109 49.61 74.7309 49.61C75.3709 49.61 75.8909 49.4 76.2909 48.98C76.7109 48.56 76.9209 47.83 76.9209 46.79V30.5H79.3209ZM91.1596 45.8C89.7396 45.8 88.4696 45.49 87.3496 44.87C86.2496 44.25 85.3896 43.36 84.7696 42.2C84.1496 41.02 83.8396 39.62 83.8396 38C83.8396 36.38 84.1496 34.99 84.7696 33.83C85.3896 32.65 86.2396 31.75 87.3196 31.13C88.3996 30.51 89.6296 30.2 91.0096 30.2C92.4096 30.2 93.5996 30.5 94.5796 31.1C95.5796 31.7 96.3396 32.52 96.8596 33.56C97.3796 34.58 97.6396 35.73 97.6396 37.01C97.6396 37.35 97.6296 37.66 97.6096 37.94C97.5896 38.22 97.5596 38.47 97.5196 38.69H85.3996V36.56H96.4696L95.2396 36.8C95.2396 35.36 94.8396 34.25 94.0396 33.47C93.2596 32.69 92.2296 32.3 90.9496 32.3C89.9696 32.3 89.1196 32.53 88.3996 32.99C87.6996 33.43 87.1496 34.08 86.7496 34.94C86.3696 35.78 86.1796 36.8 86.1796 38C86.1796 39.18 86.3796 40.2 86.7796 41.06C87.1796 41.92 87.7396 42.58 88.4596 43.04C89.1996 43.48 90.0796 43.7 91.0996 43.7C92.1996 43.7 93.0896 43.49 93.7696 43.07C94.4696 42.65 95.0296 42.08 95.4496 41.36L97.3396 42.47C96.9596 43.15 96.4696 43.74 95.8696 44.24C95.2896 44.74 94.5996 45.13 93.7996 45.41C93.0196 45.67 92.1396 45.8 91.1596 45.8ZM105.305 26.24V41.36C105.305 42.1 105.515 42.65 105.935 43.01C106.355 43.37 106.895 43.55 107.555 43.55C108.135 43.55 108.635 43.45 109.055 43.25C109.475 43.05 109.855 42.78 110.195 42.44L111.035 44.45C110.575 44.87 110.025 45.2 109.385 45.44C108.765 45.68 108.045 45.8 107.225 45.8C106.465 45.8 105.755 45.67 105.095 45.41C104.435 45.13 103.905 44.7 103.505 44.12C103.125 43.52 102.925 42.74 102.905 41.78V26.9L105.305 26.24ZM110.765 30.5V32.57H99.9046V30.5H110.765ZM127.512 26.24V41.36C127.512 42.1 127.722 42.65 128.142 43.01C128.562 43.37 129.102 43.55 129.762 43.55C130.342 43.55 130.842 43.45 131.262 43.25C131.682 43.05 132.062 42.78 132.402 42.44L133.242 44.45C132.782 44.87 132.232 45.2 131.592 45.44C130.972 45.68 130.252 45.8 129.432 45.8C128.672 45.8 127.962 45.67 127.302 45.41C126.642 45.13 126.112 44.7 125.712 44.12C125.332 43.52 125.132 42.74 125.112 41.78V26.9L127.512 26.24ZM132.972 30.5V32.57H122.112V30.5H132.972ZM137.74 27.62C137.2 27.62 136.76 27.46 136.42 27.14C136.1 26.8 135.94 26.36 135.94 25.82C135.94 25.28 136.1 24.85 136.42 24.53C136.76 24.19 137.2 24.02 137.74 24.02C138.28 24.02 138.71 24.19 139.03 24.53C139.37 24.85 139.54 25.28 139.54 25.82C139.54 26.36 139.37 26.8 139.03 27.14C138.71 27.46 138.28 27.62 137.74 27.62ZM138.94 30.5V45.5H136.54V30.5H138.94ZM146.789 23.6V41.69C146.789 42.45 146.929 42.98 147.209 43.28C147.489 43.56 147.939 43.7 148.559 43.7C148.959 43.7 149.289 43.67 149.549 43.61C149.809 43.55 150.159 43.44 150.599 43.28L150.209 45.38C149.889 45.52 149.539 45.62 149.159 45.68C148.779 45.76 148.389 45.8 147.989 45.8C146.769 45.8 145.859 45.47 145.259 44.81C144.679 44.15 144.389 43.14 144.389 41.78V23.6H146.789ZM176.019 30.5L169.539 36.98L168.969 37.55L164.049 42.47V39.47L172.989 30.5H176.019ZM165.249 23.6V45.5H162.849V23.6H165.249ZM169.749 35.75L176.379 45.5H173.469L167.739 37.1L169.749 35.75ZM185.3 45.8C184.34 45.8 183.43 45.62 182.57 45.26C181.73 44.9 181.04 44.32 180.5 43.52C179.98 42.7 179.72 41.64 179.72 40.34V30.5H182.12V39.71C182.12 41.23 182.45 42.28 183.11 42.86C183.77 43.42 184.7 43.7 185.9 43.7C186.46 43.7 187.01 43.61 187.55 43.43C188.09 43.23 188.57 42.93 188.99 42.53C189.43 42.11 189.77 41.58 190.01 40.94C190.27 40.3 190.4 39.54 190.4 38.66V30.5H192.8V45.5H190.7L190.55 43.22C190.03 44.12 189.32 44.78 188.42 45.2C187.54 45.6 186.5 45.8 185.3 45.8ZM198.386 45.5V30.5H200.336L200.666 32.96C201.086 32.04 201.696 31.35 202.496 30.89C203.316 30.43 204.306 30.2 205.466 30.2C205.726 30.2 206.006 30.22 206.306 30.26C206.626 30.3 206.896 30.38 207.116 30.5L206.696 32.69C206.476 32.61 206.236 32.55 205.976 32.51C205.716 32.47 205.346 32.45 204.866 32.45C204.246 32.45 203.616 32.63 202.976 32.99C202.356 33.35 201.836 33.9 201.416 34.64C200.996 35.36 200.786 36.28 200.786 37.4V45.5H198.386ZM220.562 30.5H223.082L216.842 45.5H214.442L208.202 30.5H210.932L215.672 43.07L220.562 30.5ZM228.768 25.7V34.28L228.408 39.26H226.608L226.248 34.28V25.7H228.768ZM227.508 41.9C228.088 41.9 228.558 42.08 228.918 42.44C229.278 42.8 229.458 43.27 229.458 43.85C229.458 44.43 229.278 44.9 228.918 45.26C228.558 45.62 228.088 45.8 227.508 45.8C226.928 45.8 226.458 45.62 226.098 45.26C225.738 44.9 225.558 44.43 225.558 43.85C225.558 43.27 225.738 42.8 226.098 42.44C226.458 42.08 226.928 41.9 227.508 41.9Z" fill="#E4E4E4"/>
<path d="M266.155 43.2196C271.296 44.7857 272.04 43.1573 279.122 40.533L275.858 35.2625C270.109 40.8023 265.626 40.8927 261.352 37.7809C246.46 27.0953 244.774 18.8302 246.911 15.8626C247.386 15.2038 249.351 15.0851 251.041 17.7517L254.907 23.3985L257.92 17.5815C258.379 16.782 259.063 14.5458 260.387 15.0297C260.851 15.2152 261.751 15.9617 261.647 17.4642C260.687 21.0074 258.222 28.1111 257.549 29.9291C257.031 31.3318 258.557 32.6179 259.948 30.7105C261.576 27.7823 265.232 21.4412 265.08 17.8639C265.308 16.5483 264.893 13.5199 261.412 11.9305C260.833 11.9077 258.066 11.1118 256.291 13.8871C255.807 14.8655 254.62 17.8931 254.433 18.4253L251.52 14.1897C249.575 11.7092 238.918 12.0247 242.873 21.0109C246.828 29.9971 255.611 40.0075 266.155 43.2196Z" fill="#E66A9D"/>
<path fill-rule="evenodd" clip-rule="evenodd" d="M308.794 13.8135C294.003 6.20012 280.005 11.6654 275.173 15.7306C272.818 17.713 271.303 19.4513 270.652 21.269C269.987 23.1287 270.259 24.9673 271.222 27.0515C274.697 34.5781 278.82 41.395 281.779 46.2861C282.617 47.6718 283.361 48.9029 283.971 49.9518L283.972 49.9529L283.973 49.9542C284.274 50.4671 284.645 51.1904 285.077 52.0305C285.123 52.1215 285.171 52.2138 285.219 52.3073C285.706 53.2552 286.256 54.3155 286.837 55.3179C287.415 56.3166 288.038 57.2808 288.674 58.0288C289.288 58.7497 290.011 59.3868 290.811 59.5319C290.982 59.5629 291.159 59.5965 291.34 59.6308C292.326 59.8178 293.444 60.03 294.502 59.9965C295.799 59.9555 297.088 59.5476 298.07 58.2869C301.52 53.857 303.127 50.7052 305.738 45.5862L305.738 45.5859L305.74 45.5838L305.741 45.5813C306.154 44.7718 306.592 43.9131 307.066 42.9923L307.076 42.9723L307.085 42.9517C307.486 42.0108 307.971 41.0221 308.502 40.0121L312.344 47.8169L312.38 47.89L312.434 47.9514C315.75 51.7324 319.306 53.233 322.637 53.2418C325.948 53.2506 328.945 51.7854 331.171 49.8079L331.222 49.7621L331.263 49.7059C334.219 45.5789 336.286 42.3093 337.579 39.6076C338.871 36.9069 339.413 34.7219 339.256 32.7797C339.098 30.8212 338.235 29.1949 336.892 27.6047C335.643 26.1264 333.944 24.6398 331.955 22.9245C331.839 22.8251 331.723 22.7248 331.606 22.6238C331.603 22.621 331.599 22.6183 331.596 22.6155L331.596 22.6154L331.563 22.587L331.414 22.4584L331.345 22.424C330.625 22.0642 329.952 21.7955 329.334 21.6094C328.734 21.4285 328.186 21.3255 327.696 21.2928C326.734 21.2285 325.857 21.4318 325.364 22.0324C324.825 22.6899 324.957 23.5381 325.417 24.2594C325.603 24.5523 325.854 24.8465 326.168 25.1371C326.628 25.5629 327.223 25.9809 327.949 26.3753C328.157 26.4884 328.358 26.6016 328.552 26.715C330.49 27.8445 331.754 28.9858 332.547 30.1095C333.413 31.3358 333.738 32.5694 333.737 33.8098C333.735 35.0644 333.401 36.3452 332.914 37.6514C332.581 38.5472 332.19 39.42 331.798 40.2963L331.798 40.2969C331.622 40.6907 331.446 41.0851 331.274 41.4827C328.32 45.6557 325.754 47.7823 323.586 48.5419C321.474 49.2821 319.656 48.7519 318.047 47.3515C316.405 45.9232 315.004 43.5996 313.86 40.8387C313.004 38.7725 312.305 36.4935 311.761 34.2259C312.913 32.2214 313.964 30.3352 314.552 28.8482L314.556 28.8402C314.559 28.8346 314.562 28.8281 314.565 28.8206C314.578 28.7931 314.596 28.7532 314.619 28.7021C314.665 28.5999 314.729 28.4525 314.806 28.2688C314.96 27.9019 315.165 27.3878 315.366 26.7985C315.76 25.6417 316.172 24.1131 316.111 22.8325C316.054 21.619 315.531 20.4493 314.833 19.4043C314.133 18.3546 313.23 17.3877 312.349 16.571C311.465 15.7523 310.591 15.0716 309.939 14.596C309.612 14.3578 309.34 14.1702 309.148 14.0415C309.052 13.9771 308.976 13.9274 308.924 13.8935C308.898 13.8765 308.878 13.8635 308.864 13.8545C308.856 13.85 308.851 13.8466 308.847 13.8441L308.844 13.8423L308.843 13.8412C308.842 13.8409 308.841 13.8406 308.841 13.8403L308.841 13.84C308.84 13.8408 308.827 13.8615 308.51 14.3623L308.84 13.8397L308.818 13.8257L308.794 13.8135ZM301.024 27.1904C299.352 26.7926 297.806 25.4109 296.892 24.2319L296.402 24.6094C296.442 24.6615 296.484 24.714 296.527 24.7669L294.166 26.552L294.541 27.044L296.931 25.2367C297.268 25.6066 297.657 25.9811 298.086 26.3283L296.574 28.5446L297.087 28.892L298.58 26.7025C299.128 27.089 299.727 27.4192 300.357 27.6379L299.743 29.8238L300.34 29.9903L300.953 27.8077C301.653 27.9634 302.384 27.9685 303.114 27.7516L303.591 29.9717L304.197 29.8424L303.7 27.5282C303.738 27.5103 303.776 27.492 303.814 27.4728C304.245 27.2555 304.665 26.9548 305.071 26.5605L306.681 28.5465L307.162 28.1585L305.498 26.1048C305.722 25.8439 305.94 25.5519 306.153 25.227L308.541 26.2584L308.788 25.6918L306.48 24.6948C306.503 24.6539 306.527 24.6126 306.55 24.5709L306.009 24.2704C305.222 25.6786 304.373 26.4984 303.534 26.9218C302.7 27.343 301.849 27.3867 301.024 27.1904ZM288.417 24.2319C287.504 25.411 285.958 26.7926 284.286 27.1904C283.461 27.3867 282.609 27.343 281.775 26.9218C280.937 26.4984 280.088 25.6786 279.301 24.2704L278.76 24.5709C278.783 24.6126 278.807 24.6538 278.83 24.6947L276.522 25.6918L276.768 26.2584L279.156 25.227C279.369 25.5519 279.588 25.8439 279.811 26.1048L278.147 28.1585L278.629 28.5465L280.238 26.5605C280.645 26.9548 281.065 27.2555 281.495 27.4728C281.533 27.492 281.572 27.5103 281.61 27.5282L281.112 29.8424L281.718 29.9717L282.196 27.7516C282.925 27.9685 283.657 27.9634 284.357 27.8077L284.97 29.9903L285.567 29.8238L284.953 27.6379C285.583 27.4193 286.182 27.0891 286.729 26.7027L288.223 28.892L288.735 28.5446L287.223 26.3283C287.652 25.9811 288.042 25.6066 288.379 25.2367L290.769 27.044L291.143 26.552L288.783 24.7669C288.826 24.7139 288.867 24.6615 288.908 24.6094L288.417 24.2319ZM293.259 39.7313C292.896 38.7505 292.098 37.7953 290.725 37.8668C290.139 37.8974 289.693 38.0892 289.511 38.5064C289.34 38.8991 289.455 39.3877 289.697 39.881C290.189 40.8858 291.345 42.1889 292.861 43.5214L293.274 43.8839L293.859 43.5214C294.091 43.3039 294.315 43.0973 294.528 42.901C294.528 42.9007 294.529 42.9003 294.529 42.9C294.529 42.8996 294.53 42.8993 294.53 42.8989C295.074 42.3973 295.545 41.9629 295.901 41.5851C296.395 41.0612 296.745 40.6297 296.958 40.2538C297.173 39.8747 297.26 39.5287 297.193 39.189C297.127 38.8558 296.921 38.5747 296.651 38.3056C296.349 38.0054 296.009 37.8724 295.66 37.8782C295.319 37.8839 294.996 38.021 294.717 38.2112C294.163 38.5885 293.462 39.3717 293.274 39.881V39.7726L293.259 39.7313Z" fill="#E66A9D"/>
<path d="M296.892 24.2319C297.806 25.4109 299.352 26.7926 301.024 27.1904C301.849 27.3867 302.7 27.343 303.534 26.9218C304.373 26.4984 305.222 25.6786 306.009 24.2704L306.55 24.5709C306.527 24.6126 306.503 24.6539 306.48 24.6948L308.788 25.6918L308.541 26.2584L306.153 25.227C305.94 25.5519 305.722 25.8439 305.498 26.1048L307.162 28.1585L306.681 28.5465L305.071 26.5605C304.665 26.9548 304.245 27.2555 303.814 27.4728C303.776 27.492 303.738 27.5103 303.7 27.5282L304.197 29.8424L303.591 29.9717L303.114 27.7516C302.384 27.9685 301.653 27.9634 300.953 27.8077L300.34 29.9903L299.743 29.8238L300.357 27.6379C299.727 27.4192 299.128 27.089 298.58 26.7025L297.087 28.892L296.574 28.5446L298.086 26.3283C297.657 25.9811 297.268 25.6066 296.931 25.2367L294.541 27.044L294.166 26.552L296.527 24.7669C296.484 24.714 296.442 24.6615 296.402 24.6094L296.892 24.2319Z" fill="#0B0B0B"/>
<path d="M288.417 24.2319C287.504 25.411 285.958 26.7926 284.286 27.1904C283.461 27.3867 282.609 27.343 281.775 26.9218C280.937 26.4984 280.088 25.6786 279.301 24.2704L278.76 24.5709C278.783 24.6126 278.807 24.6538 278.83 24.6947L276.522 25.6918L276.768 26.2584L279.156 25.227C279.369 25.5519 279.588 25.8439 279.811 26.1048L278.147 28.1585L278.629 28.5465L280.238 26.5605C280.645 26.9548 281.065 27.2555 281.495 27.4728C281.533 27.492 281.572 27.5103 281.61 27.5282L281.112 29.8424L281.718 29.9717L282.196 27.7516C282.925 27.9685 283.657 27.9634 284.357 27.8077L284.97 29.9903L285.567 29.8238L284.953 27.6379C285.583 27.4193 286.182 27.0891 286.729 26.7027L288.223 28.892L288.735 28.5446L287.223 26.3283C287.652 25.9811 288.042 25.6066 288.379 25.2367L290.769 27.044L291.143 26.552L288.783 24.7669C288.826 24.7139 288.867 24.6615 288.908 24.6094L288.417 24.2319Z" fill="#0D0D0D"/>
<path d="M319.302 23.11C318.735 23.5808 318.245 24.3626 318.1 25.5967L318.091 25.6763L319.22 26.6836L317.772 29.2569L320.381 31.584L319.219 32.8788L321.33 34.7614L322.492 33.4665L325.522 36.1689L327.688 34.2357L328.988 35.395L329.076 35.3619C329.481 35.2098 330.096 34.8767 330.646 34.3664C331.197 33.8557 331.693 33.1582 331.835 32.2777L331.849 32.1944L327.286 28.1254L328.552 26.715C328.358 26.6016 328.157 26.4884 327.949 26.3753C327.223 25.9809 326.628 25.5629 326.168 25.1371L325.175 26.2429L320.975 22.4968L320.917 22.4958C320.497 22.4897 319.866 22.6424 319.302 23.11Z" fill="#FFD678"/>
<path fill-rule="evenodd" clip-rule="evenodd" d="M331.955 22.9245L328.552 26.715C328.358 26.6016 328.157 26.4884 327.949 26.3753C327.223 25.9809 326.628 25.5629 326.168 25.1371L329.334 21.6094C329.952 21.7955 330.625 22.0642 331.345 22.424L331.414 22.4584L331.563 22.587L331.596 22.6154L331.596 22.6155L331.606 22.6238C331.723 22.7248 331.839 22.8251 331.955 22.9245Z" fill="#E66A9D"/>
<path d="M331.345 22.424L331.414 22.4584L331.563 22.587L331.596 22.6154L331.596 22.6155L331.606 22.6238C331.723 22.7248 331.839 22.8251 331.955 22.9245L334.175 20.4505L338.738 24.5195L338.82 24.4969C339.682 24.2582 340.322 23.69 340.771 23.0876C341.218 22.4858 341.482 21.8393 341.589 21.4218L341.612 21.3311L340.313 20.1718L342 17.8119L338.97 15.1095L340.132 13.8146L338.021 11.9321L336.859 13.2269L334.249 10.8999L331.844 12.6197L330.715 11.6124L330.636 11.6305C329.422 11.9109 328.697 12.4826 328.29 13.0972C327.886 13.7075 327.804 14.3496 327.857 14.7646L327.864 14.8219L332.064 18.5679L329.334 21.6094C329.952 21.7955 330.625 22.0642 331.345 22.424Z" fill="#FFD678"/>
<path d="M290.725 37.8668C292.098 37.7953 292.896 38.7505 293.259 39.7313L293.274 39.7726V39.881C293.462 39.3717 294.163 38.5885 294.717 38.2112C294.996 38.021 295.319 37.8839 295.66 37.8782C296.009 37.8724 296.349 38.0054 296.651 38.3056C296.921 38.5747 297.127 38.8558 297.193 39.189C297.26 39.5287 297.173 39.8747 296.958 40.2538C296.745 40.6297 296.395 41.0612 295.901 41.5851C295.545 41.9629 295.074 42.3973 294.53 42.8989L294.529 42.9L294.528 42.901C294.315 43.0973 294.091 43.3039 293.859 43.5214L293.274 43.8839L292.861 43.5214C291.345 42.1889 290.189 40.8858 289.697 39.881C289.455 39.3877 289.34 38.8991 289.511 38.5064C289.693 38.0892 290.139 37.8974 290.725 37.8668Z" fill="#940200"/>
</svg>
