<svg width="287" height="290" viewBox="0 0 287 290" fill="none" xmlns="http://www.w3.org/2000/svg">
<g filter="url(#filter0_d_848_22630)">
<path fill-rule="evenodd" clip-rule="evenodd" d="M160.485 8.22519C158.456 5.66052 155.875 3.58853 152.934 2.16419C149.994 0.739839 146.77 0 143.504 0C140.237 0 137.013 0.739839 134.073 2.16419C131.132 3.58853 128.551 5.66052 126.522 8.22519C122.783 12.9411 118.032 19.0012 112.731 25.9428C110.029 29.4548 106.385 32.1239 102.225 33.638C98.0648 35.1521 93.5606 35.4487 89.2385 34.4931C81.5771 32.7767 73.9001 31.1312 66.2084 29.5568C63.0094 28.8979 59.7031 28.972 56.5367 29.7736C53.3703 30.5752 50.4258 32.0835 47.9233 34.1858C45.4208 36.2882 43.4251 38.9301 42.0853 41.914C40.7456 44.8979 40.0965 48.1467 40.1867 51.4174C40.4286 61.0034 40.9125 74.9086 41.8144 90.4005L41.7484 90.5327C31.2561 95.9097 22.1057 100.802 15.3528 104.46C12.4796 106.018 9.99538 108.207 8.0859 110.863C6.17643 113.518 4.89117 116.573 4.32631 119.796C3.76144 123.02 3.93159 126.33 4.82402 129.479C5.71645 132.627 7.30806 135.533 9.47975 137.978C15.0008 144.236 22.7656 152.875 31.6961 162.461L31.7181 162.615C26.7008 174.301 21.8611 186.063 17.2005 197.896C15.9943 200.939 15.491 204.217 15.7283 207.483C15.9656 210.749 16.9374 213.918 18.5709 216.755C20.2043 219.591 22.4571 222.02 25.1606 223.86C27.864 225.701 30.948 226.904 34.1817 227.381C42.4303 228.615 53.8904 230.246 66.8463 231.811C66.9049 231.826 66.9489 231.862 66.9782 231.921C71.2015 245.98 75.2489 258.431 78.1304 267.114C79.1579 270.224 80.875 273.061 83.1528 275.412C85.4306 277.763 88.2101 279.567 91.2828 280.689C94.3556 281.81 97.6419 282.22 100.895 281.888C104.149 281.556 107.285 280.491 110.069 278.771C118.318 273.703 130.284 266.21 143.416 257.528H143.592C156.723 266.21 168.667 273.681 176.938 278.771C179.722 280.491 182.858 281.556 186.112 281.888C189.365 282.22 192.652 281.81 195.724 280.689C198.797 279.567 201.577 277.763 203.854 275.412C206.132 273.061 207.849 270.224 208.877 267.114C210.746 261.472 213.122 254.222 215.696 246.003C218.401 237.408 225.836 231.15 234.744 229.938C241.695 229.012 247.832 228.131 252.803 227.381C256.037 226.904 259.121 225.701 261.825 223.86C264.528 222.02 266.781 219.591 268.414 216.755C270.048 213.918 271.02 210.749 271.257 207.483C271.494 204.217 270.991 200.939 269.785 197.896C265.124 186.07 260.284 174.316 255.267 162.637L255.311 162.461C262.822 154.396 270.228 146.235 277.527 137.978C279.698 135.531 281.289 132.624 282.179 129.475C283.07 126.325 283.238 123.015 282.671 119.791C282.104 116.567 280.817 113.513 278.905 110.858C276.993 108.203 274.507 106.016 271.632 104.46C267.196 102.053 262.745 99.6731 258.281 97.3201C250.362 93.1331 245.523 84.693 245.963 75.702C246.403 66.2261 246.666 57.8521 246.842 51.4394C246.937 48.1646 246.29 44.911 244.95 41.9223C243.611 38.9336 241.613 36.2875 239.108 34.1823C236.602 32.077 233.654 30.5673 230.483 29.7662C227.312 28.9652 224.001 28.8936 220.799 29.5568C214.662 30.8129 206.721 32.4877 197.769 34.4931C188.97 36.4764 179.776 33.1048 174.276 25.9428C168.975 19.0012 164.224 12.9411 160.485 8.22519Z" fill="#65BDAB"/>
<circle cx="144" cy="141" r="99" fill="#5D2F54"/>
<path d="M75.3835 180.056C77.9677 180.056 93.4733 181.876 94.2114 181.896C108.24 182.264 131.129 205.44 159.186 193.668L185.397 184.471C196.35 174.293 218.549 153.863 219.731 153.568C221.207 153.2 222.328 149.081 217.516 147.315C210.501 144.74 191.229 159.38 180.598 166.444C177.276 168.652 163.807 167.916 158.639 171.963M68 146.579C72.7993 146.579 104.548 137.75 123.376 151.362C128.164 154.823 134.24 157.031 140.358 159.013M110.824 166.813C115.993 166.444 153.279 178.953 156.233 181.528C158.868 183.826 159.186 178.173 159.186 175.274C159.186 172.375 157.463 168.284 155.864 166.444C154.84 165.558 154.464 164.946 153.279 164.237M153.279 164.237C158.172 162.641 166.233 159.619 172.476 156.196C177.069 153.679 180.683 151.319 182.813 150.258C189.458 146.947 195.558 146.41 198.319 151.729C199.795 154.575 198.067 153.517 196.959 155.408M153.279 164.237C149.553 162.01 144.992 160.513 140.358 159.013M140.358 159.013C146.142 156.34 158.428 150.874 160.294 149.522C164.355 146.579 168.755 144.275 171 143.636C173.584 142.9 177.568 141.642 180.598 147.683C182.444 151.361 179.491 150.116 179.491 152.133" stroke="#65BDAB" stroke-width="2"/>
<path d="M67.4438 85.0914C67.2925 85.0599 67.1446 85.0294 67 85C67.1375 85 67.2858 85.0313 67.4438 85.0914C75.3747 86.7454 92.2899 91.3189 100 97.1786C97.6429 94.6905 91.75 89.4 87.0357 88.1429C81.1429 86.5714 111 92.0714 122.786 103.464C121.214 101.5 117.757 97.4143 116.5 96.7857C114.929 96 130.25 101.893 136.929 115.25C137.976 113.024 140.386 108.493 141.643 108.179C139.679 118.393 142.114 138.271 167.571 136.071C164.429 135.679 155.943 134.579 153.429 131.75C160.5 129 162.464 129.393 182.107 112.5C203.321 96.3929 211.582 101.11 220.607 103.464C220.214 104.25 219.507 105.9 219.821 106.214C220.214 106.607 209.214 100.986 200.964 104.25C199.708 107.641 197.754 114.934 199.537 118.021C199.625 118.158 199.709 118.283 199.786 118.393C199.696 118.277 199.613 118.153 199.537 118.021C198.574 116.527 197.036 113.519 197.036 110.929C196.381 112.369 196.478 115.744 195.857 117.607C194.679 121.143 189.31 127.036 185.643 130.179C186.298 129 187.45 125.543 186.821 124.286C180.143 136.464 138.107 156.893 122 129.786C118.464 120.75 105.893 103.464 89.7857 100.714C106.286 110.536 113.99 119.216 116.893 128.214C120.821 140.393 131.429 142.357 133 143.143C129.333 143.274 121.057 142.907 117.286 140.393C117.94 140.262 119.329 139.921 119.643 139.607C115.714 138.821 110.214 137.643 107.464 134.5C104.714 131.357 100.393 127.821 94.8929 126.25C97.381 126.643 102.75 127.821 105.893 126.25C102.75 125.857 98.7305 125.64 94.8929 123.5C89.7857 120.653 87.0357 114.857 82.7143 110.929C86.381 113.024 92.5357 116.821 96.8571 115.25C94.8699 114.639 92.4662 113.894 90.1786 112.893C86.5871 111.321 81.9286 108.571 78.3929 100.714C75.7932 95.7626 70.1745 86.1302 67.4438 85.0914Z" fill="#65BDAB"/>
<path d="M175.429 115.25C169.25 120.605 157.488 126.774 151.465 129.393C148.95 128.45 147.012 124.286 146.357 122.321C151.072 123.579 156.965 119.441 159.322 117.214C156.338 119.303 151.23 119.432 148.704 119.216C148.563 119.217 148.435 119.205 148.322 119.179C148.441 119.192 148.569 119.204 148.704 119.216C150.677 119.202 155.183 116.586 157.75 113.286C161.821 108.052 167.31 103.857 169.929 102.679C169.3 102.05 166.524 102.417 165.215 102.679C171.186 99.8501 177.655 99.9287 180.143 100.322C178.572 99.0644 176.084 97.7025 175.036 97.1786C183.836 96.5501 189.441 98.7501 191.143 99.9286C190.357 98.3572 187.869 96.9168 186.036 96.0002C190.122 95.6859 195.596 97.9644 197.822 99.143C208.429 96.0003 217.988 100.191 221 102.286C213.143 97.5715 201.675 99.7819 199.786 100.322C197.036 101.107 181.322 110.143 175.429 115.25Z" fill="#65BDAB"/>
</g>
<defs>
<filter id="filter0_d_848_22630" x="0" y="0" width="287" height="290" filterUnits="userSpaceOnUse" color-interpolation-filters="sRGB">
<feFlood flood-opacity="0" result="BackgroundImageFix"/>
<feColorMatrix in="SourceAlpha" type="matrix" values="0 0 0 0 0 0 0 0 0 0 0 0 0 0 0 0 0 0 127 0" result="hardAlpha"/>
<feOffset dy="4"/>
<feGaussianBlur stdDeviation="2"/>
<feComposite in2="hardAlpha" operator="out"/>
<feColorMatrix type="matrix" values="0 0 0 0 0 0 0 0 0 0 0 0 0 0 0 0 0 0 0.25 0"/>
<feBlend mode="normal" in2="BackgroundImageFix" result="effect1_dropShadow_848_22630"/>
<feBlend mode="normal" in="SourceGraphic" in2="effect1_dropShadow_848_22630" result="shape"/>
</filter>
</defs>
</svg>
