<svg width="28" height="19" viewBox="0 0 28 19" fill="none" xmlns="http://www.w3.org/2000/svg">
<path d="M27.965 6.95009L26.2753 2.79334C26.1675 2.52962 25.982 2.30366 25.7426 2.14451C25.5032 1.98536 25.221 1.90029 24.9321 1.90023H20.2759V0.475058C20.2759 0.349065 20.225 0.228232 20.1345 0.139141C20.0439 0.0500507 19.9211 0 19.7931 0H1.44828C1.06417 0 0.695795 0.150152 0.42419 0.417423C0.152586 0.684695 0 1.04719 0 1.42517V14.7268C0 15.1048 0.152586 15.4673 0.42419 15.7345C0.695795 16.0018 1.06417 16.152 1.44828 16.152H3.89707C4.01366 16.9429 4.41585 17.6661 5.03 18.1891C5.64415 18.7121 6.42918 19 7.24138 19C8.05358 19 8.83861 18.7121 9.45276 18.1891C10.0669 17.6661 10.4691 16.9429 10.5857 16.152H17.4143C17.5309 16.9429 17.9331 17.6661 18.5472 18.1891C19.1614 18.7121 19.9464 19 20.7586 19C21.5708 19 22.3559 18.7121 22.97 18.1891C23.5842 17.6661 23.9863 16.9429 24.1029 16.152H26.5517C26.9358 16.152 27.3042 16.0018 27.5758 15.7345C27.8474 15.4673 28 15.1048 28 14.7268V7.12587C27.9998 7.06562 27.9879 7.00597 27.965 6.95009ZM20.2759 2.85035H24.9321C25.0286 2.85016 25.123 2.87846 25.203 2.9316C25.2831 2.98474 25.3451 3.06028 25.381 3.14845L26.804 6.65081H20.2759V2.85035ZM0.965517 1.42517C0.965517 1.29918 1.01638 1.17835 1.10691 1.08926C1.19745 1.00017 1.32024 0.950115 1.44828 0.950115H19.3103V9.50115H0.965517V1.42517ZM7.24138 18.0522C6.76398 18.0522 6.29729 17.9129 5.90035 17.6519C5.5034 17.3909 5.19402 17.0199 5.01132 16.5859C4.82863 16.1519 4.78083 15.6743 4.87397 15.2135C4.9671 14.7527 5.19699 14.3295 5.53457 13.9973C5.87214 13.6651 6.30224 13.4389 6.77047 13.3473C7.2387 13.2556 7.72404 13.3026 8.1651 13.4824C8.60616 13.6622 8.98314 13.9667 9.24838 14.3573C9.51361 14.7479 9.65517 15.2071 9.65517 15.6769C9.65517 16.3069 9.40086 16.911 8.94819 17.3565C8.49551 17.8019 7.88156 18.0522 7.24138 18.0522ZM17.4143 15.2018H10.5857C10.4691 14.4109 10.0669 13.6877 9.45276 13.1647C8.83861 12.6417 8.05358 12.3538 7.24138 12.3538C6.42918 12.3538 5.64415 12.6417 5.03 13.1647C4.41585 13.6877 4.01366 14.4109 3.89707 15.2018H1.44828C1.32024 15.2018 1.19745 15.1518 1.10691 15.0627C1.01638 14.9736 0.965517 14.8528 0.965517 14.7268V10.4513H19.3103V12.6734C18.8073 12.9088 18.3711 13.2627 18.0403 13.7038C17.7096 14.1449 17.4946 14.6594 17.4143 15.2018ZM20.7586 18.0522C20.2812 18.0522 19.8145 17.9129 19.4176 17.6519C19.0206 17.3909 18.7113 17.0199 18.5286 16.5859C18.3459 16.1519 18.2981 15.6743 18.3912 15.2135C18.4843 14.7527 18.7142 14.3295 19.0518 13.9973C19.3894 13.6651 19.8195 13.4389 20.2877 13.3473C20.7559 13.2556 21.2413 13.3026 21.6823 13.4824C22.1234 13.6622 22.5004 13.9667 22.7656 14.3573C23.0308 14.7479 23.1724 15.2071 23.1724 15.6769C23.1724 16.3069 22.9181 16.911 22.4654 17.3565C22.0128 17.8019 21.3988 18.0522 20.7586 18.0522ZM27.0345 14.7268C27.0345 14.8528 26.9836 14.9736 26.8931 15.0627C26.8026 15.1518 26.6798 15.2018 26.5517 15.2018H24.1029C23.9748 14.3291 23.4997 13.5421 22.782 13.014C22.0643 12.486 21.1628 12.26 20.2759 12.3859V7.60092H27.0345V14.7268Z" fill="#E4E4E4"/>
</svg>
