<svg width="378" height="261" viewBox="0 0 378 261" fill="none" xmlns="http://www.w3.org/2000/svg">
<path d="M95.6132 132.701C111.058 142.771 115.063 138.102 140.905 136.186L135.182 115.674C110.951 128.487 96.0915 124.514 84.9787 110.167C46.1152 60.6958 48.4494 31.7989 58.3257 24.037C60.5183 22.3138 67.1058 23.794 70.1283 34.2091L77.4765 56.5379L92.9568 40.2015C95.2353 38 99.6228 31.2678 103.524 34.1273C104.874 35.1813 107.129 38.5044 105.35 43.3656C98.8039 54.1502 83.8988 75.2564 79.9474 80.6185C76.8989 84.7554 80.7002 90.4565 87.1047 85.484C95.2651 77.3667 113.366 59.9133 116.282 47.9572C118.289 43.8305 119.813 33.4358 109.861 24.871C107.974 24.2437 99.6161 18.9791 91.1185 26.4516C88.589 29.2207 81.7889 38.0869 80.6623 39.6653L75.1082 22.9044C71.068 12.8611 35.6518 3.74828 40.1034 37.1875C44.555 70.6268 63.9375 112.048 95.6132 132.701Z" fill="#E66A9D"/>
<path fill-rule="evenodd" clip-rule="evenodd" d="M264.186 76.2359C222.719 37.0042 171.377 41.7117 151.576 50.5307C141.92 54.8312 135.27 59.1277 131.39 64.5095C127.421 70.0157 126.564 76.3459 127.745 84.1446C132.01 112.308 139.087 138.745 144.165 157.713C145.603 163.087 146.881 167.861 147.89 171.905L147.891 171.91L147.892 171.915C148.396 173.896 148.928 176.638 149.547 179.822C149.614 180.167 149.682 180.517 149.751 180.872C150.45 184.465 151.25 188.491 152.207 192.354C153.161 196.203 154.291 199.979 155.674 203.056C157.007 206.021 158.78 208.813 161.28 210.055C161.814 210.32 162.364 210.599 162.928 210.885C165.997 212.442 169.478 214.208 172.998 215.106C177.309 216.205 181.947 216.087 186.385 212.86C201.983 201.521 210.289 192.646 223.78 178.232L223.781 178.231L223.786 178.225L223.793 178.218C225.926 175.939 228.189 173.521 230.632 170.932L230.685 170.876L230.734 170.817C232.954 168.092 235.496 165.29 238.209 162.461L243.416 191.892L243.465 192.167L243.583 192.421C250.9 208.065 261.183 216.408 272.151 219.611C283.052 222.795 294.326 220.812 303.549 216.404L303.763 216.302L303.949 216.155C317.63 205.345 327.564 196.52 334.402 188.83C341.238 181.144 345.113 174.447 346.45 167.885C347.798 161.267 346.507 155.075 343.6 148.545C340.897 142.474 336.718 135.946 331.801 128.387C331.516 127.949 331.228 127.507 330.938 127.062C330.93 127.05 330.922 127.038 330.914 127.025L330.914 127.025L330.832 126.9L330.464 126.333L330.269 126.153C328.24 124.28 326.28 122.751 324.423 121.548C322.618 120.379 320.909 119.517 319.327 118.942C316.218 117.813 313.134 117.648 310.938 119.162C308.534 120.82 308.156 123.745 308.983 126.565C309.319 127.71 309.864 128.921 310.621 130.179C311.729 132.023 313.29 133.97 315.306 135.964C315.884 136.536 316.438 137.101 316.971 137.661C322.276 143.236 325.353 148.21 326.894 152.675C328.575 157.549 328.466 161.932 327.278 166.026C326.077 170.168 323.751 174.078 320.901 177.927C318.947 180.567 316.827 183.077 314.699 185.597L314.697 185.599C313.741 186.731 312.783 187.865 311.837 189.014C298.12 199.978 287.635 204.555 279.767 204.997C272.099 205.428 266.616 201.946 262.65 195.788C258.606 189.508 256.206 180.501 255.073 170.295C254.225 162.657 254.099 154.466 254.472 146.461C260.182 140.94 265.445 135.714 268.803 131.364L268.823 131.341C268.837 131.325 268.854 131.307 268.872 131.285C268.94 131.207 269.038 131.092 269.162 130.945C269.411 130.651 269.765 130.226 270.194 129.693C271.052 128.629 272.216 127.126 273.441 125.372C275.845 121.928 278.661 117.273 279.685 112.987C280.656 108.926 280.047 104.565 278.748 100.45C277.443 96.3171 275.388 92.2634 273.265 88.7274C271.137 85.1828 268.906 82.1021 267.21 79.9102C266.361 78.8126 265.643 77.9335 265.135 77.326C264.88 77.0222 264.678 76.7858 264.538 76.6238C264.468 76.5428 264.413 76.4805 264.376 76.4374C264.357 76.4158 264.342 76.3993 264.331 76.3875L264.324 76.379L264.319 76.3735C264.318 76.3718 264.316 76.3703 264.315 76.3692L264.314 76.3679C264.311 76.3697 264.247 76.4253 262.726 77.777L264.313 76.3666L264.253 76.299L264.186 76.2359ZM225.81 113C220.681 110.093 216.905 104.058 215.022 99.2948L213.045 100.074C213.129 100.284 213.216 100.498 213.307 100.713L203.825 104.358L204.588 106.339L214.189 102.649C214.947 104.192 215.872 105.799 216.954 107.355L209.856 113.232L211.213 114.867L218.224 109.061C219.66 110.859 221.318 112.52 223.185 113.842L219.075 120.475L220.883 121.593L224.986 114.97C227.145 116.152 229.549 116.865 232.162 116.845L231.615 124.63L233.734 124.78L234.304 116.665C234.447 116.642 234.592 116.619 234.736 116.591C236.36 116.284 238.032 115.691 239.748 114.777L243.155 122.868L245.113 122.046L241.591 113.679C242.576 113.031 243.575 112.275 244.587 111.405L251.47 117.086L252.823 115.45L246.17 109.959C246.287 109.846 246.404 109.732 246.521 109.617L245.024 108.109C241.086 112.009 237.505 113.906 234.339 114.505C231.189 115.102 228.342 114.434 225.81 113ZM187.097 91.2197C182.962 94.2425 176.549 97.3314 170.659 97.0515C167.753 96.9134 164.989 95.9577 162.643 93.7724C160.286 91.5756 158.27 88.0598 157.022 82.6603L154.951 83.1365C154.988 83.2966 155.027 83.4551 155.065 83.6124L146.508 84.7054L146.778 86.811L155.632 85.6807C156.023 86.9565 156.464 88.1288 156.952 89.2034L149.507 94.3986L150.725 96.139L157.924 91.1148C158.887 92.8041 159.985 94.1974 161.194 95.3248C161.302 95.4247 161.411 95.5216 161.519 95.6172L157.67 102.784L159.543 103.788L163.236 96.9127C165.434 98.3243 167.847 99.0042 170.304 99.1573L170.24 106.948L172.365 106.967L172.429 99.1644C174.714 99.0428 177.002 98.5235 179.176 97.7693L182.007 106.421L184.027 105.763L181.161 97.004C182.906 96.2661 184.546 95.4007 186.011 94.5009L192.16 102.745L193.864 101.477L187.79 93.3344C187.982 93.2003 188.17 93.0671 188.353 92.9335L187.097 91.2197ZM188.25 147.009C187.992 143.425 186.273 139.51 181.683 138.439C179.721 137.981 178.068 138.189 177.07 139.393C176.131 140.527 176.045 142.25 176.371 144.109C177.035 147.896 179.597 153.3 183.322 159.144L184.335 160.735L186.608 160.095C187.582 159.598 188.517 159.129 189.406 158.684C189.407 158.683 189.409 158.682 189.41 158.682C189.412 158.681 189.413 158.68 189.415 158.679C191.686 157.541 193.651 156.555 195.186 155.648C197.316 154.389 198.881 153.297 199.941 152.259C201.009 151.212 201.629 150.153 201.732 148.967C201.833 147.804 201.42 146.679 200.788 145.533C200.082 144.255 199.086 143.492 197.931 143.178C196.803 142.872 195.609 143.018 194.506 143.379C192.32 144.097 189.264 146.015 188.157 147.517L188.26 147.16L188.25 147.009Z" fill="#E66A9D"/>
<path d="M215.022 99.2948C216.905 104.058 220.681 110.093 225.81 113C228.342 114.434 231.189 115.102 234.339 114.505C237.505 113.906 241.086 112.009 245.024 108.109L246.521 109.617C246.404 109.732 246.287 109.846 246.17 109.959L252.823 115.45L251.47 117.086L244.587 111.405C243.575 112.275 242.576 113.031 241.591 113.679L245.113 122.046L243.155 122.868L239.748 114.777C238.032 115.691 236.36 116.284 234.736 116.591C234.592 116.619 234.447 116.642 234.304 116.665L233.734 124.78L231.615 124.63L232.162 116.845C229.549 116.865 227.145 116.152 224.986 114.97L220.883 121.593L219.075 120.475L223.185 113.842C221.318 112.52 219.66 110.859 218.224 109.061L211.213 114.867L209.856 113.232L216.954 107.355C215.872 105.799 214.947 104.192 214.189 102.649L204.588 106.339L203.825 104.358L213.307 100.713C213.216 100.498 213.129 100.284 213.045 100.074L215.022 99.2948Z" fill="#0B0B0B"/>
<path d="M187.097 91.2197C182.962 94.2425 176.549 97.3314 170.659 97.0515C167.753 96.9134 164.989 95.9577 162.643 93.7724C160.286 91.5756 158.27 88.0598 157.022 82.6603L154.951 83.1365C154.988 83.2966 155.027 83.4551 155.065 83.6124L146.508 84.7054L146.778 86.811L155.632 85.6807C156.023 86.9565 156.464 88.1288 156.952 89.2034L149.507 94.3986L150.725 96.139L157.924 91.1148C158.887 92.8041 159.985 94.1974 161.194 95.3248C161.302 95.4247 161.411 95.5216 161.519 95.6172L157.67 102.784L159.543 103.788L163.236 96.9127C165.434 98.3243 167.847 99.0042 170.304 99.1573L170.24 106.948L172.365 106.967L172.429 99.1644C174.714 99.0428 177.002 98.5235 179.176 97.7693L182.007 106.421L184.027 105.763L181.161 97.004C182.906 96.2661 184.546 95.4007 186.011 94.5009L192.16 102.745L193.864 101.477L187.79 93.3344C187.982 93.2003 188.17 93.0671 188.353 92.9335L187.097 91.2197Z" fill="#0D0D0D"/>
<path d="M289.934 116.944C287.614 117.957 285.254 120.072 283.598 124.009L283.491 124.263L286.251 128.665L279.022 135.782L285.398 145.951L280.332 149.119L285.49 157.347L290.556 154.179L297.96 165.989L306.943 161.67L310.119 166.736L310.441 166.711C311.919 166.594 314.264 166.08 316.565 164.92C318.868 163.758 321.167 161.928 322.477 159.156L322.601 158.894L311.452 141.111L316.971 137.661C316.438 137.101 315.884 136.536 315.306 135.964C313.29 133.97 311.729 132.023 310.621 130.179L306.294 132.884L296.03 116.513L295.84 116.454C294.464 116.034 292.238 115.937 289.934 116.944Z" fill="#FFD678"/>
<path fill-rule="evenodd" clip-rule="evenodd" d="M331.801 128.387L316.971 137.661C316.438 137.101 315.884 136.536 315.306 135.964C313.29 133.97 311.729 132.023 310.621 130.179L324.423 121.548C326.28 122.751 328.24 124.28 330.269 126.153L330.464 126.333L330.832 126.9L330.914 127.025L330.914 127.025L330.938 127.062C331.228 127.507 331.516 127.949 331.801 128.387Z" fill="#E66A9D"/>
<path d="M330.269 126.153L330.464 126.333L330.832 126.9L330.914 127.025L330.914 127.025L330.938 127.062C331.228 127.507 331.516 127.949 331.801 128.387L341.48 122.334L352.629 140.117L352.92 140.12C355.988 140.154 358.641 138.888 360.693 137.326C362.743 135.766 364.23 133.883 364.981 132.606L365.144 132.328L361.968 127.262L369.781 121.078L362.377 109.268L367.443 106.1L362.285 97.8725L357.219 101.04L350.843 90.8707L341.276 94.2573L338.516 89.855L338.24 89.84C333.971 89.6091 331.035 90.8056 329.109 92.4473C327.196 94.0777 326.312 96.1196 326.089 97.5398L326.058 97.736L336.322 114.107L324.423 121.548C326.28 122.751 328.24 124.28 330.269 126.153Z" fill="#FFD678"/>
<path d="M181.683 138.439C186.273 139.51 187.992 143.425 188.25 147.009L188.26 147.16L188.157 147.517C189.264 146.015 192.32 144.097 194.506 143.379C195.609 143.018 196.803 142.872 197.931 143.178C199.086 143.492 200.082 144.255 200.788 145.533C201.42 146.679 201.833 147.804 201.732 148.967C201.629 150.153 201.009 151.212 199.941 152.259C198.881 153.297 197.316 154.389 195.186 155.648C193.651 156.555 191.686 157.541 189.415 158.679L189.41 158.682L189.406 158.684C188.517 159.129 187.582 159.598 186.608 160.095L184.335 160.735L183.322 159.144C179.597 153.3 177.035 147.896 176.371 144.109C176.045 142.25 176.131 140.527 177.07 139.393C178.068 138.189 179.721 137.981 181.683 138.439Z" fill="#940200"/>
</svg>
