<svg width="483" height="242" viewBox="0 0 483 242" fill="none" xmlns="http://www.w3.org/2000/svg">
<path d="M116.669 160.783C141.5 168.363 145.092 160.481 179.3 147.78L163.535 122.271C135.768 149.083 114.113 149.521 93.4683 134.46C21.544 82.7414 13.3976 42.7384 23.7212 28.3752C26.0131 25.1865 35.5034 24.6118 43.6662 37.5183L62.3411 64.8489L76.8913 36.6944C79.1124 32.8249 82.414 22.0018 88.8096 24.3439C91.048 25.2416 95.3985 28.8548 94.8937 36.1265C90.2574 53.276 78.3512 87.6578 75.1036 96.457C72.5979 103.246 79.9703 109.471 86.6887 100.239C94.5522 86.0662 112.211 55.3753 111.479 38.0612C112.578 31.6939 110.575 17.0363 93.7606 9.34381C90.9632 9.23326 77.5977 5.38104 69.0259 18.8134C66.6873 23.5489 60.9569 38.2026 60.0503 40.7785L45.9806 20.2781C36.5864 8.27258 -14.8872 9.79952 4.21558 53.2927C23.3183 96.7858 65.7412 145.236 116.669 160.783Z" fill="#E66A9D"/>
<path fill-rule="evenodd" clip-rule="evenodd" d="M322.616 18.4572C251.174 -18.3914 183.563 8.06069 160.228 27.7363C148.849 37.3309 141.533 45.7444 138.391 54.542C135.176 63.5431 136.492 72.4415 141.141 82.5292C157.926 118.958 177.842 151.952 192.131 175.625C196.179 182.331 199.776 188.29 202.721 193.366L202.725 193.372L202.729 193.378C204.185 195.861 205.978 199.362 208.06 203.428C208.286 203.868 208.514 204.315 208.747 204.768C211.099 209.355 213.756 214.487 216.561 219.338C219.356 224.172 222.362 228.839 225.437 232.459C228.401 235.949 231.891 239.032 235.759 239.735C236.585 239.885 237.438 240.047 238.313 240.213C243.073 241.118 248.473 242.145 253.586 241.983C259.847 241.784 266.075 239.81 270.817 233.709C287.481 212.268 295.245 197.013 307.856 172.237L307.857 172.236L307.862 172.226L307.868 172.214C309.862 168.296 311.978 164.139 314.269 159.683L314.319 159.586L314.362 159.486C316.299 154.932 318.642 150.147 321.206 145.259L339.762 183.034L339.936 183.388L340.195 183.685C356.213 201.985 373.387 209.248 389.476 209.291C405.468 209.333 419.943 202.241 430.695 192.67L430.944 192.449L431.139 192.177C445.416 172.202 455.402 156.377 461.645 143.301C467.885 130.229 470.507 119.654 469.748 110.254C468.983 100.775 464.815 92.9033 458.328 85.2066C452.297 78.0517 444.09 70.8566 434.481 62.5547C433.924 62.0733 433.362 61.5881 432.796 61.099C432.78 61.0857 432.765 61.0725 432.75 61.0592L432.749 61.0584L432.59 60.9213L431.869 60.2988L431.536 60.132C428.058 58.3909 424.809 57.0903 421.825 56.1893C418.926 55.3138 416.278 54.8156 413.913 54.6572C409.266 54.3459 405.029 55.3301 402.65 58.2369C400.047 61.4192 400.681 65.5244 402.902 69.0154C403.804 70.4331 405.016 71.8571 406.531 73.2634C408.752 75.3246 411.626 77.3476 415.132 79.2562C416.137 79.8036 417.109 80.3517 418.048 80.9004C427.405 86.3675 433.514 91.8915 437.344 97.3298C441.525 103.265 443.093 109.236 443.087 115.239C443.082 121.312 441.466 127.511 439.116 133.833C437.505 138.169 435.62 142.393 433.726 146.634L433.725 146.637C432.874 148.543 432.022 150.452 431.193 152.376C416.925 172.574 404.533 182.866 394.061 186.543C383.858 190.125 375.078 187.559 367.305 180.781C359.377 173.868 352.607 162.622 347.083 149.26C342.948 139.259 339.573 128.229 336.945 117.253C342.51 107.552 347.585 98.4226 350.427 91.2254L350.445 91.1863C350.458 91.1593 350.473 91.1278 350.489 91.0919C350.55 90.9588 350.638 90.7656 350.749 90.5181C350.97 90.0234 351.283 89.3099 351.655 88.4209C352.399 86.645 353.385 84.1569 354.356 81.3047C356.262 75.7059 358.249 68.3074 357.958 62.1091C357.683 56.2361 355.152 50.5744 351.786 45.5166C348.404 40.4361 344.038 35.7564 339.783 31.8035C335.518 27.8411 331.295 24.5464 328.144 22.2446C326.566 21.092 325.251 20.1838 324.325 19.5609C323.862 19.2494 323.496 19.0087 323.244 18.8444C323.117 18.7622 323.019 18.6992 322.951 18.6557C322.917 18.634 322.89 18.6174 322.872 18.6056L322.858 18.5969L322.85 18.5914C322.847 18.5897 322.844 18.5883 322.842 18.5872L322.84 18.5858C322.837 18.5895 322.773 18.6895 321.243 21.1133L322.839 18.5844L322.731 18.5165L322.616 18.4572ZM285.085 83.2016C277.009 81.2764 269.541 74.589 265.129 68.8823L262.761 70.7095C262.956 70.9616 263.157 71.2155 263.364 71.472L251.963 80.1116L253.771 82.4929L265.315 73.7458C266.944 75.5362 268.824 77.3483 270.896 79.0291L263.594 89.7561L266.068 91.4371L273.282 80.8401C275.928 82.7109 278.82 84.3091 281.863 85.3673L278.898 95.9473L281.78 96.7529L284.741 86.1891C288.124 86.943 291.655 86.9675 295.18 85.9178L297.486 96.6631L300.412 96.0371L298.009 84.8367C298.193 84.7499 298.379 84.6615 298.563 84.5682C300.641 83.5165 302.671 82.061 304.634 80.1526L312.407 89.7653L314.735 87.8871L306.698 77.9473C307.777 76.6845 308.833 75.2712 309.86 73.6985L321.394 78.6906L322.584 75.9483L311.437 71.1229C311.55 70.925 311.664 70.7252 311.777 70.523L309.162 69.0688C305.362 75.8845 301.259 79.8521 297.211 81.9015C293.183 83.9401 289.07 84.1516 285.085 83.2016ZM224.196 68.8823C219.785 74.589 212.317 81.2763 204.241 83.2016C200.256 84.1517 196.143 83.9402 192.115 81.9015C188.066 79.8521 183.964 75.8846 180.164 69.0688L177.549 70.523C177.662 70.7251 177.776 70.9244 177.889 71.1222L166.741 75.9483L167.931 78.6906L179.465 73.6985C180.493 75.2713 181.549 76.6844 182.628 77.9473L174.59 87.8871L176.918 89.7653L184.691 80.1526C186.654 82.0612 188.685 83.5165 190.762 84.5682C190.947 84.6614 191.132 84.7499 191.316 84.8367L188.913 96.0371L191.839 96.6631L194.145 85.9178C197.67 86.9675 201.201 86.9429 204.584 86.1891L207.545 96.7529L210.427 95.9473L207.462 85.3673C210.505 84.3092 213.398 82.7115 216.043 80.8408L223.257 91.4371L225.732 89.7561L218.429 79.0291C220.501 77.3483 222.381 75.5362 224.01 73.7458L235.554 82.4929L237.362 80.1116L225.961 71.472C226.168 71.2154 226.37 70.9617 226.565 70.7095L224.196 68.8823ZM247.579 143.9C245.828 139.152 241.971 134.529 235.343 134.876C232.51 135.024 230.356 135.952 229.477 137.971C228.651 139.872 229.208 142.236 230.376 144.624C232.755 149.487 238.335 155.794 245.66 162.244L247.653 163.998L250.477 162.244C251.601 161.191 252.682 160.191 253.71 159.241C253.711 159.239 253.713 159.237 253.715 159.236C253.717 159.234 253.719 159.233 253.72 159.231C256.347 156.803 258.62 154.7 260.342 152.872C262.73 150.336 264.42 148.248 265.447 146.429C266.484 144.594 266.908 142.919 266.584 141.275C266.265 139.662 265.266 138.301 263.962 136.999C262.508 135.546 260.862 134.903 259.176 134.931C257.531 134.958 255.973 135.622 254.623 136.542C251.946 138.368 248.562 142.159 247.653 144.624V144.1L247.579 143.9Z" fill="#E66A9D"/>
<path d="M265.129 68.8823C269.541 74.589 277.009 81.2764 285.085 83.2016C289.07 84.1516 293.183 83.9401 297.211 81.9015C301.259 79.8521 305.362 75.8845 309.162 69.0688L311.777 70.523C311.664 70.7252 311.55 70.925 311.437 71.1229L322.584 75.9483L321.394 78.6906L309.86 73.6985C308.833 75.2712 307.777 76.6845 306.698 77.9473L314.735 87.8871L312.407 89.7653L304.634 80.1526C302.671 82.061 300.641 83.5165 298.563 84.5682C298.379 84.6615 298.193 84.7499 298.009 84.8367L300.412 96.0371L297.486 96.6631L295.18 85.9178C291.655 86.9675 288.124 86.943 284.741 86.1891L281.78 96.7529L278.898 95.9473L281.863 85.3673C278.82 84.3091 275.928 82.7109 273.282 80.8401L266.068 91.4371L263.594 89.7561L270.896 79.0291C268.824 77.3483 266.944 75.5362 265.315 73.7458L253.771 82.4929L251.963 80.1116L263.364 71.472C263.157 71.2155 262.956 70.9616 262.761 70.7095L265.129 68.8823Z" fill="#0B0B0B"/>
<path d="M224.196 68.8823C219.785 74.589 212.317 81.2763 204.241 83.2016C200.256 84.1517 196.143 83.9402 192.115 81.9015C188.066 79.8521 183.964 75.8846 180.164 69.0688L177.549 70.523C177.662 70.7251 177.776 70.9244 177.889 71.1222L166.741 75.9483L167.931 78.6906L179.465 73.6985C180.493 75.2713 181.549 76.6844 182.628 77.9473L174.59 87.8871L176.918 89.7653L184.691 80.1526C186.654 82.0612 188.685 83.5165 190.762 84.5682C190.947 84.6614 191.132 84.7499 191.316 84.8367L188.913 96.0371L191.839 96.6631L194.145 85.9178C197.67 86.9675 201.201 86.9429 204.584 86.1891L207.545 96.7529L210.427 95.9473L207.462 85.3673C210.505 84.3092 213.398 82.7115 216.043 80.8408L223.257 91.4371L225.732 89.7561L218.429 79.0291C220.501 77.3483 222.381 75.5362 224.01 73.7458L235.554 82.4929L237.362 80.1116L225.961 71.472C226.168 71.2154 226.37 70.9617 226.565 70.7095L224.196 68.8823Z" fill="#0D0D0D"/>
<path d="M373.37 63.4523C370.628 65.731 368.263 69.515 367.562 75.4879L367.517 75.8732L372.973 80.7487L365.978 93.2035L378.581 104.466L372.967 110.733L383.163 119.845L388.777 113.578L403.413 126.658L413.875 117.301L420.154 122.912L420.578 122.752C422.532 122.016 425.504 120.403 428.162 117.934C430.824 115.461 433.217 112.086 433.905 107.824L433.97 107.421L411.933 87.7271L418.048 80.9004C417.109 80.3517 416.137 79.8036 415.132 79.2562C411.626 77.3476 408.752 75.3246 406.531 73.2634L401.737 78.6155L381.448 60.4843L381.168 60.4798C379.142 60.45 376.093 61.1894 373.37 63.4523Z" fill="#FFD678"/>
<path fill-rule="evenodd" clip-rule="evenodd" d="M434.481 62.5547L418.048 80.9004C417.109 80.3517 416.137 79.8036 415.132 79.2562C411.626 77.3476 408.752 75.3246 406.531 73.2634L421.825 56.1893C424.809 57.0903 428.058 58.3909 431.536 60.132L431.869 60.2988L432.59 60.9213L432.749 61.0584L432.75 61.0592L432.796 61.099C433.362 61.5881 433.924 62.0733 434.481 62.5547Z" fill="#E66A9D"/>
<path d="M431.536 60.132L431.869 60.2988L432.59 60.9213L432.749 61.0584L432.75 61.0592L432.796 61.099C433.362 61.5881 433.924 62.0733 434.481 62.5547L445.207 50.5802L467.245 70.2743L467.639 70.1649C471.804 69.0097 474.897 66.2598 477.062 63.3441C479.225 60.4313 480.5 57.3024 481.016 55.2816L481.128 54.8425L474.849 49.2316L483 37.8095L468.364 24.7299L473.978 18.4629L463.782 9.35129L458.168 15.6184L445.565 4.35551L433.947 12.6793L428.492 7.80382L428.113 7.89138C422.248 9.24897 418.745 12.016 416.781 14.9903C414.831 17.9441 414.433 21.0523 414.688 23.0606L414.723 23.3379L435.012 41.4687L421.825 56.1893C424.809 57.0903 428.058 58.3909 431.536 60.132Z" fill="#FFD678"/>
<path d="M235.343 134.876C241.971 134.529 245.828 139.152 247.579 143.9L247.653 144.1V144.624C248.562 142.159 251.946 138.368 254.623 136.542C255.973 135.622 257.531 134.958 259.176 134.931C260.862 134.903 262.508 135.546 263.962 136.999C265.266 138.301 266.265 139.662 266.584 141.275C266.908 142.919 266.484 144.594 265.447 146.429C264.42 148.248 262.73 150.336 260.342 152.872C258.62 154.7 256.347 156.803 253.72 159.231L253.715 159.236L253.71 159.241C252.682 160.191 251.601 161.191 250.477 162.244L247.653 163.998L245.66 162.244C238.335 155.794 232.755 149.487 230.376 144.624C229.208 142.236 228.651 139.872 229.477 137.971C230.356 135.952 232.51 135.024 235.343 134.876Z" fill="#940200"/>
</svg>
